<svg width="726" height="607" viewBox="0 0 726 607" fill="none" xmlns="http://www.w3.org/2000/svg">
<mask id="path-1-inside-1_55825_4513" fill="white">
<path d="M468.893 0.122656C478.652 -0.289237 485.812 -0.0040803 493.385 6.49116C499.5 18.5311 498.835 29.7156 498.645 43.0229C498.676 45.5577 498.708 48.1241 498.74 50.7539C498.676 62.0968 498.518 69.5425 493.005 79.6498C487.935 84.2123 487.935 84.2123 481.598 84.2123C482.644 86.3034 483.69 88.3946 484.767 90.5491C491.484 92.7036 491.484 92.7036 499.215 94.0977C503.144 94.8898 503.144 94.8898 507.168 95.7136C509.195 96.0938 511.191 96.474 513.283 96.8859C514.582 94.3195 515.912 91.7848 517.243 89.155C522.788 81.0439 522.788 81.0439 528.523 78.0656C538.091 77.7804 545.632 80.7904 554.472 84.2123C558.844 80.4735 558.844 80.4735 559.034 70.1445C560.809 58.865 560.809 58.865 567.146 52.5282C574.465 50.5321 574.465 50.5321 582.988 52.5282C589.324 60.4175 594.14 68.9088 598.83 77.8755C607.036 76.1328 611.218 74.9288 617.84 69.5425C624.177 65.2018 624.177 65.2018 631.116 65.582C633.017 66.5009 634.918 67.4197 636.851 68.3702C637.896 71.5069 638.942 74.6437 640.019 77.8755C647.591 81.3607 647.591 81.3607 655.861 84.2123C665.366 90.5491 665.366 90.5491 667.141 97.8681C664.891 108.704 659.6 111.777 651.013 118.273C644.106 124.134 642.11 129.33 640.019 138.075C638.783 154.995 638.783 154.995 646.356 169.759C653.421 171.249 653.421 171.249 661.406 171.344C675.315 172.326 685.137 174.67 697.05 182.433C703.387 191.938 703.387 191.938 704.369 202.616C707.031 216.525 711.942 220.802 722.398 229.959C727.594 240.32 725.281 251.504 724.584 262.816C724.457 265.255 724.362 267.695 724.235 270.198C723.507 282.84 722.176 291.553 716.061 302.833C715.522 310.278 715.522 310.278 716.061 318.073C716.441 338.319 712.988 353.4 700.219 369.369C699.237 372.094 698.254 374.851 697.24 377.67C693.185 386.764 689.985 387.556 681.208 391.548C676.994 401.053 676.994 401.053 681.208 410.559C683.711 436.191 677.026 457.356 665.366 480.264C649.239 498.577 628.708 502.791 605.166 505.611C595.788 506.054 586.441 506.181 577.063 506.181C574.718 506.181 572.373 506.181 569.965 506.213C560.935 506.118 552.603 505.928 543.826 503.615C541.26 503.013 541.26 503.013 538.63 502.442C536.158 504.312 533.655 506.213 531.121 508.177C512.902 521.58 485.115 522.467 463.412 520.217C453.083 518.284 453.083 518.285 443.197 514.704C433.09 511.631 428.147 511.884 418.23 515.116C415.093 517.207 411.957 519.298 408.725 521.453C403.592 522.213 398.459 522.879 393.295 523.417C381.001 525.509 381.001 525.508 372.13 533.715C369.627 538.245 367.219 542.84 364.843 547.466C361.199 553.137 361.199 553.137 351.313 556.876C342.188 556.305 342.188 556.305 336.454 552.123C332.683 546.8 332.683 546.8 329.515 540.463C326.378 539.418 323.241 538.372 320.009 537.295C319.693 539.481 319.408 541.699 319.059 543.98C318.615 546.864 318.14 549.747 317.633 552.725C317.19 555.608 316.746 558.46 316.302 561.407C313.673 568.979 313.673 568.979 307.589 572.369C304.326 573.827 304.326 573.827 300.999 575.316C296.595 581.209 296.595 581.209 293.078 587.99C287.565 598.128 283.509 603.008 272.483 607C263.77 605.796 263.77 605.796 256.641 603.832C256.895 599.903 257.18 595.974 257.433 591.95C257.497 580.702 257.497 580.702 250.906 571.546C248.625 569.644 246.344 567.743 243.968 565.811C242.542 563.181 241.084 560.583 239.627 557.89C232.91 547.561 226.256 543.093 215.452 537.295C203.761 535.014 203.761 535.014 193.273 534.127C187.538 528.36 188.901 519.489 188.33 511.726C188.077 508.241 187.792 504.724 187.538 501.112C187.316 498.419 187.126 495.725 186.936 492.937C177.653 490.086 170.936 489.705 161.399 491.353C148.915 492.937 148.915 492.937 139.41 489.769C139.917 492.557 140.392 495.345 140.899 498.228C145.367 525.604 148.313 551.743 139.41 578.484C126.8 586.374 115.52 584.789 101.357 583.174C95.0523 581.653 95.0523 581.653 88.7155 575.316C85.1352 574.334 81.5232 573.352 77.8162 572.338C63.0197 567.902 63.0197 567.902 57.0314 559.474C57.0314 557.383 57.0314 555.292 57.0314 553.137C54.9402 553.137 52.8491 553.137 50.6946 553.137C39.8269 528.36 32.096 507.512 34.8525 480.264C31.9693 480.58 29.1177 480.897 26.1394 481.246C15.8421 480.264 15.8421 480.264 8.52303 473.515C2.81989 463.82 1.04558 456.5 0 445.411C4.72093 442.274 4.72093 442.274 9.50523 439.074C13.339 429.379 13.339 429.379 15.8421 420.064C21.0699 419.018 26.2978 417.973 31.6841 416.895C33.2683 410.622 33.2683 410.622 34.8525 404.222C42.7102 402.638 42.7102 402.638 50.6946 401.053C50.6946 398.962 50.6946 396.871 50.6946 394.716C55.7957 394.4 55.7957 394.4 60.9919 394.115C67.4238 392.752 67.4238 392.752 72.8735 388.38C77.1191 378.114 79.7489 367.88 82.5054 357.139C86.5293 343.959 90.268 339.206 101.389 331.348C109.881 327.198 118.308 324.663 127.338 321.843C136.527 319.277 136.527 319.277 142.579 312.338C156.171 307.87 169.637 304.892 183.768 302.833C183.926 300.837 184.085 298.84 184.243 296.813C184.465 294.215 184.718 291.616 184.972 288.955C185.194 286.389 185.415 283.822 185.637 281.161C186.936 274.317 186.936 274.317 193.273 267.98C206.802 260.629 216.466 261.643 231.294 264.812C232.34 265.857 233.385 266.903 234.462 267.98C234.399 263.925 234.336 259.869 234.272 255.687C234.082 243.425 234.082 243.425 237.631 236.296C248.34 238.007 253.726 239.623 262.978 245.801C264.024 236.391 265.069 226.981 266.147 217.286C264.182 216.24 262.186 215.194 260.127 214.149C257.56 212.755 254.962 211.361 252.301 209.935C249.702 208.572 247.136 207.21 244.506 205.816C237.631 201.443 237.631 201.443 231.294 191.938C229.488 173.815 231.262 156.864 240.799 141.244C255.311 126.986 271.565 111.366 292.888 111.334C296.595 110.732 300.334 110.162 304.167 109.56C311.138 99.6107 315.479 89.0599 320.009 77.8755C323.178 74.707 323.178 74.707 331.131 74.3902C334.299 74.4219 337.499 74.4536 340.794 74.4852C344.026 74.5169 347.226 74.5486 350.521 74.5803C352.993 74.612 355.496 74.6437 358.03 74.707C358.347 72.6159 358.664 70.5564 358.981 68.4336C361.991 50.7855 365.571 38.2703 377.041 24.0125C378.562 21.9847 380.051 19.9569 381.603 17.8658C386.546 14.5072 386.546 14.5072 394.879 15.2993C402.388 17.6757 402.388 17.6757 405.557 20.8441C408.06 20.2421 410.531 19.6401 413.097 19.0381C421.399 17.6757 421.399 17.6757 430.904 24.0125C438.73 24.456 438.73 24.4561 446.746 20.8441C450.39 16.0281 450.39 16.0281 454.065 11.117C462.588 1.8336 462.588 1.8336 468.893 0.122656Z"/>
</mask>
<path d="M468.893 0.122656C478.652 -0.289237 485.812 -0.0040803 493.385 6.49116C499.5 18.5311 498.835 29.7156 498.645 43.0229C498.676 45.5577 498.708 48.1241 498.74 50.7539C498.676 62.0968 498.518 69.5425 493.005 79.6498C487.935 84.2123 487.935 84.2123 481.598 84.2123C482.644 86.3034 483.69 88.3946 484.767 90.5491C491.484 92.7036 491.484 92.7036 499.215 94.0977C503.144 94.8898 503.144 94.8898 507.168 95.7136C509.195 96.0938 511.191 96.474 513.283 96.8859C514.582 94.3195 515.912 91.7848 517.243 89.155C522.788 81.0439 522.788 81.0439 528.523 78.0656C538.091 77.7804 545.632 80.7904 554.472 84.2123C558.844 80.4735 558.844 80.4735 559.034 70.1445C560.809 58.865 560.809 58.865 567.146 52.5282C574.465 50.5321 574.465 50.5321 582.988 52.5282C589.324 60.4175 594.14 68.9088 598.83 77.8755C607.036 76.1328 611.218 74.9288 617.84 69.5425C624.177 65.2018 624.177 65.2018 631.116 65.582C633.017 66.5009 634.918 67.4197 636.851 68.3702C637.896 71.5069 638.942 74.6437 640.019 77.8755C647.591 81.3607 647.591 81.3607 655.861 84.2123C665.366 90.5491 665.366 90.5491 667.141 97.8681C664.891 108.704 659.6 111.777 651.013 118.273C644.106 124.134 642.11 129.33 640.019 138.075C638.783 154.995 638.783 154.995 646.356 169.759C653.421 171.249 653.421 171.249 661.406 171.344C675.315 172.326 685.137 174.67 697.05 182.433C703.387 191.938 703.387 191.938 704.369 202.616C707.031 216.525 711.942 220.802 722.398 229.959C727.594 240.32 725.281 251.504 724.584 262.816C724.457 265.255 724.362 267.695 724.235 270.198C723.507 282.84 722.176 291.553 716.061 302.833C715.522 310.278 715.522 310.278 716.061 318.073C716.441 338.319 712.988 353.4 700.219 369.369C699.237 372.094 698.254 374.851 697.24 377.67C693.185 386.764 689.985 387.556 681.208 391.548C676.994 401.053 676.994 401.053 681.208 410.559C683.711 436.191 677.026 457.356 665.366 480.264C649.239 498.577 628.708 502.791 605.166 505.611C595.788 506.054 586.441 506.181 577.063 506.181C574.718 506.181 572.373 506.181 569.965 506.213C560.935 506.118 552.603 505.928 543.826 503.615C541.26 503.013 541.26 503.013 538.63 502.442C536.158 504.312 533.655 506.213 531.121 508.177C512.902 521.58 485.115 522.467 463.412 520.217C453.083 518.284 453.083 518.285 443.197 514.704C433.09 511.631 428.147 511.884 418.23 515.116C415.093 517.207 411.957 519.298 408.725 521.453C403.592 522.213 398.459 522.879 393.295 523.417C381.001 525.509 381.001 525.508 372.13 533.715C369.627 538.245 367.219 542.84 364.843 547.466C361.199 553.137 361.199 553.137 351.313 556.876C342.188 556.305 342.188 556.305 336.454 552.123C332.683 546.8 332.683 546.8 329.515 540.463C326.378 539.418 323.241 538.372 320.009 537.295C319.693 539.481 319.408 541.699 319.059 543.98C318.615 546.864 318.14 549.747 317.633 552.725C317.19 555.608 316.746 558.46 316.302 561.407C313.673 568.979 313.673 568.979 307.589 572.369C304.326 573.827 304.326 573.827 300.999 575.316C296.595 581.209 296.595 581.209 293.078 587.99C287.565 598.128 283.509 603.008 272.483 607C263.77 605.796 263.77 605.796 256.641 603.832C256.895 599.903 257.18 595.974 257.433 591.95C257.497 580.702 257.497 580.702 250.906 571.546C248.625 569.644 246.344 567.743 243.968 565.811C242.542 563.181 241.084 560.583 239.627 557.89C232.91 547.561 226.256 543.093 215.452 537.295C203.761 535.014 203.761 535.014 193.273 534.127C187.538 528.36 188.901 519.489 188.33 511.726C188.077 508.241 187.792 504.724 187.538 501.112C187.316 498.419 187.126 495.725 186.936 492.937C177.653 490.086 170.936 489.705 161.399 491.353C148.915 492.937 148.915 492.937 139.41 489.769C139.917 492.557 140.392 495.345 140.899 498.228C145.367 525.604 148.313 551.743 139.41 578.484C126.8 586.374 115.52 584.789 101.357 583.174C95.0523 581.653 95.0523 581.653 88.7155 575.316C85.1352 574.334 81.5232 573.352 77.8162 572.338C63.0197 567.902 63.0197 567.902 57.0314 559.474C57.0314 557.383 57.0314 555.292 57.0314 553.137C54.9402 553.137 52.8491 553.137 50.6946 553.137C39.8269 528.36 32.096 507.512 34.8525 480.264C31.9693 480.58 29.1177 480.897 26.1394 481.246C15.8421 480.264 15.8421 480.264 8.52303 473.515C2.81989 463.82 1.04558 456.5 0 445.411C4.72093 442.274 4.72093 442.274 9.50523 439.074C13.339 429.379 13.339 429.379 15.8421 420.064C21.0699 419.018 26.2978 417.973 31.6841 416.895C33.2683 410.622 33.2683 410.622 34.8525 404.222C42.7102 402.638 42.7102 402.638 50.6946 401.053C50.6946 398.962 50.6946 396.871 50.6946 394.716C55.7957 394.4 55.7957 394.4 60.9919 394.115C67.4238 392.752 67.4238 392.752 72.8735 388.38C77.1191 378.114 79.7489 367.88 82.5054 357.139C86.5293 343.959 90.268 339.206 101.389 331.348C109.881 327.198 118.308 324.663 127.338 321.843C136.527 319.277 136.527 319.277 142.579 312.338C156.171 307.87 169.637 304.892 183.768 302.833C183.926 300.837 184.085 298.84 184.243 296.813C184.465 294.215 184.718 291.616 184.972 288.955C185.194 286.389 185.415 283.822 185.637 281.161C186.936 274.317 186.936 274.317 193.273 267.98C206.802 260.629 216.466 261.643 231.294 264.812C232.34 265.857 233.385 266.903 234.462 267.98C234.399 263.925 234.336 259.869 234.272 255.687C234.082 243.425 234.082 243.425 237.631 236.296C248.34 238.007 253.726 239.623 262.978 245.801C264.024 236.391 265.069 226.981 266.147 217.286C264.182 216.24 262.186 215.194 260.127 214.149C257.56 212.755 254.962 211.361 252.301 209.935C249.702 208.572 247.136 207.21 244.506 205.816C237.631 201.443 237.631 201.443 231.294 191.938C229.488 173.815 231.262 156.864 240.799 141.244C255.311 126.986 271.565 111.366 292.888 111.334C296.595 110.732 300.334 110.162 304.167 109.56C311.138 99.6107 315.479 89.0599 320.009 77.8755C323.178 74.707 323.178 74.707 331.131 74.3902C334.299 74.4219 337.499 74.4536 340.794 74.4852C344.026 74.5169 347.226 74.5486 350.521 74.5803C352.993 74.612 355.496 74.6437 358.03 74.707C358.347 72.6159 358.664 70.5564 358.981 68.4336C361.991 50.7855 365.571 38.2703 377.041 24.0125C378.562 21.9847 380.051 19.9569 381.603 17.8658C386.546 14.5072 386.546 14.5072 394.879 15.2993C402.388 17.6757 402.388 17.6757 405.557 20.8441C408.06 20.2421 410.531 19.6401 413.097 19.0381C421.399 17.6757 421.399 17.6757 430.904 24.0125C438.73 24.456 438.73 24.4561 446.746 20.8441C450.39 16.0281 450.39 16.0281 454.065 11.117C462.588 1.8336 462.588 1.8336 468.893 0.122656Z" fill="#6BC3D6" stroke="black" stroke-width="30" mask="url(#path-1-inside-1_55825_4513)"/>
</svg>
