<svg width="364" height="441" viewBox="0 0 364 441" fill="none" xmlns="http://www.w3.org/2000/svg">
<path d="M160.776 63.9968C160.996 62.4022 161.213 60.8503 161.45 59.2458C163.67 52.9025 166.677 49.7723 172.831 44.4716L176.118 43.3759L180.869 41.7922L183.429 40.9387L184.859 38.6496C189.547 31.141 189.727 30.7948 193.563 22.0604C197.259 14.19 198.918 10.6729 200.067 8.63271C200.324 8.17727 200.528 7.83638 200.73 7.53959C204.338 7.49247 207.946 7.48741 211.554 7.52443L215.803 16.024L218.081 20.5802L223.157 20.1421C227.322 19.7825 227.541 19.7636 231.395 19.4108C233.621 19.5861 235.104 19.7094 236.258 19.8606C237.475 20.0201 237.895 20.1621 238.047 20.2229L238.048 20.2232C238.319 20.3317 238.586 20.4383 240.985 22.7302C243.835 28.2753 245.465 32.9716 246.567 39.1405L247.503 44.3755L252.753 45.2247C257.02 45.9151 257.045 45.9191 261.373 46.6041C267.236 47.6142 269.54 48.009 271.8 48.5789C273.383 48.9779 274.944 49.4627 277.689 50.3045L278.144 50.4441L278.613 50.5251C279.96 50.7573 280.633 50.8733 281.305 50.9923C281.986 51.1129 282.666 51.2366 284.048 51.4877L287.914 52.1907L290.693 49.412L293.813 46.2917L294.579 45.5253C297.104 45.6984 298.497 45.8301 299.876 46.0599C301.379 46.3105 302.906 46.6844 305.86 47.4726C307.543 50.0047 308.06 50.778 310.594 54.5663L312.044 56.7337L314.526 57.5343C316.455 58.1568 317.427 58.4702 318.398 58.7848C319.305 59.0788 320.213 59.3739 321.902 59.9235C325.868 61.8186 326.413 62.1859 326.851 62.6242C327.393 63.166 327.948 64.0235 330.05 67.9347C330.724 72.2812 330.897 73.7362 330.83 75.0432C330.772 76.1926 330.523 77.3326 329.625 80.5815C326.722 83.2451 325.402 83.9122 324.356 84.2315C322.723 84.7301 320.816 84.7414 314.867 84.7416C310.435 84.4944 306.105 84.2203 301.839 83.8027L290.34 82.6768L293.994 93.6387C295.844 99.189 297.62 103.323 300.654 106.908C303.329 110.068 306.753 112.468 310.588 115.155C310.816 115.315 311.045 115.476 311.276 115.638C330.547 129.625 339.436 136.108 344.962 141.565C349.756 146.3 351.885 150.114 356.491 159.105C356.319 166.34 353.599 170.968 348.089 178.478C343.751 182.716 342.506 183.828 341.474 184.398C340.832 184.753 340.242 184.944 336.426 185.477C334.09 185.07 333.705 185.003 330.68 184.481L323.869 183.304L322.142 189.997C319.831 198.95 318.235 206.134 320.839 216.706C321.744 223.336 319.925 226.64 315.973 233.82C315.181 235.259 314.304 236.853 313.346 238.66L312.766 239.754L312.568 240.975C312.177 243.393 311.8 245.822 311.421 248.27C311.282 249.167 311.143 250.066 311.002 250.968C310.605 253.197 310.346 254.641 310.1 255.74C309.857 256.825 309.707 257.187 309.653 257.301C309.65 257.307 309.647 257.314 309.644 257.321C309.591 257.444 309.496 257.663 307.002 260.04L306.873 260.163L306.749 260.292C303.269 263.939 301.025 267.306 299.662 271.343C298.55 274.636 298.132 278.175 297.722 281.651C297.69 281.925 297.658 282.198 297.625 282.47C294.805 296.643 287.806 307.645 276.331 316.604C273.45 316.821 272.01 316.91 270.699 316.91C270.421 316.91 270.148 316.906 269.865 316.897C269.829 316.675 269.79 316.436 269.748 316.177L269.739 316.119L269.729 316.062C269.226 313.235 268.728 310.431 268.23 307.537C267.758 304.707 267.284 301.897 266.778 298.987L266.706 298.569L266.586 298.162C265.232 293.543 263.673 289.768 261.248 286.287C258.861 282.861 255.913 280.127 252.434 277.258L243.19 269.635L240.373 281.28C240.181 282.075 240.003 282.822 239.83 283.553C239.554 284.718 239.287 285.842 238.984 287.055C235.11 301.72 231.287 312.03 222.519 323.218L222.437 323.323L222.358 323.431C210.527 339.687 210.099 355.409 209.653 371.816C209.611 373.327 209.57 374.845 209.52 376.369C208.918 383.719 207.089 388.614 204.324 392.831C201.493 397.15 197.494 401.075 191.702 406.298C172.931 415.726 152.774 421.406 133.173 418.351C131.007 417.834 129.056 417.37 127.417 417.087C125.688 416.788 123.677 416.568 121.539 416.908C117.514 417.548 114.556 420.068 112.418 421.89C112.226 422.054 112.04 422.212 111.861 422.363L111.812 422.404L111.764 422.446C110.448 423.592 109.79 424.164 109.13 424.733C108.472 425.298 107.812 425.861 106.494 426.981C103.651 429.278 102.599 430.116 101.565 430.796C100.871 431.252 100.161 431.653 98.8076 432.361C93.9374 431.216 89.5647 429.296 83.9846 426.847C83.7363 426.738 83.4855 426.628 83.2322 426.516L82.8129 426.333L82.3744 426.201C68.1992 421.948 53.592 423.072 40.5793 424.073C38.7473 424.214 36.9468 424.352 35.1837 424.473C29.9598 423.875 28.8352 423.651 27.9756 423.255C27.171 422.883 26.3649 422.254 22.8929 418.959C19.0582 412.424 17.0161 408.181 15.7129 401.461L15.7029 401.41L15.6922 401.358C13.9588 393.044 12.0763 386.159 8.61518 378.004C6.73547 371.147 7.37928 364.173 9.45018 356.596C10.9516 351.103 12.9979 345.894 15.1849 340.328C16.2096 337.72 17.2652 335.033 18.3101 332.201L18.326 332.158L18.3414 332.115L18.3464 332.101C20.7291 325.392 23.1178 318.666 25.4761 311.937C26.087 310.248 26.6913 308.605 27.3076 306.93C27.7712 305.67 28.2415 304.392 28.7264 303.062L28.749 303L28.7704 302.938C34.4996 286.323 35.5612 271.678 35.4682 254.969C35.4837 253.863 35.4915 252.761 35.4991 251.678L35.4993 251.653C35.5071 250.545 35.5149 249.454 35.5301 248.344L35.5309 248.283L35.5307 248.221C35.4988 236.138 34.5532 224.886 31.9085 212.882C31.208 197.252 32.7252 187.344 37.8371 172.273L38.1536 171.34L38.2183 170.356C38.5341 165.557 38.7865 160.77 39.0066 156.002C40.2653 140.543 46.2429 128.266 53.6317 113.092C54.0805 112.17 54.5345 111.238 54.993 110.293L55.0063 110.266L55.0194 110.238C63.0611 93.324 66.7052 78.6747 66.8749 59.7864C66.8908 58.6151 66.8988 57.4482 66.9066 56.2989L66.9067 56.2792C66.9146 55.1226 66.9223 53.9818 66.9375 52.8216L66.9383 52.7608L66.9381 52.6999C66.9124 44.3452 66.8032 36.019 66.6446 27.6917C68.1077 27.3644 69.1399 27.2652 70.0696 27.2782C71.9338 27.3043 74.002 27.7778 78.8227 29.2673L84.5661 31.0418L87.5485 25.8226L97.4913 8.4226C101.783 9.21526 103.834 9.64684 105.105 10.0704C105.429 10.1783 105.588 10.2517 105.654 10.2844C105.706 10.3105 105.732 10.3268 105.768 10.3533C105.947 10.4848 106.184 10.6972 107.172 11.6854L109.203 13.7161L112.071 13.8712L112.7 13.9051C115.792 14.0722 118.887 14.2394 122.048 14.4294C127.793 15.7205 129.153 16.1186 130.036 16.6307C130.626 16.9729 131.129 17.4179 133.63 20.5514C137.712 34.3448 138.778 48.0115 139.568 63.3577L139.934 70.472H147.058H147.07H147.083H147.095H147.107H147.119H147.131H147.143H147.156H147.168H147.18H147.192H147.204H147.216H147.228H147.241H147.253H147.265H147.277H147.289H147.301H147.314H147.326H147.338H147.35H147.362H147.374H147.387H147.399H147.411H147.423H147.435H147.447H147.46H147.472H147.484H147.496H147.508H147.52H147.532H147.545H147.557H147.569H147.581H147.593H147.605H147.618H147.63H147.642H147.654H147.666H147.678H147.691H147.703H147.715H147.727H147.739H147.751H147.764H147.776H147.788H147.8H147.812H147.824H147.837H147.849H147.861H147.873H147.885H147.897H147.91H147.922H147.934H147.946H147.958H147.97H147.982H147.995H148.007H148.019H148.031H148.043H148.055H148.068H148.08H148.092H148.104H148.116H148.128H148.141H148.153H148.165H148.177H148.189H148.202H148.214H148.226H148.238H148.25H148.262H148.275H148.287H148.299H148.311H148.323H148.335H148.348H148.36H148.372H148.384H148.396H148.408H148.421H148.433H148.445H148.457H148.469H148.482H148.494H148.506H148.518H148.53H148.542H148.555H148.567H148.579H148.591H148.603H148.615H148.628H148.64H148.652H148.664H148.676H148.689H148.701H148.713H148.725H148.737H148.749H148.762H148.774H148.786H148.798H148.81H148.823H148.835H148.847H148.859H148.871H148.884H148.896H148.908H148.92H148.932H148.945H148.957H148.969H148.981H148.993H149.005H149.018H149.03H149.042H149.054H149.066H149.079H149.091H149.103H149.115H149.127H149.14H149.152H149.164H149.176H149.188H149.201H149.213H149.225H149.237H149.249H149.262H149.274H149.286H149.298H149.31H149.323H149.335H149.347H149.359H149.372H149.384H149.396H149.408H149.42H149.433H149.445H149.457H149.469H149.481H149.494H149.506H149.518H149.53H149.542H149.555H149.567H149.579H149.591H149.604H149.616H149.628H149.64H149.652H149.665H149.677H149.689H149.701H149.714H149.726H149.738H149.75H149.762H149.775H149.787H149.799H149.811H149.824H149.836H149.848H149.86H149.873H149.885H149.897H149.909H149.921H149.934H149.946H149.958H149.97H149.983H149.995H150.007H150.019H150.032H150.044H150.056H150.068H150.081H150.093H150.105H150.117H150.13H150.142H150.154H150.166H150.179H150.191H150.203H150.215H150.228H150.24H150.252H150.264H150.277H150.289H150.301H150.313H150.326H150.338H150.35H150.362H150.375H150.387H150.399H150.411H150.424H150.436H150.448H150.461H150.473H150.485H150.497H150.51H150.522H150.534H150.546H150.559H150.571H150.583H150.596H150.608H150.62H150.632H150.645H150.657H150.669H150.681H150.694H150.706H150.718H150.731H150.743H150.755H150.767H150.78H150.792H150.804H150.817H150.829H150.841H150.854H150.866H150.878H150.89H150.903H150.915H150.927H150.94H150.952H150.964H150.976H150.989H151.001H151.013H151.026H151.038H151.05H151.063H151.075H151.087H151.1H151.112H151.124H151.137H151.149H151.161H151.173H151.186H151.198H151.21H151.223H151.235H151.247H151.26H151.272H151.284H151.297H151.309H151.321H151.334H151.346H151.358H151.371H151.383H151.395H151.408H151.42H151.432H151.445H151.457H151.469H151.482H151.494H151.506H151.519H151.531H151.543H151.556H151.568H151.58H151.593H151.605H151.618H151.63H151.642H151.655H151.667H151.679H151.692H151.704H151.716H151.729H151.741H151.753H151.766H151.778H151.791H151.803H151.815H151.828H151.84H151.852H151.865H151.877H151.89H151.902H151.914H151.927H151.939H151.951H151.964H151.976H151.989H152.001H152.013H152.026H152.038H152.051H152.063H152.075H152.088H152.1H152.113H152.125H152.137H152.15H152.162H152.175H152.187H152.199H152.212H152.224H152.237H152.249H152.261H152.274H152.286H152.299H152.311H152.323H152.336H152.348H152.361H152.373H152.386H152.398H152.41H152.423H152.435H152.448H152.46H152.473H152.485H152.497H152.51H152.522H152.535H152.547H152.56H152.572H152.585H152.597H152.609H152.622H152.634H152.647H152.659H152.672H152.684H152.697H152.709H152.721H152.734H152.746H152.759H152.771H152.784H152.796H152.809H152.821H152.834H152.846H152.859H152.871H152.884H152.896H152.908H152.921H152.933H152.946H152.958H152.971H152.983H152.996H153.008H153.021H153.033H153.046H153.058H153.071H153.083H153.096H153.108H153.121H153.133H153.146H153.158H153.171H153.183H153.196H153.208H153.221H153.233H153.246H153.258H153.271H153.283H153.296H153.308H153.321H153.334H153.346H159.883L160.776 63.9968Z" fill="#6BC3D6" stroke="black" stroke-width="15"/>
</svg>
