<svg width="725" height="599" viewBox="0 0 725 599" fill="none" xmlns="http://www.w3.org/2000/svg">
<mask id="path-1-inside-1_55825_4515" fill="white">
<path d="M391.364 3.08096C396.327 11.0355 400.082 18.2582 403.9 26.7537C415.546 50.3946 428.846 62.8673 451.914 75.4037C462.827 81.481 467.187 83.8992 470.718 96.2128C470.814 100.508 470.814 100.508 470.909 104.899C472.977 105.44 475.046 105.981 477.209 106.554C511.796 116.131 511.796 116.131 521.818 127.172C523.696 138.245 524.237 148.999 524.587 160.199C525.446 183.872 528.468 204.108 544.091 222.627C548.514 226.031 552.968 229.404 557.423 232.777C565.887 239.713 569.196 242.704 571.009 253.649C571.041 256.736 571.105 259.822 571.137 263.004C570.978 275.254 570.978 275.254 577.628 284.736C584.405 288.236 590.832 290.59 598.182 292.627C601.778 293.613 601.778 293.613 605.405 294.631C611.45 296.19 617.559 297.59 623.637 298.99C629.396 304.749 628.982 313.658 630.191 321.454C630.764 324.986 631.337 328.486 631.909 332.113C632.323 334.817 632.737 337.554 633.182 340.354C636.109 339.94 639.037 339.527 642.028 339.113C680.337 334.786 680.337 334.786 697.837 348.436C699.587 349.963 701.368 351.49 703.182 353.081C705.059 354.386 706.905 355.69 708.846 357.027C717.087 362.977 721.796 367.463 724.914 377.263C725.646 391.867 721.605 403.099 716.705 416.718C715.846 419.199 715.019 421.681 714.159 424.258C710.309 435.268 706.269 445.577 700.987 456.013C694.019 470.108 695.673 482.613 699.809 497.472C700.064 513.254 693.382 519.363 683.359 531.008C677.282 537.69 677.282 537.69 672.764 546.79C668.182 553.536 668.182 553.536 658.828 558.118C646.864 564.227 643.714 571.068 636.364 582.172C629.555 588.886 622.905 594.263 614.091 598.081C603.559 596.49 603.559 596.49 595 591.718C587.841 580.963 588.159 579.627 590.228 567.663C591.659 560.281 591.659 560.281 591.818 553.536C589.718 551.436 587.618 549.336 585.455 547.172C584.405 548.222 583.355 549.272 582.273 550.354C573.778 550.799 565.346 550.481 556.818 550.354C554.718 557.704 552.618 565.054 550.455 572.627C545.428 573.804 540.4 574.918 535.341 575.999C532.541 576.636 529.741 577.272 526.846 577.909C518.541 578.99 513.641 578.863 505.909 575.809C500.946 568.84 500.946 568.84 496.364 559.899C494.773 557.004 493.214 554.109 491.591 551.149C487.709 542.749 485.164 535.304 482.65 526.49C479.246 515.608 475.618 509.627 467.123 502.022C458.182 493.081 458.182 493.081 456.973 482.327C457.387 479.59 457.768 476.822 458.182 473.99C454.555 473.513 454.555 473.513 450.832 473.004C441.732 470.681 438.582 468.358 432.727 461.263C431.423 464.795 430.118 468.358 428.75 472.018C425.505 479.463 423.85 482.995 417.423 488.118C408.546 490.377 400.464 490.313 391.364 489.899C390.568 492.19 389.773 494.481 388.977 496.868C384.523 506.922 380.068 513.922 372.273 521.718C364.923 523.69 364.923 523.69 356.364 521.718C348.473 516.945 341.25 511.599 334.091 505.809C333.837 508.163 333.55 510.549 333.296 512.968C330.241 524.199 327.759 527.668 318.182 534.445C298.168 540.904 275.45 543.545 254.546 540.809C248.182 534.445 248.182 534.445 247.196 528.686C243.918 518.313 236.95 513.095 229.091 505.809C225.909 502.627 222.727 499.445 219.546 496.263C218.877 498.236 218.241 500.209 217.573 502.245C213.182 508.99 213.182 508.99 204.241 513.381C192.755 515.608 188.268 514.59 178.182 508.99C171.818 502.627 171.818 502.627 169.018 493.463C165.232 482.899 161.127 478.095 152.727 470.808C152.409 473.704 152.059 476.599 151.741 479.558C149.482 490.154 147.891 495.308 140 502.627C131.696 502.945 131.696 502.945 124.091 502.627C123.041 500.59 122.023 498.554 120.941 496.486C119.541 493.845 118.173 491.204 116.741 488.499C115.373 485.89 114.005 483.281 112.605 480.577C108.5 473.004 108.5 473.004 98.6364 470.808C87.85 480.768 80.7864 488.531 76.3637 502.627C69.2046 502.627 69.2046 502.627 60.4546 499.445C56.4137 493.304 53.4864 487.131 50.5591 480.386C47.6 473.227 47.6 473.227 41.3637 464.445C41.3637 461.295 41.3637 458.145 41.3637 454.899C37.5137 453.722 37.5136 453.722 33.6 452.513C25.4546 448.536 25.4546 448.536 22.8773 441.79C22.6864 439.818 22.4636 437.845 22.2727 435.808C14.9227 433.708 7.57273 431.608 0 429.445C2.00455 406.281 7.70001 383.754 24.2455 366.795C27.7773 364.249 31.3727 361.799 35 359.445C67.3591 339.24 67.3591 339.24 84.7318 306.754C85.75 301.249 86.6091 295.745 87.3409 290.177C89.4091 281.84 91.7 278.563 98.6364 273.536C108.182 274.299 115.532 275.604 124.091 279.899C124.95 277.99 125.809 276.081 126.668 274.14C130.455 267.172 130.455 267.172 135.609 263.004C141.177 257.404 141.177 257.404 139.618 246.872C140 235.354 140 235.354 147.573 226.795C150.309 224.377 153.077 221.958 155.909 219.445C157.373 215.913 157.373 215.913 158.9 212.286C160.555 209.517 160.555 209.517 162.273 206.717C172.2 204.331 172.2 204.331 181.364 203.536C177.005 187.817 169.368 183.395 155.909 174.899C150.309 169.617 150.309 169.617 146.364 162.172C147 153.708 148.018 146.676 149.927 138.499C150.373 136.431 150.786 134.331 151.2 132.199C153.968 119.408 157.786 109.163 165.455 98.5355C175.827 93.3492 186.073 93.5719 197.273 95.3537C205.164 98.8855 212.291 102.926 219.609 107.476C226.196 111.74 226.196 111.74 235.455 114.445C236.632 110.022 236.632 110.022 237.841 105.504C242.041 94.781 244.714 91.3446 254.546 85.8083C256.646 85.8083 258.746 85.8083 260.909 85.8083C261.164 83.4537 261.45 81.0674 261.705 78.6492C264.568 68.181 268.482 63.981 276.818 57.1719C278.918 57.1719 281.018 57.1719 283.182 57.1719C282.927 54.4037 282.641 51.6673 282.387 48.8355C283.405 35.2173 286.937 29.1401 295.909 18.9901C304.85 15.0128 304.85 15.0128 315 15.8082C323.305 21.3446 330.305 27.7719 337.273 34.8992C337.146 32.0673 337.018 29.2673 336.891 26.3401C341.887 11.5764 350.064 9.0946 363.555 2.41278C374.691 -0.800863 380.45 -1.02359 391.364 3.08096Z"/>
</mask>
<path d="M391.364 3.08096C396.327 11.0355 400.082 18.2582 403.9 26.7537C415.546 50.3946 428.846 62.8673 451.914 75.4037C462.827 81.481 467.187 83.8992 470.718 96.2128C470.814 100.508 470.814 100.508 470.909 104.899C472.977 105.44 475.046 105.981 477.209 106.554C511.796 116.131 511.796 116.131 521.818 127.172C523.696 138.245 524.237 148.999 524.587 160.199C525.446 183.872 528.468 204.108 544.091 222.627C548.514 226.031 552.968 229.404 557.423 232.777C565.887 239.713 569.196 242.704 571.009 253.649C571.041 256.736 571.105 259.822 571.137 263.004C570.978 275.254 570.978 275.254 577.628 284.736C584.405 288.236 590.832 290.59 598.182 292.627C601.778 293.613 601.778 293.613 605.405 294.631C611.45 296.19 617.559 297.59 623.637 298.99C629.396 304.749 628.982 313.658 630.191 321.454C630.764 324.986 631.337 328.486 631.909 332.113C632.323 334.817 632.737 337.554 633.182 340.354C636.109 339.94 639.037 339.527 642.028 339.113C680.337 334.786 680.337 334.786 697.837 348.436C699.587 349.963 701.368 351.49 703.182 353.081C705.059 354.386 706.905 355.69 708.846 357.027C717.087 362.977 721.796 367.463 724.914 377.263C725.646 391.867 721.605 403.099 716.705 416.718C715.846 419.199 715.019 421.681 714.159 424.258C710.309 435.268 706.269 445.577 700.987 456.013C694.019 470.108 695.673 482.613 699.809 497.472C700.064 513.254 693.382 519.363 683.359 531.008C677.282 537.69 677.282 537.69 672.764 546.79C668.182 553.536 668.182 553.536 658.828 558.118C646.864 564.227 643.714 571.068 636.364 582.172C629.555 588.886 622.905 594.263 614.091 598.081C603.559 596.49 603.559 596.49 595 591.718C587.841 580.963 588.159 579.627 590.228 567.663C591.659 560.281 591.659 560.281 591.818 553.536C589.718 551.436 587.618 549.336 585.455 547.172C584.405 548.222 583.355 549.272 582.273 550.354C573.778 550.799 565.346 550.481 556.818 550.354C554.718 557.704 552.618 565.054 550.455 572.627C545.428 573.804 540.4 574.918 535.341 575.999C532.541 576.636 529.741 577.272 526.846 577.909C518.541 578.99 513.641 578.863 505.909 575.809C500.946 568.84 500.946 568.84 496.364 559.899C494.773 557.004 493.214 554.109 491.591 551.149C487.709 542.749 485.164 535.304 482.65 526.49C479.246 515.608 475.618 509.627 467.123 502.022C458.182 493.081 458.182 493.081 456.973 482.327C457.387 479.59 457.768 476.822 458.182 473.99C454.555 473.513 454.555 473.513 450.832 473.004C441.732 470.681 438.582 468.358 432.727 461.263C431.423 464.795 430.118 468.358 428.75 472.018C425.505 479.463 423.85 482.995 417.423 488.118C408.546 490.377 400.464 490.313 391.364 489.899C390.568 492.19 389.773 494.481 388.977 496.868C384.523 506.922 380.068 513.922 372.273 521.718C364.923 523.69 364.923 523.69 356.364 521.718C348.473 516.945 341.25 511.599 334.091 505.809C333.837 508.163 333.55 510.549 333.296 512.968C330.241 524.199 327.759 527.668 318.182 534.445C298.168 540.904 275.45 543.545 254.546 540.809C248.182 534.445 248.182 534.445 247.196 528.686C243.918 518.313 236.95 513.095 229.091 505.809C225.909 502.627 222.727 499.445 219.546 496.263C218.877 498.236 218.241 500.209 217.573 502.245C213.182 508.99 213.182 508.99 204.241 513.381C192.755 515.608 188.268 514.59 178.182 508.99C171.818 502.627 171.818 502.627 169.018 493.463C165.232 482.899 161.127 478.095 152.727 470.808C152.409 473.704 152.059 476.599 151.741 479.558C149.482 490.154 147.891 495.308 140 502.627C131.696 502.945 131.696 502.945 124.091 502.627C123.041 500.59 122.023 498.554 120.941 496.486C119.541 493.845 118.173 491.204 116.741 488.499C115.373 485.89 114.005 483.281 112.605 480.577C108.5 473.004 108.5 473.004 98.6364 470.808C87.85 480.768 80.7864 488.531 76.3637 502.627C69.2046 502.627 69.2046 502.627 60.4546 499.445C56.4137 493.304 53.4864 487.131 50.5591 480.386C47.6 473.227 47.6 473.227 41.3637 464.445C41.3637 461.295 41.3637 458.145 41.3637 454.899C37.5137 453.722 37.5136 453.722 33.6 452.513C25.4546 448.536 25.4546 448.536 22.8773 441.79C22.6864 439.818 22.4636 437.845 22.2727 435.808C14.9227 433.708 7.57273 431.608 0 429.445C2.00455 406.281 7.70001 383.754 24.2455 366.795C27.7773 364.249 31.3727 361.799 35 359.445C67.3591 339.24 67.3591 339.24 84.7318 306.754C85.75 301.249 86.6091 295.745 87.3409 290.177C89.4091 281.84 91.7 278.563 98.6364 273.536C108.182 274.299 115.532 275.604 124.091 279.899C124.95 277.99 125.809 276.081 126.668 274.14C130.455 267.172 130.455 267.172 135.609 263.004C141.177 257.404 141.177 257.404 139.618 246.872C140 235.354 140 235.354 147.573 226.795C150.309 224.377 153.077 221.958 155.909 219.445C157.373 215.913 157.373 215.913 158.9 212.286C160.555 209.517 160.555 209.517 162.273 206.717C172.2 204.331 172.2 204.331 181.364 203.536C177.005 187.817 169.368 183.395 155.909 174.899C150.309 169.617 150.309 169.617 146.364 162.172C147 153.708 148.018 146.676 149.927 138.499C150.373 136.431 150.786 134.331 151.2 132.199C153.968 119.408 157.786 109.163 165.455 98.5355C175.827 93.3492 186.073 93.5719 197.273 95.3537C205.164 98.8855 212.291 102.926 219.609 107.476C226.196 111.74 226.196 111.74 235.455 114.445C236.632 110.022 236.632 110.022 237.841 105.504C242.041 94.781 244.714 91.3446 254.546 85.8083C256.646 85.8083 258.746 85.8083 260.909 85.8083C261.164 83.4537 261.45 81.0674 261.705 78.6492C264.568 68.181 268.482 63.981 276.818 57.1719C278.918 57.1719 281.018 57.1719 283.182 57.1719C282.927 54.4037 282.641 51.6673 282.387 48.8355C283.405 35.2173 286.937 29.1401 295.909 18.9901C304.85 15.0128 304.85 15.0128 315 15.8082C323.305 21.3446 330.305 27.7719 337.273 34.8992C337.146 32.0673 337.018 29.2673 336.891 26.3401C341.887 11.5764 350.064 9.0946 363.555 2.41278C374.691 -0.800863 380.45 -1.02359 391.364 3.08096Z" fill="#6BC3D6" stroke="black" stroke-width="30" mask="url(#path-1-inside-1_55825_4515)"/>
</svg>
