<?xml version="1.0" standalone="no"?>
<!DOCTYPE svg PUBLIC "-//W3C//DTD SVG 20010904//EN"
 "http://www.w3.org/TR/2001/REC-SVG-20010904/DTD/svg10.dtd">
<svg version="1.0" xmlns="http://www.w3.org/2000/svg"
 width="1714.000000pt" height="4096.000000pt" viewBox="0 0 1714.000000 4096.000000"
 preserveAspectRatio="xMidYMid meet">

<g transform="translate(0.000000,4096.000000) scale(0.100000,-0.100000)"
fill="#000000" stroke="none">
<path d="M5677 37809 c-9 -5 -24 -25 -31 -44 -16 -38 -39 -45 -103 -31 -63 14
-89 -1 -97 -56 l-7 -44 -67 -22 c-77 -25 -132 -66 -156 -117 -13 -27 -30 -42
-72 -60 -49 -21 -54 -27 -54 -55 0 -41 -17 -46 -101 -30 -63 12 -71 12 -88 -4
-11 -10 -21 -28 -23 -40 -3 -22 -10 -23 -98 -11 -58 8 -102 -16 -116 -62 0 -2
-27 7 -60 18 -52 19 -75 21 -199 17 -97 -3 -151 -10 -177 -21 -38 -16 -42 -23
-53 -102 -6 -40 -18 -55 -45 -55 -9 0 -43 -8 -75 -17 -42 -11 -102 -17 -197
-17 -130 -1 -138 -2 -162 -25 -14 -13 -28 -40 -31 -60 -10 -59 -22 -79 -59
-96 -33 -16 -36 -21 -57 -113 -16 -68 -30 -103 -48 -124 -14 -15 -80 -54 -146
-87 -67 -32 -137 -74 -156 -92 -45 -43 -79 -131 -79 -204 0 -30 -4 -55 -10
-55 -5 0 -43 -33 -84 -74 -94 -94 -151 -136 -187 -136 -34 0 -68 -40 -97 -115
-11 -27 -45 -100 -76 -161 -41 -82 -56 -123 -56 -153 0 -28 -4 -41 -14 -41 -7
0 -19 -7 -26 -16 -11 -12 -9 -27 10 -82 20 -55 24 -87 24 -177 1 -60 -5 -139
-12 -174 -17 -82 -2 -217 28 -269 12 -19 27 -67 35 -108 7 -40 20 -85 28 -101
9 -15 56 -65 105 -110 98 -90 100 -94 147 -262 18 -65 37 -111 62 -145 40 -54
39 -50 46 -237 4 -101 7 -112 50 -205 57 -126 63 -148 77 -264 10 -78 19 -108
51 -168 21 -41 39 -85 39 -98 0 -14 -12 -70 -27 -125 l-26 -100 16 -133 c20
-163 31 -197 118 -363 62 -118 94 -163 141 -199 10 -8 17 -42 22 -105 8 -114
33 -293 47 -335 5 -17 25 -45 43 -62 29 -26 34 -39 40 -93 12 -106 35 -226 50
-261 8 -18 22 -54 31 -81 12 -35 28 -55 60 -77 88 -60 189 -291 260 -596 14
-60 35 -138 46 -174 18 -59 71 -291 71 -315 0 -5 -7 -37 -16 -70 -14 -51 -17
-112 -16 -400 1 -524 -11 -631 -111 -978 -57 -199 -75 -279 -99 -448 -17 -113
-39 -239 -50 -280 -42 -154 -53 -216 -53 -316 0 -111 8 -133 50 -133 29 0 92
31 115 57 29 32 79 153 94 227 16 79 33 126 44 126 32 0 50 -346 31 -612 -13
-179 -22 -221 -56 -264 l-23 -29 -12 30 c-7 17 -16 113 -20 215 -8 188 -11
211 -38 243 -19 21 -65 22 -83 1 -7 -9 -32 -29 -56 -45 -67 -47 -86 -93 -97
-244 -3 -33 -12 -105 -22 -160 -9 -55 -18 -145 -19 -200 -1 -55 -12 -152 -23
-215 -11 -63 -28 -180 -37 -260 -9 -80 -32 -212 -50 -295 -18 -82 -38 -186
-45 -230 -13 -90 -88 -435 -149 -688 -23 -92 -68 -241 -101 -332 -81 -218 -89
-261 -65 -314 26 -58 64 -92 136 -121 92 -36 113 -70 106 -170 -6 -78 -41
-254 -83 -422 -13 -53 -24 -123 -24 -155 0 -32 -7 -87 -15 -123 -8 -36 -31
-150 -50 -255 -76 -402 -97 -469 -290 -940 -121 -295 -141 -360 -190 -599 -20
-94 -54 -238 -76 -321 -36 -132 -40 -162 -40 -253 1 -98 -1 -107 -38 -195 -54
-126 -59 -155 -56 -289 3 -115 4 -119 36 -163 32 -45 33 -47 20 -93 -17 -64
-125 -224 -201 -297 -119 -114 -112 -103 -108 -167 l4 -58 -35 0 c-32 0 -45
-10 -130 -97 -97 -102 -216 -267 -258 -363 -57 -128 -175 -254 -378 -405 -124
-92 -178 -125 -204 -125 -9 0 -27 13 -39 30 -30 39 -84 56 -140 41 -45 -13
-68 -38 -78 -89 -5 -26 -1 -36 25 -63 28 -28 36 -31 71 -25 21 3 49 1 62 -5
32 -14 65 -66 74 -114 4 -22 24 -74 45 -115 22 -41 39 -82 39 -91 0 -9 10 -29
22 -45 18 -22 25 -48 30 -114 4 -47 11 -116 16 -155 6 -41 5 -98 0 -139 -17
-126 -84 -329 -153 -466 -19 -37 -35 -71 -35 -75 0 -4 -15 -39 -34 -78 -49
-105 -59 -145 -56 -212 5 -115 2 -133 -45 -276 -59 -178 -67 -254 -36 -349 27
-81 56 -337 56 -490 0 -106 -4 -130 -49 -300 -26 -102 -65 -228 -86 -281 -21
-53 -53 -141 -71 -195 -18 -54 -48 -137 -67 -184 -50 -121 -50 -196 0 -301 20
-42 40 -79 46 -83 6 -3 14 -41 17 -84 9 -90 37 -189 64 -224 11 -13 38 -33 61
-43 37 -17 47 -17 93 -6 29 7 95 12 147 12 52 -1 101 2 108 7 23 15 125 -12
199 -53 77 -42 164 -75 201 -75 42 0 94 32 170 104 68 65 76 70 125 74 33 2
68 -2 97 -13 104 -38 105 -38 223 -10 61 15 127 33 147 40 19 7 62 20 95 30
88 26 171 71 227 123 106 99 148 250 148 536 0 136 7 154 107 276 67 81 106
159 137 275 49 184 61 225 66 225 3 0 11 -15 18 -32 6 -18 32 -56 57 -85 l45
-51 0 -106 c0 -150 26 -202 107 -213 33 -4 42 -11 61 -47 12 -22 51 -77 87
-120 57 -71 95 -143 95 -183 0 -9 -6 -10 -27 -2 -38 14 -129 1 -185 -27 -35
-18 -55 -38 -83 -85 -42 -68 -93 -110 -164 -134 -60 -19 -112 -73 -146 -148
-34 -73 -34 -110 -1 -174 30 -60 34 -54 -84 -113 -47 -23 -111 -61 -143 -83
l-59 -41 -36 19 c-20 11 -53 42 -74 69 -57 76 -69 80 -185 57 -54 -11 -137
-25 -185 -31 -96 -12 -100 -12 -176 -46 -37 -17 -71 -24 -115 -24 -91 0 -106
-23 -66 -109 24 -55 103 -152 240 -296 120 -127 135 -149 179 -260 27 -68 33
-100 41 -210 5 -74 17 -160 29 -200 11 -38 20 -93 20 -121 0 -28 9 -77 20
-108 l19 -58 -38 -51 c-58 -76 -92 -161 -98 -239 -5 -61 -4 -68 20 -92 56 -56
130 -19 223 109 l20 29 79 -19 c77 -18 79 -18 114 1 19 10 48 38 64 61 16 24
39 46 53 49 13 4 76 -4 140 -17 102 -20 118 -21 143 -8 26 13 97 87 133 138
13 19 20 21 36 12 39 -21 62 -12 115 42 29 29 73 69 98 89 25 21 52 51 59 69
13 31 14 31 68 26 53 -6 55 -5 102 39 26 24 61 71 79 103 39 73 94 124 124
116 52 -15 186 -85 225 -118 24 -20 59 -41 77 -46 19 -5 79 -32 132 -61 114
-59 162 -69 213 -43 34 18 75 68 104 128 13 27 13 38 -5 104 -11 40 -29 91
-40 112 -23 45 -19 49 15 14 14 -14 39 -28 56 -31 16 -4 30 -9 31 -13 0 -3 3
-44 5 -90 6 -110 37 -291 55 -319 8 -12 42 -36 76 -53 71 -35 86 -50 77 -73
-15 -39 -120 -33 -221 15 -51 23 -90 33 -158 39 -230 22 -293 36 -325 75 -7 9
-49 40 -94 69 -47 30 -96 72 -116 99 -90 119 -222 114 -189 -7 10 -37 155
-200 359 -405 58 -58 113 -122 122 -141 51 -106 104 -225 133 -305 19 -49 45
-117 59 -150 13 -33 34 -120 46 -195 12 -74 31 -182 43 -240 20 -97 22 -131
21 -455 -1 -338 -2 -354 -27 -460 -14 -60 -28 -146 -32 -190 -4 -44 -15 -111
-25 -150 -10 -38 -25 -110 -35 -160 -10 -56 -35 -132 -65 -200 -26 -60 -56
-135 -65 -165 -25 -77 -65 -157 -108 -214 -28 -35 -37 -57 -37 -85 0 -39 23
-71 51 -71 29 0 86 -26 170 -77 47 -29 98 -55 113 -59 15 -3 39 -22 54 -40 25
-32 27 -40 27 -137 0 -98 1 -104 33 -153 24 -37 36 -70 42 -115 4 -35 15 -82
23 -104 28 -73 28 -114 2 -186 -52 -145 -57 -307 -11 -398 15 -29 25 -64 24
-89 0 -33 9 -56 42 -108 l43 -65 -22 -67 c-16 -51 -19 -74 -12 -99 5 -18 6
-96 2 -185 -7 -142 -10 -160 -44 -252 -45 -120 -46 -161 -8 -242 16 -33 32
-72 36 -85 4 -13 20 -42 36 -64 20 -28 36 -73 54 -152 14 -61 29 -122 34 -135
25 -66 31 -167 16 -269 -9 -56 -17 -145 -19 -198 -3 -68 -11 -114 -27 -156
-17 -46 -22 -82 -23 -155 -1 -93 -2 -96 -42 -160 -45 -73 -59 -107 -69 -165
-4 -21 -15 -51 -25 -65 -9 -14 -27 -44 -39 -67 -12 -24 -29 -43 -37 -43 -9 0
-29 -14 -45 -31 -38 -41 -40 -102 -4 -155 14 -20 30 -55 36 -78 6 -23 22 -71
36 -108 22 -57 25 -77 20 -134 -6 -63 -18 -96 -82 -219 -15 -27 -32 -61 -38
-75 -13 -25 -55 -50 -112 -67 -35 -10 -45 -45 -22 -71 20 -22 74 -153 83 -196
8 -46 -10 -96 -47 -132 -17 -16 -46 -58 -64 -94 -18 -36 -49 -89 -69 -119 -20
-29 -36 -59 -36 -65 0 -7 -9 -21 -20 -31 -29 -26 -43 -79 -35 -136 7 -50 7
-51 -34 -86 -101 -86 -130 -257 -50 -298 27 -14 33 -14 60 -1 45 22 71 1 105
-85 42 -106 98 -143 159 -103 17 11 31 37 45 84 19 63 23 70 56 80 39 13 74
60 74 100 0 41 14 51 91 66 76 14 97 29 150 105 14 20 27 23 130 30 155 11
231 37 374 128 154 98 234 122 325 99 30 -7 66 -12 78 -10 29 4 47 45 57 127
9 68 31 95 120 146 61 35 127 39 185 9 49 -25 87 -25 175 0 67 19 186 27 219
14 9 -3 25 -26 35 -50 11 -24 26 -44 33 -45 7 0 54 0 104 1 102 2 132 -7 229
-70 89 -57 134 -66 217 -44 10 3 52 34 93 68 l77 64 86 -6 c75 -4 97 -10 162
-43 41 -21 98 -58 125 -83 68 -62 103 -63 146 -4 19 27 51 54 87 72 53 28 65
29 178 30 116 1 123 2 183 34 53 28 73 33 139 34 75 1 81 0 197 -56 66 -32
182 -84 258 -117 165 -70 252 -121 272 -159 10 -19 25 -30 48 -34 18 -3 60
-22 91 -41 32 -19 104 -51 160 -71 106 -38 168 -68 258 -121 75 -45 171 -74
260 -80 73 -6 81 -4 150 30 40 19 98 53 128 74 63 45 69 64 50 155 -12 53 -11
59 10 92 32 52 49 59 105 39 71 -24 107 -9 231 100 308 269 387 335 469 397
90 68 248 206 273 238 7 9 18 37 24 61 10 40 16 46 67 69 31 14 79 39 106 55
28 16 146 79 264 139 117 59 227 120 243 134 28 23 32 24 54 9 32 -21 66 -19
96 5 25 19 26 19 99 -1 41 -11 91 -30 112 -42 39 -22 59 -19 80 14 9 15 -10
55 -84 171 -31 48 -37 85 -24 146 7 28 3 37 -34 77 -31 34 -41 53 -41 79 0 22
-12 51 -33 83 -32 48 -33 49 -15 78 9 17 24 47 33 67 15 38 15 38 -18 75 -19
21 -39 48 -46 60 -15 30 -41 156 -41 202 0 26 -7 44 -21 57 -20 17 -21 26 -15
104 3 47 11 111 17 142 10 51 9 61 -10 102 -12 24 -40 65 -63 91 -35 40 -39
47 -25 58 28 21 22 79 -8 91 -11 4 -15 21 -15 58 0 34 -6 62 -17 77 -9 14 -20
46 -24 73 -5 29 -18 61 -33 79 -23 27 -25 37 -20 82 6 49 4 55 -27 93 -19 23
-56 52 -84 65 -46 22 -51 28 -62 72 -14 59 -33 89 -73 119 -17 12 -30 27 -30
33 0 6 -13 29 -30 51 -39 51 -38 78 7 142 64 94 77 153 48 223 -4 12 4 23 30
39 69 42 125 194 186 500 31 151 42 234 44 315 3 113 22 201 51 229 11 12 21
13 40 6 18 -7 33 -6 52 5 30 16 41 31 142 186 51 79 91 126 161 190 150 135
169 161 204 275 19 59 25 103 25 168 0 93 24 186 75 286 14 27 30 81 37 120
11 61 10 80 -5 138 -23 88 -22 125 3 147 12 10 30 33 41 51 19 32 22 33 70 27
50 -6 50 -6 97 45 l47 50 36 -18 c60 -31 158 -43 210 -25 60 21 106 59 130
107 18 35 19 46 10 84 -16 61 -16 60 36 115 43 46 51 50 81 45 22 -3 52 -22
87 -55 33 -31 68 -54 96 -62 24 -7 49 -16 54 -20 6 -4 26 -10 45 -14 27 -5 41
-2 57 13 12 10 41 25 65 32 86 27 107 54 123 157 4 28 14 47 31 57 47 32 57
69 45 170 -18 154 -17 180 6 203 20 20 59 162 89 323 11 65 11 78 -2 97 -8 13
-24 23 -35 23 -14 0 -19 5 -16 14 3 8 9 30 12 50 5 23 18 44 40 60 34 27 65
96 65 148 0 43 -28 104 -55 118 -19 10 -36 10 -77 2 -76 -15 -102 -27 -145
-65 -26 -23 -52 -36 -82 -41 -78 -12 -120 -51 -135 -127 -5 -23 -13 -27 -73
-38 -38 -6 -87 -12 -110 -11 -33 1 -48 -5 -71 -28 -24 -23 -37 -28 -59 -24
-37 7 -123 79 -123 103 0 11 -18 54 -39 97 -22 42 -49 101 -60 129 -11 29 -36
84 -56 123 -25 49 -35 83 -35 116 0 42 -5 51 -67 120 -47 52 -83 82 -122 101
-85 40 -126 85 -181 198 -57 117 -127 203 -214 262 -70 47 -108 99 -181 247
-27 55 -61 109 -75 118 -14 10 -61 23 -105 29 -117 16 -114 13 -52 77 44 47
59 72 76 126 26 84 26 108 1 131 -19 17 -33 17 -92 -1 -16 -5 -17 2 -12 73 5
61 11 83 29 103 37 41 42 61 43 162 1 107 5 117 68 198 52 67 64 97 64 158 0
34 10 69 35 121 39 82 42 101 19 136 -13 20 -25 25 -60 25 l-43 0 -17 56 c-20
69 -32 144 -40 250 -6 68 -3 94 15 153 15 48 20 83 15 106 -6 33 -4 35 20 35
14 0 34 9 43 21 45 53 97 98 117 101 16 2 22 11 24 36 3 24 8 32 23 32 30 0
52 14 165 107 110 90 138 120 174 193 33 66 47 78 104 90 31 6 67 23 89 41 38
31 96 126 117 192 8 26 28 50 69 81 157 121 178 190 116 381 -44 137 -40 169
47 352 83 174 90 190 147 345 46 121 101 331 101 380 -1 51 -33 110 -81 151
-24 20 -73 61 -109 92 -223 190 -349 226 -554 156 -95 -32 -100 -33 -150 -20
-45 12 -52 18 -63 49 -7 19 -12 62 -12 95 -1 34 -8 87 -16 120 -9 32 -13 72
-9 88 8 38 -11 82 -43 96 -14 7 -69 18 -122 26 -86 12 -157 35 -296 96 -16 7
-49 26 -73 42 l-43 28 7 152 c8 187 3 204 -86 273 -211 165 -236 190 -283 282
-25 49 -58 128 -72 178 -25 83 -26 98 -21 219 7 138 -18 386 -43 433 -6 12
-47 40 -91 62 -43 22 -99 53 -124 69 -30 18 -67 31 -104 36 -64 8 -146 46
-162 74 -5 11 -10 36 -10 56 0 69 -25 101 -134 174 -56 37 -133 86 -171 108
-39 23 -110 72 -159 109 -80 63 -92 77 -133 154 -24 47 -53 94 -64 106 -10 11
-30 58 -44 104 -14 46 -27 85 -29 88 -3 2 13 20 35 38 35 29 49 34 91 34 74 0
162 -26 260 -77 103 -53 160 -59 243 -25 28 11 64 20 81 20 16 -1 45 6 63 15
26 13 42 14 83 7 125 -24 213 -1 300 78 93 84 117 89 205 42 79 -42 174 -42
295 0 l87 30 38 -20 c67 -36 93 -35 185 3 75 32 92 36 173 35 73 -1 99 3 140
22 28 12 70 28 95 36 55 16 110 68 135 126 10 24 33 77 51 118 43 95 111 287
131 365 18 74 13 137 -21 238 -45 133 -37 153 99 232 74 43 96 76 88 131 -4
26 3 40 47 90 69 78 95 137 116 262 16 98 16 106 -1 181 -22 99 -17 162 18
199 51 55 57 81 56 229 -1 126 1 144 25 206 39 102 36 147 -20 256 -46 90 -83
132 -156 177 -18 11 -32 27 -30 35 2 7 4 42 4 76 1 187 -161 300 -441 308
l-113 3 -40 38 c-22 22 -49 57 -59 79 -23 50 -25 147 -3 242 13 58 26 84 82
157 50 67 76 93 108 106 26 12 50 32 65 57 51 83 74 98 219 141 153 44 213 71
235 106 25 38 29 89 10 145 -9 28 -14 59 -10 70 3 11 31 32 63 47 63 30 204
128 239 166 33 36 44 72 31 108 -9 29 -8 34 20 63 63 67 61 91 -17 157 -29 23
-73 72 -98 109 -26 36 -85 108 -132 160 -114 124 -151 171 -151 190 0 17 16
43 75 125 36 50 44 91 24 128 -19 36 -2 61 75 111 110 71 118 115 36 192 -41
39 -63 81 -56 109 9 35 -20 64 -77 81 -76 22 -78 25 -78 91 -1 45 10 89 44
185 25 69 50 155 56 190 6 35 16 83 22 106 6 23 8 50 4 60 -5 10 -7 24 -6 32
5 30 -23 148 -45 193 -13 26 -24 58 -24 71 0 61 -31 128 -90 191 -65 69 -71
88 -45 149 8 20 15 52 15 70 0 19 -7 54 -15 77 -18 51 -19 124 -3 202 11 51
10 66 -8 127 l-21 70 28 20 c37 27 55 63 68 134 7 39 7 66 0 84 -16 44 -71
122 -88 127 -9 2 -39 9 -67 16 -46 10 -54 16 -87 67 -26 40 -37 67 -37 94 0
50 -15 88 -50 124 -16 17 -38 53 -50 80 -23 55 -59 97 -134 157 -27 21 -57 53
-66 71 -16 29 -58 67 -119 107 -22 15 -23 20 -16 78 10 86 28 102 98 90 29 -6
79 -7 112 -4 67 7 270 24 298 25 31 2 67 47 67 84 0 29 5 37 29 46 61 26 111
99 111 163 0 19 15 53 40 90 68 102 66 168 -7 250 -42 48 -45 54 -40 95 6 58
53 125 173 250 102 106 109 120 119 206 6 52 12 65 56 113 27 29 51 66 55 81
24 109 43 128 141 137 90 9 374 89 430 122 23 13 51 37 63 54 18 25 24 28 46
20 32 -12 63 -5 139 32 66 32 105 64 105 86 0 8 -8 27 -17 43 -22 36 -11 49
48 56 85 11 162 69 180 136 6 21 11 86 11 143 2 117 -7 106 90 109 51 1 80 20
104 67 23 44 17 76 -21 121 -67 78 -33 119 59 72 73 -37 107 -34 164 18 26 23
52 49 59 57 20 24 15 70 -12 116 l-25 42 38 19 c56 27 77 77 77 188 0 101 13
132 102 248 52 66 93 164 93 219 0 35 3 39 40 54 51 20 79 66 115 189 23 76
34 96 71 132 45 44 63 84 46 106 -5 6 -12 26 -16 42 -19 79 -96 158 -182 189
-95 33 -121 53 -138 104 -19 55 -67 105 -141 147 -27 15 -77 48 -109 73 -75
58 -122 71 -220 58 -62 -7 -85 -6 -138 9 -46 13 -108 19 -229 21 -191 4 -219
-4 -256 -71 -31 -57 -40 -65 -74 -65 -16 0 -56 -11 -89 -25 -73 -31 -89 -26
-173 51 -34 30 -72 57 -85 61 -19 4 -22 10 -17 27 21 64 17 90 -23 144 -22 29
-50 79 -62 110 -12 31 -27 71 -35 88 -12 29 -11 33 31 89 55 73 60 91 44 165
-9 44 -10 67 -1 91 6 18 11 51 11 73 0 23 9 73 19 112 11 38 30 132 42 207 26
167 27 166 -94 192 -45 10 -97 25 -116 34 -37 18 -37 18 -7 156 9 39 16 97 16
131 0 71 -7 79 -155 188 -98 72 -135 83 -135 41 0 -14 -9 -42 -19 -63 -47 -93
-120 -134 -277 -157 -60 -9 -140 -21 -179 -27 -73 -11 -161 -12 -206 -3 -21 5
-28 16 -47 78 -24 83 -86 192 -121 216 -31 20 -172 22 -218 3 -45 -20 -60 -59
-74 -209 -6 -72 -15 -137 -19 -143 -6 -9 -25 -9 -80 0 -86 15 -119 9 -166 -27
-35 -26 -37 -26 -92 -14 -32 7 -79 15 -107 18 -47 5 -55 11 -138 92 l-87 86
-88 0 -87 0 -24 -52 c-27 -59 -45 -70 -163 -102 -84 -23 -118 -26 -118 -12 0
17 -87 98 -145 136 -77 49 -125 65 -195 65 -68 0 -102 -22 -120 -76 -10 -30
-15 -35 -34 -29 -11 4 -40 10 -64 12 -37 5 -45 2 -72 -27 -48 -52 -55 -95 -26
-177 13 -37 32 -97 41 -133 8 -35 22 -78 30 -94 33 -64 8 -196 -35 -196 -13 0
-24 -8 -27 -20 -4 -16 -14 -20 -52 -20 -61 -1 -125 -16 -186 -44 -27 -13 -86
-31 -130 -41 -156 -33 -207 -70 -259 -186 -28 -65 -42 -78 -91 -86 -29 -5 -39
-2 -51 15 -18 27 -96 56 -128 48 -49 -12 -84 -54 -117 -142 -18 -46 -35 -84
-38 -84 -9 1 -74 89 -104 141 -37 65 -139 157 -182 165 -69 13 -96 -1 -188
-95 -72 -74 -94 -90 -126 -96 -22 -4 -57 -15 -78 -26 -20 -10 -47 -19 -58 -19
-20 0 -21 5 -21 96 l1 96 -52 48 c-68 63 -107 72 -338 79 l-191 6 -39 31 c-58
45 -79 54 -127 54 -61 -1 -124 -33 -178 -91 -56 -60 -94 -70 -175 -44 -43 13
-62 15 -85 7 -53 -19 -117 -70 -148 -119 -16 -26 -42 -68 -57 -92 -37 -61 -32
-75 -89 248 -25 136 -69 201 -139 201 -59 0 -88 -36 -184 -230 -104 -210 -126
-236 -226 -269 -83 -28 -181 -91 -207 -133 -11 -18 -29 -61 -41 -95 -15 -45
-30 -70 -55 -90 -19 -15 -46 -38 -60 -50 -13 -13 -32 -27 -42 -32 -29 -15
-203 -33 -261 -27 -45 5 -63 2 -94 -14 -54 -29 -75 -16 -74 48 0 30 -7 62 -20
87 -15 27 -23 65 -27 120 l-5 80 -46 42 c-44 41 -95 63 -142 63 -33 0 -63 45
-63 94 0 33 14 67 71 166 134 234 132 228 133 285 0 52 1 54 32 60 56 10 75
34 83 100 l6 60 48 12 c61 15 104 40 131 76 17 24 21 43 21 110 0 69 -5 92
-30 147 -60 133 -137 230 -183 230 -13 0 -73 -25 -135 -55 -61 -30 -116 -55
-123 -55 -6 0 -16 31 -23 68 -7 38 -21 83 -32 101 -14 23 -19 50 -19 104 0 92
-13 139 -52 182 -25 30 -37 35 -72 35 -22 0 -49 -5 -59 -11z m89 -70 c15 -17
20 -43 25 -125 5 -79 12 -111 27 -136 12 -19 26 -65 32 -103 6 -38 19 -78 28
-88 27 -31 92 -18 209 41 114 58 107 59 166 -29 56 -84 87 -169 87 -237 0 -70
-19 -96 -83 -112 -101 -26 -127 -52 -127 -128 0 -42 -11 -52 -54 -52 -12 0
-32 -7 -44 -16 -19 -13 -22 -24 -22 -83 0 -61 -4 -73 -40 -132 -73 -117 -161
-288 -167 -322 -8 -51 13 -109 55 -155 34 -37 44 -42 83 -42 44 0 81 -17 107
-48 7 -9 12 -44 12 -82 0 -45 6 -78 19 -104 37 -72 23 -191 -24 -210 -9 -3
-40 -3 -68 0 l-52 6 -60 -60 c-33 -33 -80 -82 -105 -109 -35 -38 -57 -52 -94
-62 -77 -19 -118 -45 -186 -117 l-63 -68 -22 26 c-12 14 -31 31 -43 37 -33 17
-99 13 -144 -10 l-40 -21 -27 33 c-33 40 -67 36 -95 -11 -27 -47 -72 -70 -137
-70 -73 0 -133 -39 -194 -125 -43 -59 -91 -95 -129 -95 -8 0 -24 17 -35 38
-24 47 -46 66 -66 58 -23 -8 -95 -128 -95 -157 0 -15 7 -42 15 -62 13 -32 13
-42 -5 -109 -11 -40 -20 -87 -20 -105 0 -23 -6 -33 -21 -38 -47 -15 -75 -108
-44 -149 10 -14 15 -45 15 -97 0 -68 -3 -81 -24 -106 -32 -36 -52 -26 -88 47
-14 30 -36 62 -48 72 -30 25 -99 23 -154 -4 -38 -18 -49 -19 -73 -9 -15 6 -37
28 -48 49 -15 27 -28 38 -48 40 -40 5 -57 -14 -58 -62 0 -22 -4 -49 -7 -59 -7
-16 -10 -16 -29 7 -27 31 -61 40 -116 33 -34 -5 -50 -15 -87 -56 -40 -44 -48
-49 -78 -44 -40 7 -60 -9 -68 -53 -5 -26 -11 -34 -28 -34 -12 0 -27 5 -33 11
-6 6 -23 9 -39 7 -21 -2 -34 -14 -54 -47 -19 -33 -35 -48 -64 -58 -64 -22
-104 -12 -138 33 -45 59 -55 83 -88 204 -36 132 -64 178 -154 249 -81 65 -94
85 -111 177 -8 41 -23 91 -34 112 -10 20 -22 51 -25 69 -12 54 -8 175 8 243 8
36 13 83 11 105 -3 22 -7 67 -10 100 -4 32 -13 75 -21 93 -17 42 -17 42 0 42
22 0 29 18 31 79 2 46 12 75 58 166 31 61 67 136 81 168 22 50 28 57 53 57 16
0 40 8 53 17 41 28 142 116 174 151 16 18 42 40 57 48 27 13 29 19 29 74 0 77
31 161 73 196 18 15 88 54 156 88 140 69 171 99 191 189 25 108 31 127 43 127
27 0 76 64 83 107 10 64 19 68 168 68 101 0 152 5 221 22 107 26 125 43 125
113 0 46 2 49 34 60 18 6 87 12 152 13 103 1 129 -2 191 -22 79 -27 95 -23
114 27 8 21 14 23 47 18 114 -19 127 -19 143 0 10 11 19 28 21 39 4 21 8 22
93 10 37 -5 61 -3 88 9 35 14 38 19 35 47 -3 29 0 33 41 48 35 13 51 26 73 65
37 62 59 80 128 101 94 29 109 41 116 85 6 37 8 39 33 33 67 -19 132 6 159 60
16 32 42 35 68 6z m7180 -390 c39 -62 65 -128 71 -181 3 -27 11 -55 17 -63 14
-19 142 -41 159 -27 7 5 48 13 92 17 44 3 105 12 135 20 30 7 86 16 123 19 38
4 91 15 119 26 94 36 130 68 193 175 9 15 19 10 85 -41 41 -32 81 -65 88 -74
18 -21 10 -113 -18 -223 -19 -74 -21 -92 -10 -112 17 -32 91 -69 178 -90 39
-9 72 -20 72 -24 0 -23 -51 -293 -60 -317 -7 -16 -16 -60 -21 -99 -5 -38 -12
-87 -15 -108 -4 -21 -1 -58 6 -83 14 -48 18 -39 -66 -154 -18 -25 -24 -44 -21
-65 8 -54 63 -180 104 -241 37 -54 40 -62 28 -84 -28 -55 -27 -77 5 -110 16
-16 36 -30 43 -30 8 0 43 -25 78 -56 98 -88 148 -101 236 -63 26 12 68 25 92
30 60 12 87 31 112 82 12 23 27 45 33 49 22 15 328 1 399 -17 61 -16 77 -16
137 -5 83 16 108 10 170 -39 27 -21 84 -59 127 -84 75 -43 79 -48 110 -114 32
-69 34 -71 103 -102 39 -17 76 -31 83 -31 18 0 72 -41 99 -75 12 -15 27 -49
34 -74 11 -46 11 -46 -27 -88 -29 -31 -44 -63 -65 -130 -38 -126 -55 -156
-103 -178 -58 -26 -75 -47 -67 -87 8 -45 -24 -126 -78 -197 -101 -134 -138
-219 -118 -275 10 -26 9 -42 -3 -83 -13 -45 -20 -53 -50 -63 -57 -19 -73 -78
-35 -135 11 -16 20 -37 20 -46 0 -17 -71 -79 -91 -79 -7 0 -35 12 -64 26 -66
34 -111 28 -150 -18 -36 -43 -31 -100 14 -157 27 -34 30 -44 21 -61 -9 -16
-21 -20 -61 -20 -55 0 -106 -18 -128 -44 -11 -13 -16 -51 -17 -141 -2 -68 -8
-133 -14 -144 -15 -28 -54 -47 -125 -60 -46 -8 -66 -18 -87 -41 -30 -32 -38
-86 -17 -107 9 -9 3 -17 -22 -32 -50 -31 -92 -36 -123 -16 -35 23 -70 13 -85
-24 -16 -37 -57 -76 -96 -91 -56 -22 -319 -90 -345 -90 -34 0 -107 -35 -143
-69 -35 -32 -52 -64 -61 -114 -5 -27 -24 -56 -62 -98 -30 -32 -55 -69 -55 -81
-1 -13 -3 -32 -4 -43 -1 -11 -2 -32 -3 -47 -2 -20 -29 -56 -100 -130 -125
-131 -160 -176 -184 -240 -27 -71 -18 -112 39 -177 58 -66 62 -108 18 -170
-47 -65 -65 -103 -65 -141 0 -43 -21 -75 -63 -96 -54 -28 -77 -54 -77 -91 0
-18 -1 -33 -2 -34 -2 0 -57 -5 -123 -10 -66 -5 -140 -12 -164 -15 -24 -4 -76
-1 -116 6 -76 13 -115 5 -115 -25 0 -8 -8 -19 -19 -24 -37 -20 -56 -176 -26
-218 8 -11 37 -35 65 -53 28 -18 58 -47 67 -64 9 -17 52 -65 96 -106 56 -53
87 -90 103 -126 13 -29 36 -67 52 -86 23 -26 30 -45 35 -97 4 -48 11 -69 30
-90 14 -14 32 -41 41 -59 17 -34 52 -54 122 -72 26 -6 48 -20 63 -41 20 -27
23 -40 18 -91 -6 -67 -16 -84 -58 -93 -51 -11 -55 -37 -24 -132 27 -80 28 -86
14 -141 -19 -78 -18 -145 5 -218 18 -61 18 -62 -3 -124 -28 -80 -19 -112 49
-187 61 -66 75 -93 83 -153 3 -25 17 -70 30 -100 14 -30 28 -79 32 -108 4 -28
15 -62 25 -74 13 -16 15 -29 9 -48 -4 -14 -13 -59 -19 -100 -6 -41 -25 -113
-41 -160 -65 -181 -71 -202 -67 -273 4 -80 20 -101 98 -127 47 -16 53 -21 56
-49 5 -42 26 -80 64 -116 59 -56 58 -60 -17 -108 -92 -59 -108 -79 -106 -130
0 -23 4 -56 8 -73 6 -27 2 -37 -28 -70 -44 -49 -77 -115 -77 -152 0 -35 45
-98 161 -224 47 -51 104 -120 126 -153 22 -33 64 -82 92 -108 28 -26 51 -49
51 -51 0 -2 -16 -20 -35 -39 -36 -36 -44 -71 -25 -107 5 -10 7 -25 4 -33 -7
-19 -178 -139 -224 -158 -48 -19 -107 -75 -115 -107 -3 -15 1 -53 10 -85 8
-32 15 -67 15 -78 0 -29 -46 -52 -177 -88 -65 -18 -141 -41 -170 -51 l-52 -19
-97 52 c-61 33 -106 65 -123 86 -57 76 -88 101 -123 101 -38 0 -104 -38 -186
-107 -47 -40 -56 -44 -87 -39 -50 10 -77 39 -131 141 -55 106 -76 131 -121
145 -46 16 -84 5 -120 -33 -41 -43 -53 -85 -53 -178 l0 -77 -42 -36 c-23 -20
-45 -36 -49 -36 -3 0 -33 16 -65 35 -101 61 -172 68 -229 23 -32 -25 -55 -74
-55 -117 0 -58 -7 -62 -56 -36 -31 16 -69 25 -131 30 -90 7 -157 29 -181 58
-18 21 -9 33 29 41 48 9 105 75 125 143 13 46 14 65 5 111 -15 73 -14 120 4
222 17 92 13 139 -16 237 -30 97 -104 142 -181 110 -28 -11 -38 -12 -65 0 -28
11 -38 11 -65 0 -41 -17 -98 -80 -138 -151 -29 -51 -34 -55 -102 -77 l-71 -22
-19 27 c-44 59 -138 74 -230 34 -56 -24 -53 -25 -90 41 -18 33 -53 47 -95 37
-29 -8 -157 -137 -203 -205 -42 -62 -68 -137 -79 -231 -16 -121 -39 -156 -126
-192 -85 -34 -90 -34 -127 -3 -80 67 -193 1 -243 -144 -46 -130 -67 -180 -83
-194 -12 -11 -45 -16 -112 -19 -121 -4 -183 -32 -284 -129 -38 -38 -74 -69
-79 -69 -5 0 -37 -21 -71 -46 -90 -69 -101 -72 -131 -42 -13 13 -43 30 -65 37
-43 13 -45 16 -30 56 7 19 6 35 -5 62 -43 103 13 196 167 278 97 52 111 88 58
149 -22 24 -50 41 -94 56 -35 11 -73 32 -86 45 -21 22 -22 29 -14 82 24 154
-1 324 -50 342 -11 5 -47 4 -79 -2 -76 -14 -119 5 -137 58 -15 45 -6 56 69 95
71 36 116 84 131 138 15 56 -1 88 -60 122 -54 30 -99 106 -82 137 9 15 24 18
90 18 70 0 82 3 115 28 20 15 50 51 68 81 38 64 59 77 162 105 43 12 101 33
128 47 51 25 136 103 175 159 l21 29 149 6 149 6 65 41 c86 53 105 97 96 222
-5 78 -3 87 25 144 28 55 30 65 24 127 l-7 68 47 32 c69 47 82 98 44 172 -17
33 -19 46 -10 65 12 26 15 82 5 108 -12 30 -65 49 -142 49 l-73 1 -34 44 c-42
52 -43 79 -10 145 16 31 25 66 25 95 0 42 -4 49 -58 102 -39 37 -77 63 -112
76 -30 11 -59 27 -64 35 -16 26 3 82 44 131 21 26 50 72 64 101 31 65 96 253
96 277 0 14 13 19 76 24 l77 8 41 -44 c23 -23 66 -59 97 -79 85 -55 148 -109
180 -157 26 -37 35 -43 66 -43 29 0 43 8 73 40 55 59 120 215 132 315 6 44 14
88 19 97 19 35 8 75 -40 152 -27 43 -47 84 -44 92 8 22 48 16 113 -17 74 -37
120 -46 161 -29 32 14 49 43 49 86 0 18 18 41 60 80 101 94 121 190 70 327
-25 68 -44 84 -155 140 l-90 46 55 1 c83 0 128 16 151 53 22 35 22 29 -6 272
-20 168 -15 201 52 366 32 77 48 135 52 179 l6 64 55 32 c51 29 56 30 73 15
20 -17 82 -20 154 -6 34 6 52 3 88 -14 92 -43 189 -45 250 -5 25 16 65 92 65
122 0 10 19 32 43 49 25 17 53 48 65 74 19 38 22 41 22 18 0 -15 -7 -46 -15
-69 -21 -60 -19 -87 11 -116 26 -27 29 -27 122 -8 l32 6 0 -53 c0 -30 -11 -99
-25 -153 -13 -56 -21 -112 -18 -128 9 -47 70 -87 117 -79 4 1 30 -5 57 -14 46
-16 49 -19 75 -85 35 -91 50 -103 111 -97 26 3 69 11 95 17 45 13 47 12 70
-14 13 -14 44 -32 69 -39 39 -12 52 -12 94 1 45 15 52 15 104 -4 63 -21 116
-21 125 2 9 24 -2 34 -37 34 -18 0 -52 9 -76 20 -52 24 -77 25 -123 5 -45 -18
-99 -5 -122 30 -22 34 -70 40 -144 20 -34 -10 -67 -15 -74 -12 -8 2 -24 34
-37 70 -12 36 -30 72 -40 81 -23 21 -97 46 -137 46 -29 0 -64 21 -64 38 0 4
11 54 25 111 32 132 36 198 13 233 -22 33 -73 45 -123 28 -20 -7 -38 -10 -41
-8 -2 3 2 24 11 47 28 79 29 131 3 181 -20 39 -28 45 -59 48 -33 3 -38 0 -53
-31 -9 -19 -16 -41 -16 -49 0 -26 -40 -78 -80 -103 -34 -22 -42 -34 -57 -86
-11 -39 -24 -64 -37 -71 -35 -19 -107 -12 -170 16 -64 28 -108 32 -167 15 -35
-11 -40 -10 -69 15 -17 14 -38 26 -47 26 -8 0 -45 -18 -83 -40 -38 -22 -71
-40 -75 -40 -3 0 -21 11 -40 25 -42 33 -91 41 -151 26 -59 -15 -62 -13 -171
151 -79 120 -159 207 -210 231 -17 7 -23 19 -23 42 0 30 3 33 58 48 32 9 66
25 76 36 31 34 31 90 1 162 -39 95 -39 95 -9 134 31 41 44 127 25 163 -10 19
-7 25 30 52 23 17 61 35 83 41 123 33 156 56 156 111 0 39 -27 62 -104 88 -83
27 -106 55 -151 187 -29 82 -36 122 -44 231 -5 72 -12 135 -15 140 -10 16 31
62 90 100 122 79 205 206 212 325 l4 68 49 24 c27 14 73 34 103 46 65 24 94
62 102 136 5 42 1 57 -31 117 -74 140 -102 398 -56 516 30 75 51 188 51 273 0
89 32 184 89 270 23 33 41 64 41 70 0 5 22 39 49 76 78 107 86 132 71 246 -12
93 -26 121 -105 205 -81 87 -89 114 -80 280 6 117 5 130 -19 207 -15 45 -31
85 -37 89 -6 4 -2 12 10 21 64 44 98 231 52 287 -6 7 -18 46 -27 87 -10 41
-25 93 -36 117 -23 55 -23 84 0 111 16 20 19 20 62 5 63 -21 94 -8 122 51 21
44 23 45 68 45 71 0 143 -41 232 -132 73 -74 95 -88 112 -71 8 9 80 29 156 44
92 18 153 63 165 121 6 28 7 28 63 22 56 -6 59 -7 138 -90 65 -67 86 -84 110
-84 16 0 67 -9 114 -20 114 -26 131 -25 176 11 32 25 45 30 74 25 116 -18 149
-19 175 -2 36 24 43 48 59 203 10 88 19 139 28 144 7 5 43 9 80 9 l68 0 26
-41z m-6320 -1794 c-3 -35 -19 -106 -35 -157 -45 -147 -55 -224 -38 -280 l15
-46 -32 -30 c-17 -16 -58 -47 -91 -70 -94 -63 -118 -92 -123 -155 -4 -49 -2
-57 28 -90 45 -51 116 -71 230 -65 74 5 98 11 175 47 48 22 92 41 96 41 5 0
31 -13 57 -30 33 -20 57 -45 74 -77 39 -72 41 -100 17 -178 -54 -174 8 -265
184 -271 73 -3 83 -6 111 -33 34 -32 77 -46 172 -57 59 -6 115 7 257 59 48 17
81 72 87 141 l5 61 32 -67 c17 -37 49 -86 70 -110 78 -85 77 -83 23 -138 -42
-41 -51 -57 -62 -110 -11 -56 -17 -65 -54 -90 -22 -16 -64 -54 -92 -84 -28
-31 -59 -56 -69 -56 -77 0 -147 -52 -193 -142 -25 -52 -30 -73 -30 -135 0 -82
-6 -97 -61 -163 -46 -57 -76 -115 -90 -179 -8 -40 -7 -61 6 -109 l17 -60 -31
-64 c-29 -59 -31 -69 -29 -167 2 -100 1 -105 -22 -120 -13 -9 -54 -41 -90 -71
-103 -88 -95 -83 -127 -67 -15 8 -45 33 -65 56 -23 26 -45 41 -60 41 -24 0
-59 -26 -76 -56 -8 -14 -12 -13 -36 11 -23 23 -33 26 -63 22 -20 -4 -43 -13
-53 -22 -22 -20 -27 -19 -34 9 -3 13 -22 43 -42 67 -32 39 -35 48 -30 85 3 28
0 48 -11 63 -13 20 -23 22 -71 19 l-56 -3 -11 64 c-16 87 -37 104 -122 99 -37
-2 -63 0 -63 6 0 24 -35 46 -73 46 -56 0 -77 -22 -77 -80 0 -63 -16 -82 -71
-84 -57 -2 -110 -33 -130 -76 -9 -19 -26 -44 -38 -54 -20 -18 -22 -18 -39 -3
-38 35 -64 22 -125 -57 -35 -45 -48 -46 -34 -1 9 29 7 38 -8 55 -37 41 -137 9
-179 -58 -19 -31 -34 -42 -70 -51 -25 -6 -57 -11 -71 -11 -22 0 -26 3 -20 18
37 91 38 102 14 128 -16 18 -33 24 -62 24 -34 0 -45 -6 -76 -42 -99 -116 -136
-136 -178 -93 -29 29 -78 33 -109 10 -10 -8 -35 -15 -55 -15 -49 0 -122 -27
-147 -53 -11 -13 -24 -46 -29 -77 l-8 -55 -40 3 c-22 2 -59 -4 -83 -12 -35
-13 -51 -13 -86 -4 -37 10 -48 8 -101 -15 -59 -26 -79 -30 -122 -28 -19 1 -22
9 -28 59 -3 31 -15 87 -26 124 -25 85 -25 84 12 92 18 3 47 15 65 27 28 17 34
27 34 57 0 54 -31 82 -93 82 -41 0 -52 4 -70 26 -19 24 -25 26 -78 21 -54 -5
-58 -3 -63 18 -3 13 -21 41 -38 62 -18 22 -47 61 -65 86 -39 56 -67 65 -118
38 -42 -22 -56 -19 -104 21 -29 25 -40 29 -84 26 -48 -3 -50 -2 -60 27 -14 44
-26 55 -60 55 -20 0 -41 -10 -59 -27 l-28 -27 0 31 c0 17 -18 64 -39 105 -22
41 -42 96 -46 123 -20 149 -39 223 -79 310 -41 86 -44 100 -48 193 l-4 100 56
17 c81 26 109 42 131 80 19 31 21 32 54 22 46 -14 92 6 113 50 12 24 22 33 41
33 18 0 40 16 76 55 41 44 58 55 83 55 22 0 32 -6 37 -20 9 -30 58 -52 88 -41
29 11 57 48 57 74 0 10 3 17 8 15 91 -47 133 -51 186 -18 56 34 85 25 117 -38
27 -53 69 -97 101 -108 25 -7 73 21 100 58 31 44 39 197 13 248 -21 40 -13 73
20 88 29 13 45 48 45 96 0 19 7 53 16 77 21 59 21 122 0 154 -17 25 -16 28 10
72 l27 46 14 -29 c31 -61 67 -68 149 -30 40 19 62 39 99 90 55 77 120 122 164
113 45 -9 99 11 141 53 37 37 39 38 56 19 23 -25 80 -25 119 1 46 30 76 26
123 -20 55 -55 81 -53 124 6 50 69 119 120 200 145 75 24 97 42 187 148 61 73
80 84 120 70 39 -14 81 1 115 41 23 28 23 28 68 13 41 -13 49 -13 84 3 27 11
75 18 154 20 63 2 133 8 155 13 22 5 44 9 49 10 5 0 6 -27 2 -64z m-3107
-2595 c37 0 60 -7 86 -24 49 -34 85 -39 134 -23 l41 15 22 -32 c12 -17 32 -43
46 -58 14 -15 32 -49 41 -75 14 -43 19 -48 49 -51 19 -2 47 1 64 7 27 10 33 8
54 -14 19 -21 32 -25 79 -25 65 0 65 -14 2 -31 -82 -21 -92 -52 -57 -168 11
-36 22 -93 26 -125 5 -48 12 -65 35 -89 28 -28 34 -29 92 -25 36 3 81 15 106
27 35 18 53 21 92 16 33 -5 63 -2 96 9 32 11 58 13 78 8 61 -17 87 10 100 101
9 57 30 74 101 83 27 3 66 12 86 21 36 15 38 15 68 -11 37 -31 60 -32 116 -7
36 16 134 114 134 133 0 5 11 8 24 8 l24 0 -18 -53 c-36 -101 -1 -129 126
-103 75 15 124 43 124 72 0 17 49 54 71 54 22 0 22 -1 9 -34 -19 -52 18 -85
76 -66 22 8 45 27 66 57 27 41 32 44 43 30 29 -40 116 6 155 83 21 42 72 67
114 56 47 -12 96 52 96 124 0 36 3 40 24 40 16 0 27 -7 31 -20 10 -32 39 -42
89 -29 69 17 96 -10 96 -96 0 -12 10 -30 21 -41 12 -10 25 -29 30 -41 6 -16
17 -23 34 -23 18 0 25 -5 25 -20 0 -26 33 -92 55 -110 9 -8 24 -32 32 -53 12
-28 26 -43 50 -54 32 -13 38 -12 74 6 46 24 49 25 49 9 0 -24 34 -48 66 -48
28 0 39 7 63 40 l28 39 19 -21 c27 -30 104 -78 126 -78 30 0 75 27 138 83 32
29 76 67 99 85 22 18 41 40 41 48 0 18 4 18 40 -1 26 -13 30 -21 30 -58 1 -54
31 -121 66 -144 15 -10 57 -27 92 -39 l64 -22 3 -80 c4 -95 29 -159 74 -192
48 -36 81 -117 81 -198 0 -37 -5 -85 -10 -107 -5 -22 -14 -89 -20 -150 -20
-195 -59 -382 -83 -397 -7 -4 -22 -8 -34 -8 -12 0 -52 -16 -90 -37 -37 -20
-138 -71 -223 -113 -126 -63 -167 -78 -218 -83 -52 -6 -70 -3 -102 13 -74 38
-162 20 -228 -46 -61 -60 -126 -79 -202 -59 -57 15 -145 13 -207 -6 -36 -12
-83 -60 -102 -107 -11 -26 -23 -35 -64 -47 -27 -8 -64 -25 -81 -38 -39 -29
-66 -24 -91 16 -39 62 -116 45 -160 -35 -51 -93 -143 -178 -194 -178 -14 0
-47 -7 -72 -16 -45 -16 -47 -16 -91 5 -56 29 -89 25 -106 -12 -18 -37 -2 -103
39 -168 32 -50 38 -96 14 -105 -21 -8 -45 14 -45 40 0 43 -23 70 -70 81 -41 9
-47 15 -70 62 -14 29 -51 81 -83 117 -69 79 -99 86 -122 32 -10 -25 -22 -35
-45 -39 -68 -14 -103 -90 -52 -112 22 -9 23 -14 17 -65 -4 -30 -13 -65 -21
-77 -29 -45 -113 -21 -165 46 -53 69 -65 80 -89 86 -38 9 -78 -27 -91 -81 -10
-39 -15 -44 -39 -44 -15 0 -44 -13 -65 -30 -51 -41 -80 -40 -95 4 -25 77 -92
93 -144 34 -17 -19 -36 -43 -42 -53 -9 -16 -14 -3 -28 70 -10 49 -29 126 -42
172 -13 46 -33 125 -44 177 -63 291 -178 559 -273 639 -35 30 -51 52 -61 88
-8 26 -19 56 -25 67 -6 11 -17 73 -26 138 -21 166 -23 171 -63 216 -41 45 -53
99 -72 318 -6 74 -13 145 -16 157 -3 12 -26 39 -51 59 -25 21 -52 52 -59 70
-8 18 -27 55 -43 83 -59 100 -91 188 -106 293 -19 133 -19 192 1 258 13 43 18
51 25 37 13 -22 56 -22 70 1 11 17 13 16 39 -10 24 -23 37 -28 79 -28z m2446
-2349 c8 -16 24 -32 35 -36 13 -4 20 -15 20 -31 0 -36 15 -59 85 -139 78 -88
86 -102 76 -146 -18 -78 34 -139 119 -139 23 0 63 -16 115 -45 183 -103 237
-127 283 -122 56 6 106 53 152 142 33 63 90 131 90 106 0 -21 -41 -92 -83
-145 -90 -110 -120 -237 -94 -401 22 -136 41 -194 80 -246 47 -62 59 -87 52
-109 -9 -28 -47 -25 -134 10 -94 38 -134 39 -169 2 -15 -15 -32 -36 -38 -47
-10 -18 -11 -18 -41 3 -16 11 -62 30 -101 41 -79 22 -117 17 -181 -21 -73 -46
-74 -131 -1 -283 57 -118 58 -136 16 -224 -19 -41 -44 -83 -55 -95 -10 -12
-28 -39 -40 -61 -34 -66 -53 -83 -115 -100 -71 -21 -128 -70 -151 -130 -16
-41 -16 -47 0 -94 9 -27 34 -77 55 -110 22 -33 47 -75 56 -93 9 -18 28 -46 43
-63 28 -30 40 -86 60 -267 8 -71 35 -110 84 -122 44 -11 46 -19 10 -35 -50
-23 -101 -71 -123 -117 -33 -68 -25 -133 28 -221 24 -39 42 -82 42 -99 0 -50
20 -105 48 -131 14 -13 52 -31 85 -40 57 -16 89 -45 70 -64 -4 -4 -42 -12 -84
-17 -41 -5 -89 -17 -106 -25 -44 -23 -90 -80 -104 -129 -7 -24 -20 -52 -29
-63 -49 -57 -52 -107 -11 -179 28 -50 29 -52 15 -104 -7 -28 -27 -78 -43 -110
-53 -103 -74 -179 -67 -250 3 -34 14 -83 25 -108 18 -39 18 -46 5 -51 -12 -4
-14 -14 -9 -39 7 -42 -17 -104 -42 -104 -10 0 -36 12 -58 25 -51 32 -83 32
-90 3 -3 -13 -10 -45 -15 -72 -15 -71 -38 -105 -80 -116 -19 -5 -41 -10 -47
-10 -7 0 -22 -9 -33 -20 -16 -16 -20 -34 -21 -92 -1 -88 -18 -162 -39 -166 -8
-1 -23 12 -33 29 -17 30 -20 31 -64 26 -25 -3 -58 -1 -73 4 -19 7 -40 5 -74
-6 -26 -9 -55 -14 -65 -10 -38 12 -58 97 -31 130 7 9 36 15 73 17 58 3 63 5
85 38 21 32 23 42 17 103 -4 41 -2 99 5 145 12 72 11 80 -9 124 -11 26 -21 67
-21 91 0 56 -25 89 -78 105 -35 11 -41 17 -47 50 -9 53 -31 82 -60 82 -26 0
-100 -41 -175 -97 -93 -71 -123 -27 -100 146 10 79 11 106 1 129 -16 39 -57
77 -103 97 -21 8 -38 22 -38 30 0 54 -99 74 -161 32 -51 -34 -66 -76 -78 -221
-6 -75 -15 -132 -22 -136 -15 -10 -69 3 -108 26 -17 10 -47 44 -66 75 -42 69
-101 123 -238 220 -56 40 -127 98 -158 129 -30 31 -70 63 -87 71 -31 14 -32
15 -32 80 0 37 9 118 19 181 10 62 22 149 26 193 8 97 27 139 76 170 20 14 40
29 44 35 3 5 10 10 14 10 14 0 28 -126 29 -254 1 -129 6 -165 30 -211 27 -55
47 -58 97 -13 70 61 83 110 106 390 14 168 6 427 -14 503 -27 99 -59 135 -106
120 -35 -11 -69 -77 -90 -171 -22 -103 -70 -207 -102 -225 -22 -11 -22 -11
-16 82 4 57 18 138 37 204 16 61 41 182 55 270 43 271 54 329 80 408 39 120
103 357 114 422 25 151 34 324 35 675 1 369 1 376 24 421 12 25 33 51 47 57
14 6 26 16 26 22 1 5 3 15 4 20 1 6 3 16 4 23 1 6 8 -2 15 -19 38 -87 135
-106 205 -40 16 15 39 24 60 24 42 1 68 25 82 74 l10 39 40 -44 c46 -53 128
-97 178 -97 45 0 95 30 115 69 22 42 39 162 27 193 -9 23 -6 26 31 43 l40 17
31 -38 c18 -21 40 -58 49 -82 19 -50 38 -67 89 -82 30 -8 38 -17 47 -48 21
-70 78 -101 133 -74 67 34 76 114 21 199 -17 26 -34 61 -38 77 -6 27 -6 28 16
16 47 -25 81 -29 123 -15 23 7 60 17 82 21 22 3 54 15 72 26 43 26 129 121
155 172 32 64 50 71 73 27z m2635 -3736 c12 -19 42 -47 66 -61 26 -15 44 -33
44 -44 0 -29 -36 -65 -99 -98 -101 -55 -125 -97 -101 -184 20 -72 137 -134
204 -109 46 18 53 14 66 -40 12 -49 10 -115 -6 -231 -4 -31 -2 -59 6 -79 17
-41 80 -85 147 -105 30 -9 57 -24 63 -34 9 -17 4 -23 -39 -44 -77 -39 -166
-119 -191 -171 -25 -52 -30 -126 -11 -172 9 -23 10 -37 2 -51 -29 -54 -2 -95
77 -121 52 -18 91 -58 98 -103 5 -28 -3 -53 -42 -133 -60 -121 -66 -188 -24
-270 35 -68 127 -137 218 -164 52 -16 77 -30 109 -63 63 -64 70 -93 40 -164
-14 -33 -28 -79 -32 -104 -8 -49 -21 -80 -34 -80 -4 0 -37 27 -73 60 -75 68
-107 84 -142 70 -60 -22 -74 -90 -50 -239 9 -61 15 -114 11 -117 -3 -4 -33 15
-66 42 -101 82 -158 89 -228 29 -30 -26 -47 -32 -81 -32 -34 0 -50 -6 -73 -29
-67 -64 -74 -80 -79 -203 l-5 -114 -45 -13 c-25 -8 -60 -14 -78 -14 -47 0 -85
-23 -106 -63 l-19 -34 -50 19 c-77 29 -106 19 -181 -59 -63 -65 -63 -66 -98
-54 -24 8 -43 8 -60 2 -30 -11 -68 -57 -68 -81 0 -28 -11 -31 -38 -10 -56 45
-124 10 -147 -75 l-14 -50 0 46 c-1 48 -13 65 -62 86 -22 9 -28 21 -34 60 -4
26 -13 59 -20 73 -21 40 -66 81 -97 87 -16 3 -28 12 -28 21 0 9 -12 28 -27 44
l-26 28 13 72 c16 85 16 241 1 281 -8 19 -27 34 -67 52 -31 14 -65 25 -76 25
-35 0 -76 -39 -123 -118 -77 -126 -103 -146 -125 -93 -30 73 -77 76 -110 8
-28 -57 -82 -132 -135 -187 -57 -60 -75 -98 -75 -161 0 -62 25 -108 75 -138
30 -17 35 -26 35 -56 0 -43 -23 -90 -50 -105 -27 -15 -58 3 -65 38 -9 41 -20
57 -42 60 -48 7 -118 -84 -168 -219 -44 -119 -92 -169 -160 -169 -23 0 -25 3
-19 23 9 24 9 33 6 151 l-2 80 -43 40 c-43 42 -67 82 -67 115 0 33 -70 159
-106 190 -60 53 -104 38 -104 -36 0 -42 -1 -43 -27 -37 -16 4 -40 17 -55 30
-17 13 -35 20 -47 17 -21 -5 -41 -50 -41 -91 0 -33 -67 -97 -151 -144 -84 -47
-98 -64 -109 -132 -8 -48 -34 -105 -50 -106 -7 0 -42 120 -85 287 -34 133 -65
208 -94 230 -9 7 -36 13 -59 13 -81 0 -132 -60 -173 -202 -26 -92 -47 -118
-93 -118 -31 0 -35 3 -55 58 -49 133 -88 172 -182 183 -59 7 -86 4 -244 -22
-83 -13 -150 -7 -202 19 -109 56 -156 45 -199 -45 -15 -32 -29 -60 -30 -62 -2
-2 -17 2 -33 9 -25 10 -43 9 -103 -4 -93 -21 -129 -14 -151 27 -9 18 -17 43
-19 57 -4 33 -46 39 -73 10 -28 -31 -43 -25 -50 23 -5 31 4 84 34 207 56 230
84 387 79 441 -9 94 -58 151 -161 187 -39 13 -54 26 -74 59 -31 53 -30 55 52
278 78 211 199 693 261 1045 14 80 36 191 50 246 13 56 35 191 49 300 14 109
31 229 37 266 l11 68 17 -27 c18 -30 113 -108 277 -227 83 -61 110 -88 150
-148 37 -56 59 -79 98 -100 87 -47 171 -48 201 -3 10 15 18 68 25 152 5 70 12
138 14 150 13 57 75 72 100 24 9 -18 28 -34 49 -41 87 -28 97 -54 75 -200 -10
-66 -9 -82 7 -130 14 -41 27 -59 51 -73 43 -25 78 -16 151 37 31 23 74 53 94
65 l37 22 7 -38 c8 -49 28 -70 77 -85 42 -13 53 -31 55 -90 1 -21 8 -50 15
-65 11 -21 14 -63 11 -170 -1 -79 -6 -152 -9 -163 -5 -17 -15 -20 -63 -20 -83
-1 -112 -31 -112 -115 0 -57 21 -100 60 -120 36 -19 58 -19 103 0 27 11 43 12
64 4 15 -5 44 -7 64 -4 32 6 38 4 44 -15 16 -50 103 -45 124 8 16 39 31 128
31 182 0 50 9 60 54 60 52 0 111 79 123 165 3 25 9 45 13 45 4 0 19 -9 33 -21
19 -15 38 -19 68 -17 51 4 73 30 91 104 12 50 13 51 38 41 14 -6 39 -23 57
-38 41 -35 99 -45 148 -25 21 9 41 16 46 16 4 0 17 -19 27 -43 27 -62 75 -112
134 -141 99 -50 155 -32 256 81 l58 65 30 -24 c16 -14 37 -28 47 -31 22 -8 74
13 104 42 12 11 27 21 33 21 5 0 26 -22 45 -49 20 -28 46 -52 61 -55 36 -9 77
14 87 50 7 25 19 34 68 54 63 25 109 70 197 194 51 73 97 103 170 112 37 4 70
17 105 41 29 19 72 43 97 52 106 41 208 138 243 232 20 52 33 67 194 216 119
111 173 154 248 198 35 20 71 45 81 56 9 10 18 19 20 19 1 0 12 -16 24 -35z
m-1497 -2785 l45 -20 7 -68 c4 -38 2 -94 -5 -132 -25 -138 -24 -153 3 -185 13
-17 26 -39 28 -49 4 -19 7 -21 74 -54 42 -20 63 -58 82 -147 6 -33 15 -43 46
-58 31 -16 37 -23 37 -51 0 -20 -8 -40 -20 -51 -27 -24 -41 -73 -44 -152 -2
-46 -10 -79 -24 -103 -11 -19 -25 -60 -32 -90 -9 -38 -23 -65 -46 -87 -29 -30
-37 -33 -95 -33 -76 0 -123 -24 -143 -72 -13 -30 -16 -31 -71 -32 -52 -1 -59
-4 -89 -37 -21 -23 -35 -50 -40 -77 -6 -40 -8 -42 -43 -42 -49 0 -122 -36
-134 -67 -5 -13 -9 -46 -9 -73 0 -64 -14 -100 -39 -100 -11 0 -33 -11 -49 -25
-19 -16 -50 -28 -91 -34 -133 -21 -181 -74 -181 -197 0 -83 -1 -83 -105 -84
-102 -1 -186 -49 -245 -142 l-37 -59 -11 28 c-6 15 -14 82 -17 148 -9 155 -27
234 -73 320 -83 152 -148 151 -312 -8 -36 -35 -92 -83 -125 -107 -33 -24 -94
-79 -136 -122 l-75 -78 -68 35 c-81 42 -107 43 -228 9 -182 -52 -221 -80 -258
-190 -29 -84 -27 -162 7 -210 17 -26 30 -64 39 -115 21 -130 51 -173 146 -206
52 -19 56 -28 31 -76 -33 -64 -78 -109 -143 -142 -36 -18 -75 -44 -87 -57 -27
-29 -53 -89 -53 -122 0 -36 27 -102 67 -162 39 -60 63 -124 63 -168 0 -48 26
-125 59 -178 l30 -46 -67 -27 c-60 -24 -76 -27 -146 -21 l-78 6 -33 -33 c-26
-26 -34 -44 -40 -89 -8 -60 -4 -88 26 -187 28 -94 29 -93 -176 -92 -284 1
-380 -29 -486 -151 -51 -58 -79 -120 -124 -269 -28 -92 -53 -141 -99 -194
l-34 -40 -26 25 c-30 27 -66 30 -136 11 -51 -15 -106 -66 -134 -126 -36 -76
-9 -238 66 -393 32 -67 33 -85 3 -156 -16 -38 -17 -38 -58 -33 -28 4 -48 14
-59 29 -51 69 -66 82 -105 100 -47 21 -76 18 -136 -15 -50 -28 -99 -103 -141
-215 -36 -98 -59 -141 -79 -146 -134 -38 -205 -110 -257 -261 l-18 -50 -11 29
c-7 17 -21 87 -31 157 -38 250 -74 352 -140 397 -32 22 -42 24 -116 18 -80 -6
-81 -6 -110 25 -56 59 -130 77 -173 42 -12 -10 -42 -63 -67 -118 -24 -54 -50
-103 -57 -107 -22 -14 -54 -8 -93 18 -31 21 -46 25 -81 21 -31 -3 -43 -1 -43
8 0 12 -37 54 -74 83 -9 7 -19 25 -22 40 -19 85 -28 106 -63 142 -35 37 -42
40 -92 40 -62 0 -79 11 -79 51 0 41 24 59 79 59 43 0 51 -4 84 -40 19 -22 43
-40 53 -40 53 0 314 189 454 330 79 79 105 113 152 201 88 164 158 266 258
371 84 89 95 97 133 100 l42 3 0 62 0 62 85 83 c123 120 232 289 234 366 0 23
-7 50 -19 68 -11 16 -18 34 -16 39 2 6 4 71 5 145 l2 135 44 95 c44 93 45 98
51 225 5 127 13 166 70 355 11 36 35 142 54 235 46 227 66 284 265 760 105
252 131 343 209 729 56 278 57 280 84 287 25 7 30 3 52 -31 14 -22 34 -44 44
-50 36 -19 105 -22 166 -7 51 12 65 12 93 0 51 -21 94 2 128 69 41 81 39 81
93 53 88 -44 154 -51 278 -29 111 19 209 24 254 12 19 -6 34 -24 56 -70 17
-35 34 -74 38 -88 19 -67 85 -94 160 -65 57 21 77 51 114 164 37 113 62 151
100 151 26 0 31 -6 49 -57 12 -32 31 -96 42 -143 41 -168 90 -309 110 -320 64
-34 141 42 157 155 5 42 10 48 52 72 127 72 189 129 197 185 l6 36 34 -14 c66
-28 117 -14 139 39 l13 31 21 -35 c12 -18 28 -53 36 -76 8 -24 22 -64 31 -89
9 -26 26 -54 37 -63 52 -42 54 -46 60 -137 4 -68 2 -96 -10 -117 -21 -41 -10
-74 28 -82 74 -17 169 24 216 92 11 15 28 53 38 83 20 63 65 153 93 189 l20
24 7 -32 c8 -37 54 -71 97 -71 14 0 40 12 58 26 83 70 87 187 7 234 -39 23
-57 56 -57 106 0 46 12 67 74 135 60 66 118 143 129 173 8 20 9 20 23 -6 26
-49 80 -62 121 -30 12 9 45 55 74 102 81 134 79 132 152 100z m3984 -7046 c61
-69 104 -97 164 -108 49 -9 55 -19 61 -98 7 -89 31 -133 103 -188 95 -74 129
-129 148 -249 19 -115 31 -145 63 -166 14 -9 29 -35 38 -66 9 -28 27 -72 41
-96 14 -25 25 -57 25 -70 0 -17 18 -43 56 -80 52 -52 58 -55 92 -50 21 4 45
17 57 30 18 22 22 23 50 11 49 -22 133 -17 192 11 57 26 89 66 99 125 3 19 10
50 16 68 l10 32 89 0 c99 0 139 12 182 56 17 17 31 24 35 18 4 -6 25 -32 46
-58 l40 -48 -26 -76 c-39 -113 -41 -128 -23 -190 16 -54 68 -120 105 -135 11
-4 6 -12 -20 -33 -19 -16 -48 -42 -65 -59 -16 -17 -45 -37 -63 -44 -42 -17
-52 -37 -52 -101 0 -29 -7 -80 -16 -114 -19 -71 -20 -139 -4 -239 36 -231 74
-306 149 -295 l29 4 -30 -59 c-18 -37 -32 -81 -34 -116 -8 -87 -11 -95 -59
-155 -63 -77 -75 -111 -80 -228 -4 -100 -4 -101 -38 -132 l-34 -31 -6 -120
c-6 -114 -5 -121 15 -138 12 -10 28 -15 37 -12 9 4 28 9 43 12 26 5 27 4 19
-24 -14 -49 -39 -90 -69 -115 -43 -34 -64 -72 -60 -109 4 -46 39 -67 131 -79
43 -5 87 -15 98 -21 12 -6 42 -55 68 -112 59 -124 128 -219 187 -253 47 -27
123 -106 158 -164 12 -19 35 -65 50 -103 37 -88 101 -155 189 -198 44 -21 74
-43 87 -63 10 -17 30 -42 44 -55 20 -19 26 -34 26 -66 0 -28 13 -68 40 -124
22 -46 55 -117 72 -160 17 -42 45 -100 61 -129 25 -47 27 -55 14 -70 -8 -9
-20 -32 -28 -49 -13 -31 -17 -33 -61 -33 -26 0 -50 -4 -53 -10 -22 -35 -75 31
-122 154 -31 83 -50 107 -104 131 -43 20 -45 27 -24 65 22 38 18 83 -7 108
-13 11 -57 36 -98 55 -41 19 -104 48 -140 65 -87 40 -99 50 -105 97 -10 67
-14 73 -60 91 -46 17 -52 23 -36 39 22 22 17 111 -7 124 -10 5 -61 6 -130 1
-108 -8 -114 -10 -162 -45 -28 -20 -55 -46 -61 -56 -5 -11 -35 -32 -67 -48
-31 -16 -70 -43 -85 -59 -28 -29 -30 -30 -106 -25 -96 7 -106 -2 -107 -95 l0
-64 -67 -62 c-88 -79 -107 -109 -107 -168 0 -38 -5 -52 -30 -76 -16 -17 -30
-38 -30 -47 0 -33 -69 -163 -90 -170 -37 -12 -80 -56 -80 -82 0 -19 -4 -24
-17 -19 -74 29 -133 26 -186 -9 -34 -22 -68 -14 -152 36 -88 54 -122 59 -163
24 -30 -25 -32 -25 -61 -10 -41 21 -67 19 -129 -10 -67 -31 -100 -31 -188 -1
-85 29 -128 50 -272 137 -147 88 -193 100 -289 70 -65 -20 -73 -21 -139 -7
-38 8 -99 17 -137 21 -65 6 -68 8 -96 48 -37 54 -110 97 -246 145 -139 50
-169 63 -229 107 -56 40 -140 68 -208 69 -38 0 -57 -7 -101 -37 -42 -29 -63
-37 -99 -37 -39 0 -54 7 -113 51 -83 63 -138 75 -186 40 -41 -30 -83 -37 -114
-17 -37 24 -95 20 -135 -9 -50 -37 -81 -33 -111 13 -20 30 -31 38 -61 40 -42
4 -78 -12 -78 -33 0 -19 -2 -19 -43 5 -21 12 -66 24 -110 29 -59 7 -88 16
-134 44 -71 43 -120 57 -196 57 -56 0 -60 2 -99 45 -47 51 -87 67 -175 69 -63
1 -70 4 -55 22 5 5 26 53 47 107 33 85 37 103 28 128 -10 26 -8 32 18 59 30
30 32 54 7 103 -11 21 -54 22 -74 2 -22 -22 -39 -19 -79 16 -34 30 -35 34 -34
98 1 77 -29 160 -91 250 -21 31 -66 107 -101 169 -64 114 -96 149 -158 170
-49 17 -74 1 -146 -93 l-61 -80 -64 -3 c-85 -4 -100 1 -155 48 -44 38 -78 50
-89 31 -3 -5 -18 -11 -33 -14 -22 -4 -35 1 -60 26 -27 25 -41 31 -80 31 l-48
1 -1 -81 c-2 -93 -11 -154 -23 -154 -5 0 -23 17 -41 38 -74 87 -68 84 -127 76
-50 -6 -53 -5 -53 15 0 51 -72 87 -122 60 -17 -9 -35 -6 -90 16 -66 26 -74 27
-124 16 -30 -7 -58 -10 -64 -6 -5 3 -10 41 -10 84 0 74 -2 80 -35 122 -20 25
-35 55 -35 70 0 41 27 108 71 176 36 54 48 65 96 83 112 42 133 62 148 143 17
91 64 113 295 138 119 13 160 23 194 50 36 28 34 62 -8 100 -41 37 -68 89 -66
127 5 64 -10 94 -56 120 -15 8 -15 15 -4 61 11 45 10 58 -5 96 -15 41 -57 87
-87 97 -9 3 -8 15 5 50 25 65 38 73 72 46 36 -28 112 -35 153 -14 47 24 161
135 182 177 11 20 22 56 26 79 6 36 9 41 28 35 56 -16 98 -17 140 -1 52 20 76
45 111 114 30 60 41 63 138 35 50 -14 67 -14 105 -4 47 12 135 70 151 99 9 15
14 13 44 -16 19 -18 39 -43 45 -55 81 -175 81 -174 198 -217 59 -21 62 -24 68
-61 14 -85 101 -139 225 -139 35 0 77 -9 120 -26 108 -43 192 -23 234 57 15
28 17 48 12 113 -9 103 -37 179 -79 211 -18 14 -37 25 -42 25 -5 0 -26 11 -47
25 -44 30 -48 59 -17 126 44 97 18 164 -102 260 -46 37 -97 74 -115 83 -50 25
-151 46 -226 46 -68 0 -137 21 -137 42 0 5 18 39 40 75 22 37 54 103 71 147
17 45 42 102 55 128 13 26 24 58 24 70 0 67 68 169 151 228 26 19 33 20 67 10
83 -27 138 -99 176 -231 20 -72 48 -107 92 -115 98 -18 209 111 239 281 4 22
12 46 17 52 15 19 47 -7 77 -64 15 -27 43 -59 64 -72 36 -24 37 -26 31 -71
-19 -141 138 -258 296 -220 63 15 143 74 183 135 16 25 32 45 36 45 16 0 61
-58 81 -103 27 -61 73 -113 121 -138 44 -22 59 -45 59 -91 0 -44 31 -93 72
-114 43 -23 171 -30 240 -14 29 7 82 28 118 47 61 34 68 35 108 24 62 -16 108
-14 151 9 66 33 137 131 170 233 7 20 18 37 25 37 7 0 51 -29 98 -64 144 -109
188 -124 248 -83 42 28 152 171 191 248 33 64 23 60 183 74 82 7 114 22 155
72 45 54 65 123 57 194 -3 34 -2 59 4 59 5 0 35 -30 67 -66z m-5573 -1601 c-6
-119 -5 -132 16 -180 41 -96 134 -162 256 -182 85 -13 131 -1 172 45 l33 38
25 -26 c28 -27 30 -44 19 -126 -8 -51 -7 -53 29 -86 27 -26 36 -43 36 -68 1
-45 22 -101 54 -142 14 -19 23 -37 18 -40 -4 -2 -51 -9 -104 -15 -121 -14
-230 -36 -274 -57 -46 -22 -81 -66 -94 -117 -18 -75 -31 -90 -95 -112 -76 -25
-132 -81 -180 -178 -60 -123 -62 -185 -8 -255 24 -32 28 -46 28 -102 1 -120
45 -162 146 -141 51 10 62 9 105 -10 51 -22 104 -27 141 -15 19 7 24 3 36 -27
19 -45 31 -51 91 -50 48 1 52 -2 101 -53 41 -43 57 -54 82 -54 61 0 87 53 88
177 0 56 2 60 18 51 10 -5 21 -16 23 -23 10 -26 67 -37 111 -22 39 13 40 13
78 -20 45 -38 89 -53 163 -53 82 0 113 18 176 105 31 42 63 78 71 81 22 9 74
-24 105 -68 17 -22 30 -44 30 -48 0 -11 98 -179 126 -215 42 -56 74 -148 74
-215 0 -68 9 -92 49 -126 43 -38 77 -48 117 -36 52 16 54 -12 1 -31 -26 -10
-32 -36 -13 -67 20 -35 20 -47 0 -85 -9 -16 -25 -54 -36 -83 -11 -29 -31 -65
-44 -79 -38 -42 -27 -123 17 -123 11 0 33 7 50 15 21 12 43 14 81 9 44 -6 59
-14 99 -54 50 -50 77 -60 159 -60 57 0 95 -13 165 -55 42 -25 69 -33 122 -38
38 -3 81 -11 95 -18 29 -13 62 -72 73 -132 7 -34 46 -116 139 -291 42 -80 47
-136 16 -196 l-20 -40 -65 0 c-63 0 -64 0 -99 -43 -26 -31 -58 -54 -113 -80
-142 -66 -250 -83 -296 -47 -42 34 -63 26 -98 -35 -36 -63 -114 -125 -158
-125 -29 0 -71 -38 -71 -63 0 -6 -18 -40 -39 -76 -21 -36 -42 -82 -45 -101 -5
-32 -11 -37 -56 -53 -59 -21 -68 -42 -50 -115 21 -79 -8 -135 -50 -97 -44 39
-93 2 -110 -82 -6 -32 -24 -93 -40 -136 -41 -106 -39 -137 8 -189 46 -51 133
-108 176 -115 25 -4 39 1 63 21 18 15 43 26 61 26 57 0 189 -120 282 -256 l49
-72 5 -138 c4 -121 2 -143 -15 -175 -10 -21 -33 -81 -50 -135 -30 -93 -31
-101 -18 -151 11 -47 10 -58 -4 -88 -9 -19 -21 -35 -27 -35 -19 0 -40 -67 -40
-124 0 -66 -13 -72 -78 -39 -62 31 -118 37 -171 19 -58 -21 -84 -20 -105 3
-31 34 -72 36 -128 7 -60 -31 -72 -32 -105 -6 -32 25 -60 25 -94 2 -99 -66
-82 -62 -242 -62 l-148 0 -42 -39 -42 -40 0 -99 -1 -99 -47 -54 c-26 -30 -59
-78 -74 -107 -23 -48 -25 -60 -19 -125 3 -40 9 -85 12 -101 7 -28 7 -28 -33
-21 -36 6 -43 3 -62 -21 -11 -15 -21 -33 -21 -40 0 -23 -28 -42 -55 -36 -14 2
-50 26 -78 51 -78 71 -97 81 -147 81 -37 0 -52 -5 -70 -25 -13 -14 -31 -25
-40 -25 -20 0 -67 64 -133 180 -86 150 -118 170 -209 130 -35 -15 -52 -18 -78
-10 -37 10 -80 46 -80 66 0 14 -35 28 -49 20 -14 -9 -42 72 -52 149 -7 52 -18
83 -41 120 -31 49 -32 53 -30 147 2 71 -1 105 -12 126 -17 34 -90 102 -109
102 -7 0 -53 25 -102 56 -88 55 -174 94 -207 94 -26 0 -22 18 12 57 36 40 81
127 105 203 9 30 40 106 67 168 33 75 58 153 73 227 13 62 28 130 34 153 6 22
18 93 27 158 8 65 24 154 35 198 28 115 39 715 15 846 -9 47 -30 167 -46 267
-16 100 -36 199 -44 220 -103 272 -185 464 -227 526 -12 17 -67 77 -123 132
-56 55 -117 118 -135 140 -19 22 -70 77 -113 123 -53 57 -78 91 -78 108 0 41
28 28 103 -50 40 -40 100 -92 135 -115 34 -23 77 -55 95 -70 45 -40 95 -51
357 -77 40 -4 86 -17 120 -34 78 -39 147 -52 212 -40 64 12 88 37 88 90 0 30
-6 43 -27 59 -16 12 -33 25 -39 30 -6 5 -31 18 -57 29 -43 19 -46 23 -52 69
-4 26 -13 76 -21 111 -8 35 -14 99 -14 142 0 104 -9 126 -58 139 -21 6 -49 22
-62 36 -15 16 -34 25 -55 25 -58 0 -69 -35 -34 -114 11 -26 27 -71 34 -100 14
-53 14 -55 -16 -109 -45 -83 -83 -87 -204 -22 -46 24 -106 53 -134 64 -27 10
-69 34 -93 54 -48 38 -91 62 -188 101 -53 22 -69 24 -95 16 -38 -13 -92 -69
-130 -134 -15 -27 -43 -65 -61 -86 -31 -35 -38 -38 -74 -33 -60 8 -83 -2 -114
-51 -16 -25 -53 -64 -83 -87 -29 -23 -63 -55 -74 -70 -18 -26 -23 -27 -72 -22
l-53 5 -41 -53 c-59 -77 -91 -109 -110 -109 -9 0 -67 10 -128 22 -110 21 -112
21 -151 2 -22 -11 -51 -37 -67 -61 -15 -23 -36 -45 -47 -48 -10 -3 -45 1 -78
10 -93 24 -106 21 -149 -31 -109 -132 -139 -145 -137 -59 1 62 33 139 91 213
23 30 43 65 43 76 0 12 -9 50 -20 84 -11 35 -20 85 -20 110 0 26 -7 70 -16 97
-8 28 -19 109 -24 181 -14 221 -68 347 -212 500 -160 171 -258 290 -258 315 0
5 18 9 41 9 24 0 63 11 98 29 67 33 106 42 296 71 l140 21 22 -28 c63 -80 77
-93 117 -112 61 -30 85 -26 151 21 33 23 102 63 154 89 143 70 160 97 115 190
-25 53 -26 62 -16 97 20 66 65 118 118 136 83 28 143 75 190 147 34 52 52 70
84 83 70 28 91 22 151 -39 76 -79 169 -104 262 -71 54 20 143 75 197 123 l47
42 34 -35 c77 -80 239 -174 301 -174 45 0 118 38 198 103 82 66 95 100 79 194
-22 128 9 234 96 325 l45 47 47 -27 c95 -53 218 -21 302 78 23 27 44 50 47 50
3 0 2 -57 -2 -127z m7242 -2675 c-17 -82 -15 -91 37 -117 37 -18 47 -28 47
-47 0 -72 54 -122 185 -174 97 -38 175 -80 182 -96 3 -9 -2 -31 -11 -50 -31
-66 -18 -97 54 -126 43 -18 52 -29 74 -93 32 -87 84 -172 120 -194 39 -25 64
-27 72 -6 4 10 20 15 48 15 45 0 86 22 86 47 0 19 28 42 51 43 8 0 26 -11 39
-25 31 -33 102 -59 137 -50 15 3 40 18 54 31 21 20 30 23 50 15 18 -6 32 -5
49 5 14 7 48 14 75 14 74 1 98 16 110 74 13 58 38 81 100 90 32 5 58 18 90 46
63 54 156 79 169 44 19 -49 -9 -130 -53 -154 -21 -11 -61 -124 -61 -173 0 -28
23 -57 46 -57 19 0 18 -11 -15 -147 -16 -65 -32 -130 -35 -145 -4 -15 -15 -30
-27 -33 -11 -4 -23 -15 -27 -26 -7 -19 0 -165 13 -255 7 -50 7 -52 -33 -89
-33 -30 -42 -46 -47 -84 -10 -74 -19 -87 -70 -101 -26 -7 -62 -24 -81 -37 -19
-12 -42 -23 -50 -23 -32 0 -91 33 -134 75 -49 47 -84 65 -131 65 -23 0 -45
-13 -90 -56 -65 -63 -78 -96 -60 -159 9 -33 7 -43 -10 -71 -11 -18 -40 -42
-65 -55 -55 -26 -125 -23 -197 10 -70 32 -90 28 -133 -25 -38 -46 -38 -46 -86
-40 -54 7 -59 4 -138 -95 -46 -57 -52 -96 -28 -184 26 -92 19 -141 -38 -272
-52 -120 -73 -209 -67 -279 6 -64 -34 -203 -75 -260 -16 -22 -72 -76 -124
-121 -95 -81 -130 -124 -234 -284 l-56 -85 -49 0 c-39 1 -53 -4 -74 -24 -43
-44 -67 -130 -76 -280 -5 -93 -20 -194 -48 -325 -58 -276 -109 -413 -161 -435
-59 -24 -80 -72 -55 -124 21 -45 13 -82 -29 -138 -49 -64 -58 -86 -59 -139 -1
-36 6 -57 28 -90 15 -24 23 -45 17 -47 -5 -1 -20 -12 -33 -22 -12 -11 -45 -27
-74 -36 -51 -16 -53 -16 -74 5 -44 44 -110 13 -216 -104 -106 -117 -195 -160
-251 -121 -48 34 -153 28 -246 -14 -27 -12 -53 -16 -79 -13 -46 7 -120 -11
-169 -41 -19 -11 -72 -53 -117 -92 -96 -86 -132 -106 -244 -134 -113 -29 -160
-58 -209 -130 -47 -69 -44 -67 -115 -85 -97 -26 -125 -59 -95 -115 9 -17 5
-22 -27 -38 -47 -24 -148 -42 -239 -42 -76 -1 -90 -8 -120 -60 -11 -19 -46
-52 -79 -75 -99 -67 -128 -133 -84 -189 28 -36 16 -84 -26 -105 -80 -40 -147
-91 -216 -164 l-77 -80 -80 6 c-84 5 -114 16 -192 72 -42 29 -46 29 -204 35
-104 4 -170 11 -185 20 -14 7 -58 45 -99 84 -40 39 -83 75 -95 79 -12 5 -58
12 -101 17 -82 10 -116 28 -116 61 0 10 10 48 21 84 20 61 21 66 5 90 -14 21
-24 25 -64 25 -73 1 -132 18 -169 50 -28 25 -42 30 -88 30 -29 0 -76 -5 -103
-11 -45 -11 -53 -10 -80 10 -17 11 -44 21 -61 21 -25 0 -36 -8 -56 -39 -31
-46 -54 -57 -141 -71 -82 -13 -119 -32 -139 -70 -19 -37 -19 -51 1 -94 17 -34
17 -35 -16 -76 -35 -44 -59 -100 -60 -137 0 -35 -38 -29 -109 18 -71 49 -129
59 -213 38 -108 -26 -186 -7 -254 62 -52 53 -90 63 -129 33 -15 -11 -34 -13
-82 -8 -49 5 -67 3 -92 -12 -34 -20 -57 -61 -66 -117 l-6 -37 -37 25 c-20 14
-47 25 -60 25 -33 0 -59 16 -103 62 -37 39 -39 40 -91 35 -29 -3 -71 -10 -93
-17 -24 -8 -56 -10 -77 -6 -45 8 -126 79 -162 139 -14 24 -44 61 -67 81 -38
35 -45 38 -86 33 -57 -6 -103 -47 -103 -92 0 -38 16 -55 52 -55 24 0 30 5 34
30 11 54 52 38 99 -40 38 -62 104 -129 154 -154 60 -32 120 -36 183 -15 75 25
79 24 114 -12 31 -33 96 -68 128 -69 11 0 35 -12 55 -27 44 -34 96 -36 122 -5
10 13 21 47 24 77 9 67 30 90 69 75 39 -15 84 -12 114 6 26 15 28 14 72 -28
76 -73 184 -94 309 -62 71 18 88 14 157 -33 67 -45 123 -58 168 -39 41 17 56
42 56 94 0 31 8 48 39 84 50 57 58 86 35 133 -24 52 -12 68 67 81 99 16 136
32 168 72 l30 36 34 -19 c26 -14 45 -16 83 -11 147 20 141 21 178 -12 34 -30
105 -52 166 -52 33 0 37 -12 15 -50 -22 -38 -19 -107 6 -141 27 -39 64 -57
130 -64 110 -12 112 -13 199 -94 102 -96 118 -102 322 -110 l146 -6 42 -34
c46 -37 95 -55 182 -65 96 -12 131 4 228 102 60 61 106 98 156 124 92 48 106
66 112 134 4 46 1 59 -17 78 -19 20 -20 27 -10 48 6 14 29 36 51 49 66 40 100
71 114 106 l14 33 74 0 c89 0 201 22 257 50 49 26 66 57 51 99 l-11 31 67 20
c80 23 87 29 139 100 58 80 47 74 238 129 72 21 126 56 239 156 85 74 117 88
205 91 50 2 91 9 121 23 66 29 144 37 173 18 92 -60 230 -6 343 133 31 39 70
78 85 86 26 13 30 13 49 -6 27 -27 68 -25 143 4 34 14 83 28 108 31 41 6 47 4
61 -18 9 -13 22 -44 28 -68 14 -54 42 -86 95 -109 59 -26 72 -46 77 -117 3
-46 10 -69 25 -85 12 -13 24 -41 28 -63 4 -22 15 -54 25 -71 11 -20 17 -51 17
-82 -1 -35 5 -57 16 -70 16 -17 16 -20 2 -32 -26 -22 -18 -58 24 -99 21 -21
51 -57 66 -80 28 -41 28 -42 17 -129 -21 -162 -19 -210 8 -240 11 -12 20 -32
20 -46 0 -43 32 -180 50 -216 10 -19 27 -44 39 -54 27 -24 26 -33 -4 -90 -14
-26 -25 -54 -25 -62 0 -8 16 -37 35 -65 19 -28 35 -62 35 -75 0 -38 25 -88 54
-111 23 -19 25 -24 16 -49 -17 -44 -2 -97 46 -171 24 -36 42 -68 41 -69 -2 -2
-39 8 -82 21 -96 30 -134 31 -161 6 -18 -16 -24 -17 -45 -5 -39 21 -73 16
-115 -17 -22 -18 -82 -52 -134 -77 -152 -73 -550 -283 -557 -294 -3 -6 -11
-30 -17 -53 -9 -36 -27 -58 -101 -126 -49 -45 -126 -109 -170 -142 -95 -70
-284 -228 -375 -313 -36 -33 -96 -86 -134 -118 -75 -63 -60 -60 -188 -41 -46
7 -47 7 -97 -43 -47 -47 -81 -118 -66 -142 3 -5 9 -29 14 -54 l8 -46 -70 -45
c-39 -25 -93 -52 -120 -60 -44 -13 -57 -13 -120 1 -87 20 -143 44 -204 85 -47
33 -153 81 -274 125 -37 13 -92 40 -124 58 -31 19 -70 38 -86 41 -17 4 -70 30
-118 59 -49 29 -124 67 -167 86 -44 18 -160 71 -259 118 l-179 86 -90 -2 c-81
-1 -96 -4 -151 -34 -59 -32 -63 -33 -185 -33 -122 0 -127 -1 -193 -33 -45 -23
-75 -45 -90 -68 -12 -18 -26 -34 -31 -34 -4 0 -31 21 -59 46 -28 25 -85 63
-127 84 -68 34 -85 38 -185 44 l-110 7 -85 -68 c-104 -83 -135 -88 -221 -34
-122 79 -144 86 -269 89 -107 3 -117 5 -125 25 -6 12 -21 27 -35 34 -35 18
-164 16 -230 -2 -103 -29 -121 -29 -190 0 -59 25 -68 26 -119 16 -59 -12 -122
-45 -177 -93 -46 -41 -55 -59 -64 -135 -5 -36 -10 -67 -13 -70 -3 -2 -22 0
-44 6 -21 6 -65 11 -98 11 -74 -1 -137 -25 -281 -110 -147 -88 -213 -110 -354
-119 -63 -4 -125 -13 -138 -20 -12 -6 -33 -29 -47 -51 -30 -47 -44 -55 -114
-64 -86 -11 -107 -27 -120 -88 -13 -60 -26 -78 -54 -78 -34 0 -56 -29 -78
-102 -27 -93 -38 -88 -91 41 -34 84 -112 131 -169 101 -17 -10 -19 -7 -19 25
0 65 27 108 110 173 23 19 25 25 25 133 1 80 5 122 15 140 8 15 38 68 65 119
28 51 69 115 92 141 50 58 57 80 51 157 -4 48 -37 134 -85 223 -2 4 11 9 29
13 62 12 95 41 132 118 20 40 50 99 67 130 28 50 32 70 37 151 4 80 2 98 -16
133 -11 22 -23 58 -27 79 -4 22 -23 70 -43 107 -31 58 -34 70 -24 92 6 14 29
34 52 46 22 11 40 24 40 28 0 5 17 37 39 73 21 35 44 89 50 120 8 36 30 85 61
135 53 83 53 83 50 187 -2 87 32 195 67 208 31 12 29 37 -3 50 -27 10 -27 10
-20 91 4 45 12 102 17 127 18 76 13 220 -10 307 -11 44 -30 121 -42 171 -12
54 -31 108 -46 130 -14 21 -41 76 -60 123 -42 102 -41 123 12 270 33 90 38
116 37 185 0 44 4 101 9 128 5 31 5 64 -3 95 -9 42 -8 54 11 96 29 66 27 82
-19 159 -29 48 -40 77 -40 107 0 24 -11 62 -26 93 -25 48 -26 58 -21 157 3 77
12 127 32 187 l27 82 32 -24 c59 -45 141 -52 210 -18 26 13 30 13 47 -4 10
-10 41 -58 70 -108 60 -106 122 -183 157 -196 30 -12 82 3 107 31 29 32 59 24
122 -31 74 -65 103 -80 158 -81 53 -1 71 12 92 64 13 33 18 37 39 32 38 -10
74 4 84 32 7 17 5 49 -6 104 -24 119 -18 137 108 293 20 25 23 40 23 129 0
137 1 138 181 138 145 0 175 7 239 55 l34 27 34 -21 c45 -28 69 -26 134 6 37
19 58 25 67 18 70 -52 63 -50 135 -32 90 23 112 22 194 -14 55 -25 77 -29 96
-23 25 9 26 13 27 92 2 75 4 85 31 115 48 55 58 90 45 156 -11 52 -10 64 14
137 14 43 37 103 50 132 25 55 30 118 15 184 -5 23 -5 55 1 80 12 56 7 71 -53
164 -70 106 -219 255 -281 278 -53 21 -79 17 -130 -18 l-36 -24 -48 28 c-56
32 -110 83 -119 110 -3 11 7 50 24 89 16 39 35 96 40 128 12 63 26 86 37 60
11 -31 66 -21 104 18 37 38 44 79 26 156 -8 35 -7 36 38 53 49 19 66 39 66 78
0 13 13 45 30 71 16 26 39 65 50 87 17 33 26 40 50 40 33 0 142 84 169 131 11
20 21 27 31 22 34 -15 149 -15 207 0 94 25 226 92 264 134 31 36 36 38 92 38
56 0 61 2 92 38 18 20 40 61 49 90 15 48 15 57 1 112 -9 33 -28 80 -42 105
-66 113 -103 191 -127 265 -14 44 -26 82 -26 86 0 4 10 9 22 13 16 4 31 -3 53
-23 16 -16 44 -32 61 -36 34 -7 95 13 126 42 17 16 22 16 66 0 63 -23 90 -21
148 8 27 14 56 25 66 25 9 0 40 -19 70 -43 105 -86 200 -90 301 -13 19 15 45
26 59 26 40 0 122 -28 159 -55 59 -43 121 -71 247 -115 133 -46 189 -80 224
-135 30 -44 50 -53 154 -65 47 -5 112 -14 144 -21 51 -10 66 -9 133 11 91 27
112 22 237 -55 166 -103 339 -175 421 -175 22 0 63 12 94 27 l56 27 50 -17
c55 -20 84 -16 99 14 14 26 38 24 83 -7 97 -65 191 -83 240 -44 30 24 60 25
118 5 24 -9 56 -13 71 -10 27 6 32 15 40 69 2 11 21 29 43 41 32 17 49 38 82
101 22 43 42 87 42 98 1 10 16 35 35 56 30 34 33 42 29 81 -4 37 0 50 23 79
15 20 47 50 71 68 58 44 77 83 76 155 -1 64 -1 64 72 46 57 -14 85 -7 110 30
10 16 41 40 67 52 27 13 77 51 112 85 70 69 59 65 225 72 l43 2 -6 -32z"/>
</g>
</svg>
