<svg width="614" height="746" viewBox="0 0 614 746" fill="none" xmlns="http://www.w3.org/2000/svg">
<mask id="path-1-inside-1_55825_4512" fill="white">
<path d="M249.511 0C257.136 1.75744 257.136 1.75744 262.166 8.47336C267.164 18.2648 268.958 26.4557 270.528 37.2828C271.297 42.304 271.297 42.304 272.066 47.4194C272.61 51.2481 272.61 51.2481 273.155 55.1082C275.91 52.5348 278.697 49.9301 281.549 47.2625C289.718 40.4838 291.929 39.4482 303.174 38.4439C305.961 38.7578 308.716 39.103 311.6 39.4168C311.44 36.4354 311.311 33.4541 311.183 30.4099C311.6 20.5871 311.6 20.5871 318.007 14.3106C327.586 11.7372 336.909 10.7015 346.841 11.1723C355.043 16.884 355.043 16.884 359.656 23.7254C359.656 25.7967 359.656 27.8679 359.656 30.002C362.155 29.3743 364.654 28.7153 367.249 28.0562C371.414 27.46 371.414 27.46 375.675 26.8637C389.419 40.3583 388.49 55.9242 388.49 73.9379C390.476 80.2458 392.622 86.5538 394.897 92.7676C394.737 96.4708 394.609 100.143 394.481 103.94C396.915 115.363 396.915 115.363 406.719 119.506C416.554 123.46 426.486 126.975 436.546 130.427C437.603 131.463 438.628 132.498 439.749 133.565C447.182 134.726 454.679 135.762 462.175 136.704C462.24 126.787 462.304 116.838 462.368 106.89C462.4 104.128 462.4 101.335 462.432 98.4793C462.496 81.5953 461.471 65.5273 458.972 48.8317C471.274 39.7934 479.604 38.695 494.405 39.2913C502.126 39.4482 509.142 38.1301 516.639 36.2785C534.964 52.9114 534.964 52.9114 537.111 65.9981C537.047 72.9337 536.694 79.6182 535.861 86.491C538.649 86.2713 541.436 86.0203 544.319 85.8006C557.391 86.6479 562.997 90.2883 573.473 97.883C576.517 99.9856 579.528 102.088 582.636 104.285C591.382 112.633 593.401 119.098 596.732 130.427C603.172 134.005 603.172 134.005 609.547 136.704C615.41 148.221 612.975 162.312 609.547 174.363C604.806 182.46 599.552 189.05 593.529 196.331C581.771 195.327 577.606 193.287 568.668 185.347C556.942 174.896 544.704 174.991 529.454 174.363C528.365 183.527 527.468 192.659 526.635 201.823C526.154 205.714 526.154 205.714 525.674 209.669C525.065 217.169 524.744 223.477 526.25 230.852C535.093 238.635 535.093 238.635 545.473 243.405C552.425 253.636 553.258 256.649 551.88 268.511C548.228 274.976 548.228 274.976 543.262 281.064C540.635 284.297 540.635 284.297 537.944 287.592C529.39 297.321 521.06 306.579 509.943 313.483C502.062 320.23 501.934 324.373 500.813 334.415C498.218 349.291 498.218 349.291 490.4 356.979C478.931 360.212 470.505 358.831 458.972 356.383C458.812 360.024 458.683 363.633 458.555 367.367C455.48 391.093 437.987 406.156 419.822 420.53C411.364 427.779 404.412 436.19 397.14 444.6C392.046 450.155 386.824 454.737 380.865 459.382C371.734 465.595 371.734 465.595 369.267 475.638C371.446 476.83 373.656 477.992 375.931 479.216C378.814 480.816 381.698 482.417 384.677 484.08C388.97 486.434 388.97 486.434 393.327 488.819C402.234 495.158 406.142 500.524 410.916 510.159C411.3 513.454 411.685 516.781 412.101 520.17C412.774 523.089 413.415 526.007 414.119 528.989C421.808 532.911 421.808 532.911 430.138 535.265C436.546 544.68 436.546 544.68 436.321 552.526C431.932 568.562 424.66 583.124 417.323 598.031C420.559 597.843 423.795 597.654 427.127 597.466C444.235 598.251 455.928 603.491 470.185 612.561C477.682 624.236 474.382 635.157 471.787 648.243C474.286 648.714 476.785 649.153 479.38 649.624C489.311 655.399 489.856 657.658 492.803 668.266C494.597 675.578 494.597 675.578 494.213 682.764C489.087 690.077 489.087 690.077 481.398 695.318C472.043 695.506 472.043 695.506 461.951 693.56C458.619 692.964 455.287 692.399 451.827 691.771C442.729 688.978 439.237 686.75 433.342 679.626C431.868 678.214 430.426 676.77 428.921 675.327C427.191 673.632 425.493 671.969 423.731 670.211C421.007 667.638 418.284 665.033 415.497 662.366C407.68 654.52 407.68 654.52 401.305 645.105C399.478 646.172 397.684 647.239 395.826 648.337C387.208 651.915 382.434 651.539 373.24 650.22C370.709 649.875 368.146 649.53 365.487 649.153C362.603 648.714 362.603 648.714 359.656 648.243C358.983 650.785 358.31 653.296 357.638 655.901C356.196 658.568 354.722 661.204 353.248 663.935C350.205 664.405 347.161 664.845 344.022 665.316C333.129 666.069 333.129 666.069 327.202 676.111C325.216 679.344 323.229 682.576 321.211 685.903C312.945 693.999 309.806 695.255 297.952 695.914C295.069 695.726 292.153 695.537 289.174 695.318C287.636 698.362 286.13 701.406 284.56 704.544C279.562 714.147 279.562 714.147 276.359 717.286C261.942 717.693 250.761 716.783 239.516 707.682C233.333 695.851 232.403 686.593 231.506 673.35C230.193 674.919 228.911 676.488 227.598 678.088C221.895 682.764 221.895 682.764 214.975 683.141C212.508 682.89 210.009 682.639 207.478 682.388C195.625 681.76 195.625 681.76 186.43 688.853C183.546 698.111 183.45 703.163 184.027 712.578C184.54 725.194 184.54 725.194 179.638 731.91C171.308 738.908 162.53 745.875 151.413 745.53C140.04 739.881 129.948 733.636 119.376 726.7C117.742 727.893 116.108 729.054 114.442 730.247C96.3086 742.455 96.3086 742.455 82.917 742.203C74.5232 739.254 74.5232 739.253 68.1158 732.977C67.7633 729.682 67.443 726.387 67.0906 722.997C64.9761 711.417 63.7266 708.624 56.6784 700.025C50.2709 691.834 48.8293 688.759 46.875 678.057C49.1496 665.629 53.2824 660.263 61.1636 650.66C66.8983 642.155 66.9304 633.117 68.1158 623.137C71.3195 619.999 74.5232 616.861 77.727 613.722C80.5142 605.5 82.2763 597.121 84.1345 588.616C84.7432 586.451 85.3519 584.285 85.9926 582.026C87.8508 575.78 87.8508 575.78 85.5121 568.405C83.782 558.426 85.8645 553.593 90.5419 544.68C96.9494 538.403 96.9494 538.404 108.547 538.027C112.103 538.152 115.691 538.278 119.376 538.404C120.176 528.267 119.536 519.825 116.172 510.159C104.799 498.202 91.1186 489.446 77.1183 480.659C67.2507 474.351 62.2209 470.679 57.8958 459.758C58.5045 450.532 58.5045 450.532 63.3102 443.094C73.8505 436.347 81.3792 437.068 93.7457 437.979C93.7457 434.872 93.7457 431.765 93.7457 428.564C78.56 422.695 78.5599 422.695 63.3102 425.614C55.3008 428.564 55.3008 428.564 44.0877 424.453C40.3714 422.695 36.655 420.969 32.8746 419.149C23.9682 416.983 23.9682 416.983 16.8559 416.011C9.80772 398.656 6.57196 384.408 7.30882 365.767C7.21271 357.513 4.00896 351.425 0.837258 343.83C-0.636461 332.156 -0.540333 321.862 4.23324 310.878C10.4485 306.171 10.4485 306.171 21.6616 306.359C27.204 306.265 27.204 306.265 32.8746 306.171C38.9617 299.361 41.6209 292.927 44.6003 284.391C50.4952 267.633 57.4473 254.891 74.5232 246.543C82.6607 245.822 90.7662 245.225 98.9357 244.786C101.21 244.66 103.453 244.503 105.792 244.378C111.398 244.033 116.973 243.719 122.579 243.405C122.259 241.491 121.939 239.545 121.65 237.568C121.298 235.026 120.913 232.484 120.561 229.879C120.176 227.368 119.824 224.858 119.44 222.253C119.376 215.161 119.376 215.161 125.783 205.746C131.998 204.145 131.998 204.145 138.982 203.612C143.083 203.266 147.184 202.953 151.413 202.607C149.939 196.519 148.465 190.462 146.992 184.374C146.159 180.985 145.358 177.595 144.525 174.112C142.154 164.477 142.154 164.477 135.394 155.533C133.985 147.876 133.985 147.876 135.394 139.842C142.795 133.189 142.795 133.189 151.413 127.289C157.084 122.519 157.084 122.518 161.024 117.874C161.024 115.803 161.024 113.731 161.024 111.597C159.102 110.499 157.18 109.4 155.193 108.271C144.397 98.9186 141.385 87.5894 138.598 73.9379C138.95 62.797 139.303 55.5162 145.774 46.2896C160.383 36.5924 172.397 35.6509 189.858 36.2785C202.192 37.5966 202.192 37.5966 208.247 31.9163C210.041 30.002 211.835 28.0562 213.662 26.0791C216.577 23.0977 216.577 23.0977 219.524 20.0536C221.383 18.1393 223.209 16.2563 225.099 14.3106C233.525 6.65316 238.266 2.35371 249.511 0Z"/>
</mask>
<path d="M249.511 0C257.136 1.75744 257.136 1.75744 262.166 8.47336C267.164 18.2648 268.958 26.4557 270.528 37.2828C271.297 42.304 271.297 42.304 272.066 47.4194C272.61 51.2481 272.61 51.2481 273.155 55.1082C275.91 52.5348 278.697 49.9301 281.549 47.2625C289.718 40.4838 291.929 39.4482 303.174 38.4439C305.961 38.7578 308.716 39.103 311.6 39.4168C311.44 36.4354 311.311 33.4541 311.183 30.4099C311.6 20.5871 311.6 20.5871 318.007 14.3106C327.586 11.7372 336.909 10.7015 346.841 11.1723C355.043 16.884 355.043 16.884 359.656 23.7254C359.656 25.7967 359.656 27.8679 359.656 30.002C362.155 29.3743 364.654 28.7153 367.249 28.0562C371.414 27.46 371.414 27.46 375.675 26.8637C389.419 40.3583 388.49 55.9242 388.49 73.9379C390.476 80.2458 392.622 86.5538 394.897 92.7676C394.737 96.4708 394.609 100.143 394.481 103.94C396.915 115.363 396.915 115.363 406.719 119.506C416.554 123.46 426.486 126.975 436.546 130.427C437.603 131.463 438.628 132.498 439.749 133.565C447.182 134.726 454.679 135.762 462.175 136.704C462.24 126.787 462.304 116.838 462.368 106.89C462.4 104.128 462.4 101.335 462.432 98.4793C462.496 81.5953 461.471 65.5273 458.972 48.8317C471.274 39.7934 479.604 38.695 494.405 39.2913C502.126 39.4482 509.142 38.1301 516.639 36.2785C534.964 52.9114 534.964 52.9114 537.111 65.9981C537.047 72.9337 536.694 79.6182 535.861 86.491C538.649 86.2713 541.436 86.0203 544.319 85.8006C557.391 86.6479 562.997 90.2883 573.473 97.883C576.517 99.9856 579.528 102.088 582.636 104.285C591.382 112.633 593.401 119.098 596.732 130.427C603.172 134.005 603.172 134.005 609.547 136.704C615.41 148.221 612.975 162.312 609.547 174.363C604.806 182.46 599.552 189.05 593.529 196.331C581.771 195.327 577.606 193.287 568.668 185.347C556.942 174.896 544.704 174.991 529.454 174.363C528.365 183.527 527.468 192.659 526.635 201.823C526.154 205.714 526.154 205.714 525.674 209.669C525.065 217.169 524.744 223.477 526.25 230.852C535.093 238.635 535.093 238.635 545.473 243.405C552.425 253.636 553.258 256.649 551.88 268.511C548.228 274.976 548.228 274.976 543.262 281.064C540.635 284.297 540.635 284.297 537.944 287.592C529.39 297.321 521.06 306.579 509.943 313.483C502.062 320.23 501.934 324.373 500.813 334.415C498.218 349.291 498.218 349.291 490.4 356.979C478.931 360.212 470.505 358.831 458.972 356.383C458.812 360.024 458.683 363.633 458.555 367.367C455.48 391.093 437.987 406.156 419.822 420.53C411.364 427.779 404.412 436.19 397.14 444.6C392.046 450.155 386.824 454.737 380.865 459.382C371.734 465.595 371.734 465.595 369.267 475.638C371.446 476.83 373.656 477.992 375.931 479.216C378.814 480.816 381.698 482.417 384.677 484.08C388.97 486.434 388.97 486.434 393.327 488.819C402.234 495.158 406.142 500.524 410.916 510.159C411.3 513.454 411.685 516.781 412.101 520.17C412.774 523.089 413.415 526.007 414.119 528.989C421.808 532.911 421.808 532.911 430.138 535.265C436.546 544.68 436.546 544.68 436.321 552.526C431.932 568.562 424.66 583.124 417.323 598.031C420.559 597.843 423.795 597.654 427.127 597.466C444.235 598.251 455.928 603.491 470.185 612.561C477.682 624.236 474.382 635.157 471.787 648.243C474.286 648.714 476.785 649.153 479.38 649.624C489.311 655.399 489.856 657.658 492.803 668.266C494.597 675.578 494.597 675.578 494.213 682.764C489.087 690.077 489.087 690.077 481.398 695.318C472.043 695.506 472.043 695.506 461.951 693.56C458.619 692.964 455.287 692.399 451.827 691.771C442.729 688.978 439.237 686.75 433.342 679.626C431.868 678.214 430.426 676.77 428.921 675.327C427.191 673.632 425.493 671.969 423.731 670.211C421.007 667.638 418.284 665.033 415.497 662.366C407.68 654.52 407.68 654.52 401.305 645.105C399.478 646.172 397.684 647.239 395.826 648.337C387.208 651.915 382.434 651.539 373.24 650.22C370.709 649.875 368.146 649.53 365.487 649.153C362.603 648.714 362.603 648.714 359.656 648.243C358.983 650.785 358.31 653.296 357.638 655.901C356.196 658.568 354.722 661.204 353.248 663.935C350.205 664.405 347.161 664.845 344.022 665.316C333.129 666.069 333.129 666.069 327.202 676.111C325.216 679.344 323.229 682.576 321.211 685.903C312.945 693.999 309.806 695.255 297.952 695.914C295.069 695.726 292.153 695.537 289.174 695.318C287.636 698.362 286.13 701.406 284.56 704.544C279.562 714.147 279.562 714.147 276.359 717.286C261.942 717.693 250.761 716.783 239.516 707.682C233.333 695.851 232.403 686.593 231.506 673.35C230.193 674.919 228.911 676.488 227.598 678.088C221.895 682.764 221.895 682.764 214.975 683.141C212.508 682.89 210.009 682.639 207.478 682.388C195.625 681.76 195.625 681.76 186.43 688.853C183.546 698.111 183.45 703.163 184.027 712.578C184.54 725.194 184.54 725.194 179.638 731.91C171.308 738.908 162.53 745.875 151.413 745.53C140.04 739.881 129.948 733.636 119.376 726.7C117.742 727.893 116.108 729.054 114.442 730.247C96.3086 742.455 96.3086 742.455 82.917 742.203C74.5232 739.254 74.5232 739.253 68.1158 732.977C67.7633 729.682 67.443 726.387 67.0906 722.997C64.9761 711.417 63.7266 708.624 56.6784 700.025C50.2709 691.834 48.8293 688.759 46.875 678.057C49.1496 665.629 53.2824 660.263 61.1636 650.66C66.8983 642.155 66.9304 633.117 68.1158 623.137C71.3195 619.999 74.5232 616.861 77.727 613.722C80.5142 605.5 82.2763 597.121 84.1345 588.616C84.7432 586.451 85.3519 584.285 85.9926 582.026C87.8508 575.78 87.8508 575.78 85.5121 568.405C83.782 558.426 85.8645 553.593 90.5419 544.68C96.9494 538.403 96.9494 538.404 108.547 538.027C112.103 538.152 115.691 538.278 119.376 538.404C120.176 528.267 119.536 519.825 116.172 510.159C104.799 498.202 91.1186 489.446 77.1183 480.659C67.2507 474.351 62.2209 470.679 57.8958 459.758C58.5045 450.532 58.5045 450.532 63.3102 443.094C73.8505 436.347 81.3792 437.068 93.7457 437.979C93.7457 434.872 93.7457 431.765 93.7457 428.564C78.56 422.695 78.5599 422.695 63.3102 425.614C55.3008 428.564 55.3008 428.564 44.0877 424.453C40.3714 422.695 36.655 420.969 32.8746 419.149C23.9682 416.983 23.9682 416.983 16.8559 416.011C9.80772 398.656 6.57196 384.408 7.30882 365.767C7.21271 357.513 4.00896 351.425 0.837258 343.83C-0.636461 332.156 -0.540333 321.862 4.23324 310.878C10.4485 306.171 10.4485 306.171 21.6616 306.359C27.204 306.265 27.204 306.265 32.8746 306.171C38.9617 299.361 41.6209 292.927 44.6003 284.391C50.4952 267.633 57.4473 254.891 74.5232 246.543C82.6607 245.822 90.7662 245.225 98.9357 244.786C101.21 244.66 103.453 244.503 105.792 244.378C111.398 244.033 116.973 243.719 122.579 243.405C122.259 241.491 121.939 239.545 121.65 237.568C121.298 235.026 120.913 232.484 120.561 229.879C120.176 227.368 119.824 224.858 119.44 222.253C119.376 215.161 119.376 215.161 125.783 205.746C131.998 204.145 131.998 204.145 138.982 203.612C143.083 203.266 147.184 202.953 151.413 202.607C149.939 196.519 148.465 190.462 146.992 184.374C146.159 180.985 145.358 177.595 144.525 174.112C142.154 164.477 142.154 164.477 135.394 155.533C133.985 147.876 133.985 147.876 135.394 139.842C142.795 133.189 142.795 133.189 151.413 127.289C157.084 122.519 157.084 122.518 161.024 117.874C161.024 115.803 161.024 113.731 161.024 111.597C159.102 110.499 157.18 109.4 155.193 108.271C144.397 98.9186 141.385 87.5894 138.598 73.9379C138.95 62.797 139.303 55.5162 145.774 46.2896C160.383 36.5924 172.397 35.6509 189.858 36.2785C202.192 37.5966 202.192 37.5966 208.247 31.9163C210.041 30.002 211.835 28.0562 213.662 26.0791C216.577 23.0977 216.577 23.0977 219.524 20.0536C221.383 18.1393 223.209 16.2563 225.099 14.3106C233.525 6.65316 238.266 2.35371 249.511 0Z" fill="#6BC3D6" stroke="black" stroke-width="30" mask="url(#path-1-inside-1_55825_4512)"/>
</svg>
