<svg width="479" height="551" viewBox="0 0 479 551" fill="none" xmlns="http://www.w3.org/2000/svg">
<path d="M139.268 41.4317C140.785 39.7411 142.194 38.1733 143.596 36.7322C147.03 33.7422 149.005 32.09 151.051 30.9552C152.735 30.0215 154.685 29.3327 157.93 29.0042C159.859 29.2685 161.157 29.4491 162.446 29.6755C164.945 30.1144 167.415 30.7256 174.399 32.4522L181.124 34.1144L183.314 27.543L185.409 21.2587C190.102 19.5334 194.438 19.6451 201.273 19.9489L202.36 21.0354L204.154 22.829L206.668 23.1657C217.338 24.5948 227.985 25.767 238.649 26.84C248.716 27.9685 253.959 28.8429 261.056 33.1385C261.686 35.2622 262.151 36.8838 262.486 38.228C262.948 40.0805 263.037 40.9373 263.037 41.4068C263.037 42.0457 263.014 42.4336 260.737 46.9885L252.897 62.6682L269.652 57.5107L270.37 57.2897C278.528 54.7793 283.554 53.2325 288.141 50.8528C292.746 48.4638 296.8 45.2919 303.33 40.183L303.908 39.7313L304.161 39.533L304.397 39.3137C307.743 36.1986 308.106 36.0149 308.419 35.8889C308.519 35.849 308.853 35.7267 309.921 35.5963C310.753 35.4947 311.776 35.4144 313.211 35.3175C322.755 39.4692 326.508 45.73 333.358 57.3079L339.075 66.9722L345.813 57.989C347.664 55.5205 349.513 53.0258 351.386 50.4777C354.959 46.3041 355.944 45.252 356.959 44.5554C357.755 44.0094 358.684 43.602 361.791 42.5398C364.568 43.5133 366.147 44.0818 367.7 44.7136C369.435 45.4192 371.138 46.2038 374.442 47.72L381.182 50.813L384.351 44.1076C384.89 42.9665 385.477 41.7425 386.078 40.4886C386.795 38.993 387.532 37.4549 388.234 35.9642C392.598 29.6199 398.874 25.5627 406.677 22.4903C412.807 20.0764 419.267 18.4719 426.157 16.7607C428.485 16.1825 430.862 15.5921 433.291 14.9543C436.085 14.3898 437.097 14.1968 438.477 14.074C439.757 13.9601 441.339 13.9088 444.487 13.8416C446.768 15.5536 447.827 16.8198 448.589 18.0793C449.683 19.8883 450.445 22.0833 451.955 26.623C452.329 32.3972 452.621 38.1811 452.858 43.9781L452.863 44.1045L452.873 44.2306C453.489 52.4898 454.512 59.1875 457.142 65.5442C459.641 71.5815 463.378 76.8102 468.617 82.6635C470.189 86.7316 470.662 88.1326 470.885 89.6952C471.128 91.3947 471.089 93.394 470.844 98.6247C466.17 107.206 460.966 115.408 455.542 123.957L455.309 124.324L455.159 124.56L455.028 124.806C447.293 139.274 445.094 152.512 443.398 167.479C442.928 171.531 442.744 173.028 442.356 174.683C441.946 176.431 441.298 178.401 439.676 183.267L439.389 184.128L439.315 185.033C438.129 199.678 439.651 211.077 444.643 224.741C446.305 229.418 447.465 232.687 448.244 235.25C449.026 237.819 449.269 239.199 449.312 240.116C449.374 241.435 449.159 242.355 447.091 246.823C441.512 250.963 439.453 252.399 437.866 253.079C436.779 253.545 436.063 253.652 431.059 253.652H423.983L423.571 260.716C423.393 263.785 423.216 266.824 423.012 269.937C421.496 276.935 419.292 282.095 416.221 286.529C413.035 291.129 408.661 295.32 402.34 300.045L401.756 300.481L401.268 301.022C401.103 301.204 400.935 301.389 400.762 301.578C398.77 303.762 396.315 306.453 395.313 310.101C394.763 312.099 394.713 314.022 394.78 315.753C394.843 317.387 395.04 319.334 395.259 321.488L395.279 321.69L395.304 321.935L395.345 322.178C395.754 324.613 396.146 327.047 396.549 329.546C396.726 330.651 396.906 331.768 397.091 332.904C397.87 338.201 397.875 338.232 398.689 343.65L398.691 343.665L398.769 344.184L398.919 344.687C401.438 353.164 405.108 359.324 410.106 364.528C413.734 368.304 417.976 371.469 422.505 374.567L421.687 377.839C414.696 379.834 413.305 380.232 403.824 382.945L398.264 384.535L398.389 390.317L398.392 390.47C398.482 394.642 398.485 394.739 398.575 399.005C398.478 404.129 398.422 405.962 398.125 407.693C397.827 409.436 397.268 411.175 395.626 416.101L395.07 417.768L395.313 419.508C395.969 424.221 396.699 428.95 397.554 433.685C397.113 433.958 396.671 434.233 396.227 434.51L395.741 434.812L395.306 435.186C385.839 443.316 381.903 451.905 377.611 461.306C377.557 461.358 377.508 461.404 377.464 461.447C376.881 461.508 376.09 461.554 374.747 461.627C371.619 461.581 368.488 461.528 365.348 461.474C362.124 461.419 358.89 461.364 355.655 461.316L350.662 461.243L348.669 465.821L348.661 465.838C347.87 467.654 347.063 469.509 346.252 471.423C344.424 474.672 343.999 475.301 343.282 476.006C342.387 476.886 341.034 477.853 337.255 480.383C334.898 480.583 332.512 480.787 330.065 481.012L329.527 481.062L329.001 481.188C315.107 484.522 309.038 492.458 302.873 500.519C302.137 501.481 301.4 502.445 300.648 503.403C297.233 504.589 294.837 504.997 292.583 505.032C289.77 505.076 286.69 504.556 281.499 503.38L281.058 503.28L280.609 503.234C278.335 503 277.193 502.883 276.051 502.763C274.894 502.64 273.736 502.515 271.398 502.263L268.291 501.927L265.865 503.896L265.55 504.151C262.341 506.756 260.304 508.409 258.453 510.26C256.899 511.814 255.506 513.477 253.6 515.826C239.618 519.925 225.106 518.624 209.018 516.092L208.914 516.075L208.81 516.062C206.848 515.809 204.853 515.565 202.862 515.32C201.622 515.168 200.383 515.016 199.154 514.863L195.515 514.408L192.921 517.001L188.929 520.993C183.606 520.693 178.417 519.812 172.646 518.832C171.131 518.575 169.575 518.311 167.966 518.049L162.499 517.158L160.04 522.121C159.149 523.919 158.267 525.723 157.387 527.521C156.537 529.259 155.689 530.993 154.821 532.745C152.369 537.032 151.313 538.742 150.052 540.029C149.11 540.991 147.788 541.963 144.685 543.418C143.689 543.365 142.953 543.317 142.342 543.256C141.469 543.169 141.203 543.084 141.136 543.061C140.93 542.992 140.688 542.904 138.441 541.23C137.977 540.616 137.513 540.001 137.046 539.383C138.139 534.235 139.265 529.195 140.57 524.201L140.615 524.029L140.651 523.856C143.332 511.172 144.557 498.68 145.536 486.178L145.593 485.591C145.793 483.534 145.991 481.498 146.213 479.439L146.23 479.287L146.24 479.134C146.855 469.964 146.092 462.636 143.51 455.619C141.213 449.374 137.621 443.802 133.176 437.771C132.889 433.836 132.767 431.885 132.767 430.162C132.767 428.231 132.92 426.554 133.323 422.332L134.028 414.938L126.642 414.161C126.042 414.098 125.441 414.034 124.839 413.971C123.269 413.805 121.688 413.638 120.072 413.471C115.683 412.197 113.693 411.06 112.23 409.784C110.487 408.264 108.937 406.099 105.927 401.433C96.1456 383.753 96.8695 366.947 101.464 345.725C104.23 341.007 105.583 338.714 107.076 336.515C108.477 334.45 110.001 332.469 112.933 328.641L113.836 327.46L114.222 326.025C116.224 318.566 117.61 311.259 118.753 303.837C119.638 300.864 120.539 299.122 121.584 297.715C122.562 296.398 123.866 295.101 126.003 293.318C126.815 293.154 127.628 292.987 128.432 292.823C128.999 292.706 129.562 292.591 130.118 292.478L130.43 292.415L130.735 292.325C142.609 288.845 148.991 281.372 155.09 274.23C155.629 273.599 156.165 272.971 156.704 272.348L157.293 271.665L157.705 270.862C160.613 265.177 162.501 260.537 163.577 255.452C164.634 250.453 164.821 245.402 164.821 239.127V235.114L161.481 232.887L156.797 229.764L152.042 226.594L146.69 223.026L142.348 227.772L141.999 228.153C140.841 229.419 139.637 230.735 138.43 232.076C130.864 238.899 122.574 238.929 109.201 238.866C102.843 238.099 95.4312 236.573 88.5189 234.138C82.604 232.054 77.4441 229.441 73.6087 226.372C73.7137 219.848 74.0332 213.299 74.3826 206.607L74.4128 206.027L74.3536 205.45C73.7892 199.952 72.5736 195.572 70.3466 191.445C68.2242 187.512 65.352 184.158 62.2424 180.657L58.9709 176.975L54.2919 178.514C51.9194 179.294 50.7284 179.686 49.5367 180.076C48.355 180.462 47.1726 180.846 44.8371 181.604C34.5432 184.48 25.5315 185.437 15.0036 184.613C12.1156 182.833 10.813 182.005 9.75451 181.212C9.10584 180.725 8.54043 180.245 7.69757 179.464C7.78506 178.31 7.87632 177.601 8.03083 176.828C8.2695 175.635 8.66506 174.266 9.56578 171.365C12.0191 169.58 14.4939 167.775 17.0286 165.912L17.0871 165.869L17.1447 165.825C20.3895 163.341 23.436 160.918 25.8352 157.752C28.3673 154.411 29.8445 150.723 31.0214 146.122L31.1778 145.511L31.2298 144.882C31.6799 139.45 31.9996 134.039 32.254 128.632C32.6752 119.697 33.8215 111.018 35.3381 101.918L35.3458 101.872L35.3529 101.826C35.4403 101.258 35.5279 100.69 35.6157 100.121C35.9398 98.0186 36.2667 95.8981 36.5935 93.7158C37.6276 90.4276 37.8056 90.2257 38.0037 90.0009C38.0109 89.9927 38.0181 89.9845 38.0254 89.9762C38.2133 89.7603 38.6484 89.3334 39.8381 88.4636C41.0382 87.5863 42.6489 86.5106 45.0636 84.9007L46.7486 83.7774L47.6392 81.9586L47.646 81.9448C49.8638 77.4155 49.8749 77.3927 52.1411 72.7672C54.6266 67.9082 56.1274 65.4764 57.826 63.6041C59.3845 61.8861 61.4145 60.3084 65.3979 57.9213C66.6126 57.5394 67.8246 57.0925 68.8348 56.72L68.9805 56.6663C70.4439 56.1269 71.5577 55.7216 72.5052 55.4558L73.2257 55.2537L73.892 54.9133C86.6363 48.4019 90.9195 39.5916 95.6361 29.8898C96.1378 28.858 96.6443 27.8161 97.1665 26.7658C102.318 16.5424 104.744 11.7349 106.289 9.02967C106.458 8.73476 106.609 8.47463 106.749 8.24216C109.342 8.7659 110.838 9.06536 113.435 9.57968C114.594 14.2655 115.756 19.0252 116.927 23.8254L116.96 23.96C118.528 30.3831 120.113 36.8767 121.724 43.319L124.974 56.3212L134.356 46.75C136.017 45.056 137.655 43.2295 139.174 41.5362L139.268 41.4317Z" fill="#6BC3D6" stroke="black" stroke-width="15"/>
</svg>