<svg width="1714" height="4096" viewBox="0 0 1714 4096" fill="none" xmlns="http://www.w3.org/2000/svg">
<path d="M779.591 449.737C776.465 452.924 773.427 456.023 770.389 459.123L770.359 459.153L760.977 468.725L757.727 455.722L752.972 436.702L749.442 422.581C746.841 422.066 745.344 421.766 742.749 421.242C742.609 421.475 742.458 421.735 742.289 422.03C740.744 424.735 738.318 429.542 733.166 439.766C732.644 440.816 732.138 441.858 731.636 442.89C726.92 452.592 722.636 461.402 709.892 467.913L709.226 468.254L708.505 468.456C706.252 469.088 704.071 469.696 701.904 470.299C698.019 472.64 695.831 474.37 694.116 476.267C692.244 478.337 690.589 480.982 688.141 485.767C685.875 490.393 685.864 490.415 683.646 494.945L683.639 494.959L682.749 496.777L681.064 497.901C678.649 499.511 677.038 500.586 675.838 501.464C674.648 502.333 674.213 502.76 674.025 502.976C674.018 502.985 674.011 502.993 674.004 503.001C673.806 503.226 673.628 503.428 672.593 506.716C672.267 508.899 671.94 511.019 671.615 513.122C671.528 513.691 671.44 514.259 671.353 514.826L671.346 514.872L671.338 514.918C669.822 524.018 668.675 532.696 668.254 541.632L779.591 449.737ZM779.591 449.737C783.028 446.744 785.004 445.091 787.051 443.955C788.735 443.022 790.685 442.333 793.93 442.004C795.859 442.268 797.157 442.449 798.446 442.675C800.945 443.114 803.415 443.726 810.399 445.452L817.124 447.114L819.314 440.543L821.409 434.259C826.102 432.533 830.438 432.645 837.274 432.949L838.36 434.035L840.154 435.829L842.668 436.166C853.338 437.595 863.985 438.767 874.649 439.84C884.716 440.968 889.959 441.843 897.056 446.138C897.686 448.262 898.151 449.884 898.486 451.228C898.948 453.081 899.037 453.937 899.037 454.407C899.037 455.046 899.014 455.434 896.737 459.989L888.897 475.668L905.652 470.511L906.37 470.29C914.528 467.779 919.554 466.232 924.141 463.853C928.746 461.464 932.8 458.292 939.33 453.183L939.908 452.731L940.161 452.533L940.397 452.314C943.743 449.199 944.106 449.015 944.419 448.889C944.519 448.849 944.853 448.727 945.921 448.596C946.753 448.495 947.776 448.414 949.211 448.317C958.755 452.469 962.508 458.73 969.358 470.308L975.075 479.972L981.813 470.989C983.664 468.52 985.513 466.026 987.386 463.477C990.959 459.304 991.944 458.252 992.959 457.555C993.755 457.009 994.684 456.602 997.791 455.54C1000.57 456.513 1002.15 457.082 1003.7 457.714C1005.44 458.419 1007.14 459.204 1010.44 460.72L1017.18 463.813L1020.35 457.108C1020.89 455.967 1021.48 454.743 1022.08 453.49C1022.79 451.994 1023.53 450.456 1024.23 448.964C1028.6 442.62 1034.87 438.563 1042.68 435.49C1048.81 433.076 1055.27 431.472 1062.16 429.761C1064.48 429.182 1066.86 428.592 1069.29 427.954C1072.09 427.39 1073.1 427.197 1074.48 427.074C1075.76 426.96 1077.34 426.909 1080.49 426.842C1082.77 428.554 1083.83 429.82 1084.59 431.079C1085.68 432.888 1086.45 435.083 1087.96 439.623C1088.33 445.397 1088.62 451.181 1088.86 456.978L1088.86 457.104L1088.87 457.231C1089.49 465.49 1090.51 472.187 1093.14 478.544C1095.64 484.581 1099.38 489.81 1104.62 495.664C1106.19 499.732 1106.66 501.133 1106.89 502.695C1107.13 504.395 1107.09 506.394 1106.84 511.625C1102.17 520.207 1096.97 528.409 1091.54 536.959L1091.31 537.324L1091.16 537.56L1091.03 537.806C1083.29 552.274 1081.09 565.512 1079.4 580.478C1078.93 584.53 1078.74 586.028 1078.36 587.683C1077.95 589.431 1077.3 591.401 1075.68 596.267L1075.39 597.128L1075.32 598.033C1074.13 612.678 1075.65 624.078 1080.64 637.742C1082.31 642.418 1083.46 645.687 1084.24 648.25C1085.03 650.819 1085.27 652.199 1085.31 653.116C1085.37 654.435 1085.16 655.355 1083.09 659.823C1077.51 663.963 1075.45 665.399 1073.87 666.079C1072.78 666.545 1072.06 666.652 1067.06 666.652H1059.98L1059.57 673.716C1059.39 676.785 1059.22 679.824 1059.01 682.937C1057.5 689.935 1055.29 695.095 1052.22 699.529C1049.04 704.129 1044.66 708.32 1038.34 713.045L1037.76 713.481L1037.27 714.022C1037.1 714.204 1036.93 714.389 1036.76 714.578C1034.77 716.762 1032.32 719.453 1031.31 723.101C1030.76 725.099 1030.71 727.022 1030.78 728.753C1030.84 730.387 1031.04 732.335 1031.26 734.489L1031.28 734.69L1031.3 734.935L1031.34 735.178C1031.75 737.611 1032.15 740.042 1032.55 742.539C1032.73 743.646 1032.91 744.766 1033.09 745.904C1033.87 751.203 1033.87 751.233 1034.69 756.654L1034.69 756.665L1034.77 757.184L1034.92 757.687C1037.44 766.164 1041.11 772.324 1046.11 777.528C1049.73 781.304 1053.98 784.469 1058.51 787.567L1058.22 788.703L1057.69 790.839C1050.7 792.833 1049.31 793.232 1039.84 795.941L1039.82 795.945L1034.26 797.535L1034.39 803.317C1034.48 807.64 1034.48 807.688 1034.57 812.005C1034.48 817.129 1034.42 818.962 1034.13 820.693C1033.83 822.436 1033.27 824.175 1031.63 829.101L1031.07 830.768L1031.31 832.508C1031.97 837.221 1032.7 841.95 1033.55 846.685C1033.11 846.958 1032.67 847.233 1032.23 847.51L1031.74 847.812L1031.31 848.186C1021.84 856.316 1017.9 864.905 1013.61 874.306C1013.56 874.358 1013.51 874.404 1013.46 874.447C1012.88 874.508 1012.09 874.554 1010.75 874.627C1007.62 874.581 1004.49 874.528 1001.35 874.474C998.124 874.419 994.89 874.364 991.655 874.316L986.662 874.243L984.669 878.821L984.659 878.843C983.869 880.657 983.062 882.51 982.252 884.423C980.424 887.672 979.999 888.301 979.282 889.006C978.387 889.886 977.034 890.853 973.255 893.383C970.898 893.583 968.512 893.787 966.065 894.012L965.527 894.062L965.001 894.188C951.107 897.522 945.038 905.458 938.873 913.519C938.137 914.481 937.4 915.445 936.648 916.403C933.233 917.589 930.837 917.997 928.583 918.032C925.77 918.076 922.69 917.556 917.499 916.38L917.058 916.28L916.609 916.234C914.335 916 913.193 915.883 912.051 915.763C910.894 915.64 909.736 915.515 907.398 915.263L904.291 914.927L901.865 916.896L901.55 917.151C898.341 919.756 896.304 921.409 894.453 923.26C892.899 924.814 891.506 926.477 889.6 928.826C875.618 932.926 861.106 931.624 845.018 929.092L844.914 929.075L844.81 929.062C842.848 928.809 840.852 928.564 838.861 928.32C837.621 928.168 836.382 928.016 835.154 927.863L831.515 927.408L828.921 930.001L825.798 933.124L824.929 933.993C819.606 933.693 814.416 932.812 808.646 931.832C807.13 931.575 805.575 931.311 803.966 931.049L798.499 930.158L796.04 935.121C795.149 936.919 794.267 938.723 793.387 940.521C792.537 942.259 791.689 943.993 790.821 945.745C788.369 950.032 787.313 951.742 786.052 953.029C785.11 953.991 783.788 954.963 780.685 956.418C779.689 956.365 778.953 956.317 778.342 956.256C777.469 956.169 777.203 956.084 777.136 956.061C776.93 955.992 776.688 955.904 774.441 954.23C773.977 953.616 773.513 953.001 773.046 952.383C774.139 947.235 775.265 942.195 776.57 937.201L776.615 937.029L776.651 936.856C779.332 924.172 780.557 911.68 781.536 899.178L781.594 898.587C781.793 896.531 781.991 894.497 782.213 892.439L782.23 892.287L782.24 892.134C782.855 882.964 782.092 875.636 779.51 868.619C777.213 862.374 773.621 856.802 769.176 850.771C768.889 846.836 768.767 844.885 768.767 843.162C768.767 841.231 768.92 839.554 769.323 835.332L770.028 827.938L762.642 827.161C762.049 827.098 761.455 827.036 760.86 826.973C759.283 826.806 757.695 826.638 756.072 826.471C751.683 825.197 749.693 824.06 748.23 822.784C746.487 821.264 744.937 819.099 741.927 814.433C732.146 796.753 732.869 779.947 737.464 758.725C740.23 754.007 741.583 751.714 743.076 749.515C744.477 747.45 746.001 745.468 748.933 741.641L749.836 740.46L750.222 739.025C752.224 731.566 753.61 724.259 754.753 716.837C755.638 713.864 756.539 712.122 757.584 710.715C758.562 709.398 759.866 708.101 762.003 706.318C762.816 706.154 763.629 705.987 764.434 705.822C765.001 705.706 765.563 705.591 766.118 705.478L766.43 705.415L766.735 705.325C778.609 701.845 784.991 694.372 791.09 687.23C791.629 686.599 792.165 685.971 792.704 685.348L793.293 684.665L793.705 683.862C796.613 678.177 798.501 673.537 799.577 668.452C800.634 663.453 800.821 658.402 800.821 652.127V648.114L797.481 645.887L788.042 639.594L782.69 636.026L778.348 640.772L777.999 641.153C776.841 642.419 775.637 643.735 774.429 645.076C766.864 651.899 758.574 651.929 745.201 651.866C738.843 651.099 731.431 649.573 724.519 647.138C718.604 645.054 713.444 642.441 709.609 639.372C709.714 632.848 710.033 626.299 710.383 619.607L710.413 619.027L710.354 618.45C709.789 612.952 708.574 608.572 706.347 604.445C704.224 600.512 701.352 597.158 698.242 593.657L694.971 589.975L690.292 591.514C687.919 592.294 686.728 592.686 685.537 593.076C684.355 593.462 683.173 593.846 680.837 594.604C670.543 597.48 661.532 598.437 651.004 597.613C648.116 595.833 646.813 595.005 645.755 594.212C645.106 593.725 644.54 593.245 643.698 592.464C643.785 591.31 643.876 590.601 644.031 589.828C644.269 588.635 644.665 587.266 645.566 584.365C648.019 582.58 650.494 580.775 653.029 578.912L653.087 578.869L653.145 578.825C656.389 576.341 659.436 573.918 661.835 570.752C664.367 567.411 665.844 563.723 667.021 559.122L667.178 558.511L667.23 557.882C667.68 552.45 668 547.039 668.254 541.632L779.591 449.737Z" fill="#6BC3D6" stroke="black" stroke-width="15"/>
</svg>
