<svg width="504" height="642" viewBox="0 0 504 642" fill="none" xmlns="http://www.w3.org/2000/svg">
<mask id="path-1-inside-1_55825_4493" fill="white">
<path d="M446.73 3.24108C458.563 14.277 467.494 25.8551 472.247 41.5158C474.543 40.6546 476.839 39.7935 479.232 38.9323C488.194 38.3263 488.194 38.3263 497.38 44.8968C504.142 54.2741 504.142 54.2741 503.951 63.8428C500.953 73.4114 500.953 73.4114 497.54 80.3647C492.979 94.1436 494.542 107.891 495.371 122.18C495.594 128.846 495.594 128.846 494.573 140.392C488.162 146.739 488.162 146.739 481.815 149.961C484.367 151.683 486.95 153.374 489.598 155.128C497.763 162.719 497.763 162.719 500.953 172.096C500.953 183.994 498.305 188.268 491.384 197.804C489.087 201.281 486.791 204.789 484.399 208.362C482.485 211.2 480.603 214.039 478.626 216.942C463.475 214.135 463.475 214.135 456.299 210.563C457.543 213.529 458.787 216.495 460.094 219.525C464.879 236.207 459.903 252.442 453.109 267.975C446.347 275.406 446.347 275.406 440.351 280.733C427.401 275.024 418.821 266.476 408.774 256.684C400.609 251.006 395.857 251.102 386.128 252.027C385.331 254.1 384.502 256.173 383.672 258.342C377.644 273.62 371.456 288.515 363.801 303.06C365.715 303.443 367.629 303.857 369.574 304.272C376.56 306.249 376.56 306.249 386.128 312.629C387.053 320.22 387.053 320.22 386.734 328.959C386.607 333.329 386.607 333.329 386.479 337.762C386.352 339.995 386.256 342.228 386.128 344.524C394.549 347.682 402.969 350.839 411.645 354.093C412.442 358.654 413.144 363.247 413.846 367.84C414.452 371.667 414.452 371.667 415.058 375.59C414.994 377.951 414.93 380.343 414.834 382.799C413.335 384.202 411.836 385.606 410.305 387.041C401.47 396.386 402.714 410.197 401.821 422.541C400.8 432.939 399.397 439.477 393.241 448.025C384.948 453.799 380.77 454.245 370.787 454.181C354.775 455.074 348.523 459.699 337.424 470.767C330.981 476.03 326.26 477.306 318.159 478.868C306.262 480.304 306.262 480.304 301.988 488.054C301.35 490.16 300.68 492.265 300.01 494.434C293.631 500.813 293.631 500.813 286.008 502.184C276.376 504.289 272.644 507.288 265.531 513.954C263.33 515.995 261.161 518.004 258.897 520.11C255.58 523.172 255.58 523.172 252.167 526.329C247.861 529.933 243.523 533.506 239.217 537.11C229.904 545.148 222.855 553.44 215.678 563.392C202.92 580.584 187.227 589.546 167.037 596.117C157.054 600.965 152.015 608.269 145.412 617.04C139.703 622.877 135.716 623.962 127.774 625.206C127.774 627.311 127.774 629.416 127.774 631.585C125.35 631.074 122.894 630.532 120.406 629.99C111.698 628.108 111.698 628.108 102.257 628.395C99.7695 628.14 97.2497 627.885 94.6662 627.598C85.6716 627.661 85.6716 627.662 78.3356 634.966C70.3617 641.153 70.3617 641.153 62.3878 641.345C54.4139 637.964 54.4139 637.964 46.44 629.799C39.3592 621.123 39.3592 621.123 30.4922 621.825C27.8768 621.888 25.2294 621.952 22.5183 622.016C10.9402 615.445 7.2403 611.522 3.38093 598.7C3.38093 587.058 5.61361 581.062 10.7488 570.824C13.4918 563.041 13.2686 556.694 12.9496 548.465C12.5988 534.271 13.6832 525.277 22.5183 513.571C29.8862 509.265 36.7118 506.777 44.8452 504.002C42.4212 502.95 39.9652 501.897 37.4773 500.813C25.7079 492.041 22.7416 482.887 19.3287 468.917C17.9891 457.243 17.8296 452.172 24.1131 442.189C26.4734 439.637 26.4734 439.637 28.8974 437.021C26.7923 434.916 24.6872 432.811 22.5183 430.642C21.0511 423.944 21.0511 423.944 19.9348 415.907C17.7659 403.595 14.6401 395.27 7.55925 385C0.223254 374.187 0.223269 374.187 0 364.268C4.11453 355.751 7.91011 352.307 16.1392 347.714C19.2968 347.714 22.4545 347.714 25.7079 347.714C26.6328 345.353 27.5578 342.961 28.5147 340.537C32.087 331.766 32.087 331.766 35.8826 325.387C39.3273 316.871 37.7963 311.767 35.2765 303.06C34.224 300.955 33.1714 298.85 32.087 296.681C30.8749 287.303 30.8749 287.303 32.087 277.543C38.6575 271.356 38.6575 271.356 48.0348 267.975C55.4984 268.772 62.9619 269.857 70.3617 271.164C73.1366 270.558 75.8797 269.984 78.7184 269.378C88.3828 267.592 93.5817 270.144 102.257 274.354C100.886 271.898 100.886 271.898 99.4505 269.41C88.7655 248.486 88.0957 230.593 89.4991 207.373C86.1501 207.054 82.801 206.703 79.3244 206.384C67.2678 204.215 61.3353 201.09 51.2244 194.615C47.8753 193.817 44.5263 193.02 41.0496 192.223C36.6162 190.245 36.6162 190.245 32.087 188.236C28.2914 177.264 28.2914 177.264 25.7079 165.909C23.9217 164.186 22.1674 162.496 20.3175 160.742C16.1392 156.34 16.1392 156.34 16.1392 148.366C20.3175 137.904 25.5484 136.15 35.2765 130.824C36.6481 128.655 37.9877 126.486 39.3911 124.285C44.8452 118.065 44.8452 118.065 53.7122 116.471C57.0294 116.407 60.3465 116.343 63.7912 116.279C78.527 115.96 84.332 114.078 95.8782 105.307C102.895 105.275 102.895 105.275 110.837 106.296C129.209 106.838 142.86 101.511 159.287 93.9522C161.583 92.8997 163.912 91.879 166.272 90.8264C183.304 82.5336 190.831 73.2201 201.134 57.4636C211.436 53.0939 215.455 53.7318 226.044 57.2723C229.521 58.9308 229.521 58.9308 233.029 60.6532C234.816 58.1972 234.816 58.1972 236.602 55.6775C242.598 51.0845 242.598 51.0845 252.358 51.8819C261.735 54.2741 261.735 54.2741 268.115 57.4636C281 58.7395 281 58.7395 293.631 57.4636C302.466 49.9682 302.466 49.9682 309.579 41.5158C316.149 38.5176 316.149 38.5176 322.337 38.3263C328.908 41.3244 328.908 41.3244 335.095 44.7054C338.253 44.7054 341.411 44.7054 344.664 44.7054C351.553 35.4238 351.553 35.4238 357.422 25.568C358.475 24.5155 359.527 23.4629 360.612 22.3785C364.567 22.6336 368.522 22.9207 372.573 23.1758C379.558 23.4948 379.558 23.4948 386.128 22.3785C391.519 17.1476 396.813 11.821 402.076 6.43064C416.078 1.07218 432.728 -3.20183 446.73 3.24108Z"/>
</mask>
<path d="M446.73 3.24108C458.563 14.277 467.494 25.8551 472.247 41.5158C474.543 40.6546 476.839 39.7935 479.232 38.9323C488.194 38.3263 488.194 38.3263 497.38 44.8968C504.142 54.2741 504.142 54.2741 503.951 63.8428C500.953 73.4114 500.953 73.4114 497.54 80.3647C492.979 94.1436 494.542 107.891 495.371 122.18C495.594 128.846 495.594 128.846 494.573 140.392C488.162 146.739 488.162 146.739 481.815 149.961C484.367 151.683 486.95 153.374 489.598 155.128C497.763 162.719 497.763 162.719 500.953 172.096C500.953 183.994 498.305 188.268 491.384 197.804C489.087 201.281 486.791 204.789 484.399 208.362C482.485 211.2 480.603 214.039 478.626 216.942C463.475 214.135 463.475 214.135 456.299 210.563C457.543 213.529 458.787 216.495 460.094 219.525C464.879 236.207 459.903 252.442 453.109 267.975C446.347 275.406 446.347 275.406 440.351 280.733C427.401 275.024 418.821 266.476 408.774 256.684C400.609 251.006 395.857 251.102 386.128 252.027C385.331 254.1 384.502 256.173 383.672 258.342C377.644 273.62 371.456 288.515 363.801 303.06C365.715 303.443 367.629 303.857 369.574 304.272C376.56 306.249 376.56 306.249 386.128 312.629C387.053 320.22 387.053 320.22 386.734 328.959C386.607 333.329 386.607 333.329 386.479 337.762C386.352 339.995 386.256 342.228 386.128 344.524C394.549 347.682 402.969 350.839 411.645 354.093C412.442 358.654 413.144 363.247 413.846 367.84C414.452 371.667 414.452 371.667 415.058 375.59C414.994 377.951 414.93 380.343 414.834 382.799C413.335 384.202 411.836 385.606 410.305 387.041C401.47 396.386 402.714 410.197 401.821 422.541C400.8 432.939 399.397 439.477 393.241 448.025C384.948 453.799 380.77 454.245 370.787 454.181C354.775 455.074 348.523 459.699 337.424 470.767C330.981 476.03 326.26 477.306 318.159 478.868C306.262 480.304 306.262 480.304 301.988 488.054C301.35 490.16 300.68 492.265 300.01 494.434C293.631 500.813 293.631 500.813 286.008 502.184C276.376 504.289 272.644 507.288 265.531 513.954C263.33 515.995 261.161 518.004 258.897 520.11C255.58 523.172 255.58 523.172 252.167 526.329C247.861 529.933 243.523 533.506 239.217 537.11C229.904 545.148 222.855 553.44 215.678 563.392C202.92 580.584 187.227 589.546 167.037 596.117C157.054 600.965 152.015 608.269 145.412 617.04C139.703 622.877 135.716 623.962 127.774 625.206C127.774 627.311 127.774 629.416 127.774 631.585C125.35 631.074 122.894 630.532 120.406 629.99C111.698 628.108 111.698 628.108 102.257 628.395C99.7695 628.14 97.2497 627.885 94.6662 627.598C85.6716 627.661 85.6716 627.662 78.3356 634.966C70.3617 641.153 70.3617 641.153 62.3878 641.345C54.4139 637.964 54.4139 637.964 46.44 629.799C39.3592 621.123 39.3592 621.123 30.4922 621.825C27.8768 621.888 25.2294 621.952 22.5183 622.016C10.9402 615.445 7.2403 611.522 3.38093 598.7C3.38093 587.058 5.61361 581.062 10.7488 570.824C13.4918 563.041 13.2686 556.694 12.9496 548.465C12.5988 534.271 13.6832 525.277 22.5183 513.571C29.8862 509.265 36.7118 506.777 44.8452 504.002C42.4212 502.95 39.9652 501.897 37.4773 500.813C25.7079 492.041 22.7416 482.887 19.3287 468.917C17.9891 457.243 17.8296 452.172 24.1131 442.189C26.4734 439.637 26.4734 439.637 28.8974 437.021C26.7923 434.916 24.6872 432.811 22.5183 430.642C21.0511 423.944 21.0511 423.944 19.9348 415.907C17.7659 403.595 14.6401 395.27 7.55925 385C0.223254 374.187 0.223269 374.187 0 364.268C4.11453 355.751 7.91011 352.307 16.1392 347.714C19.2968 347.714 22.4545 347.714 25.7079 347.714C26.6328 345.353 27.5578 342.961 28.5147 340.537C32.087 331.766 32.087 331.766 35.8826 325.387C39.3273 316.871 37.7963 311.767 35.2765 303.06C34.224 300.955 33.1714 298.85 32.087 296.681C30.8749 287.303 30.8749 287.303 32.087 277.543C38.6575 271.356 38.6575 271.356 48.0348 267.975C55.4984 268.772 62.9619 269.857 70.3617 271.164C73.1366 270.558 75.8797 269.984 78.7184 269.378C88.3828 267.592 93.5817 270.144 102.257 274.354C100.886 271.898 100.886 271.898 99.4505 269.41C88.7655 248.486 88.0957 230.593 89.4991 207.373C86.1501 207.054 82.801 206.703 79.3244 206.384C67.2678 204.215 61.3353 201.09 51.2244 194.615C47.8753 193.817 44.5263 193.02 41.0496 192.223C36.6162 190.245 36.6162 190.245 32.087 188.236C28.2914 177.264 28.2914 177.264 25.7079 165.909C23.9217 164.186 22.1674 162.496 20.3175 160.742C16.1392 156.34 16.1392 156.34 16.1392 148.366C20.3175 137.904 25.5484 136.15 35.2765 130.824C36.6481 128.655 37.9877 126.486 39.3911 124.285C44.8452 118.065 44.8452 118.065 53.7122 116.471C57.0294 116.407 60.3465 116.343 63.7912 116.279C78.527 115.96 84.332 114.078 95.8782 105.307C102.895 105.275 102.895 105.275 110.837 106.296C129.209 106.838 142.86 101.511 159.287 93.9522C161.583 92.8997 163.912 91.879 166.272 90.8264C183.304 82.5336 190.831 73.2201 201.134 57.4636C211.436 53.0939 215.455 53.7318 226.044 57.2723C229.521 58.9308 229.521 58.9308 233.029 60.6532C234.816 58.1972 234.816 58.1972 236.602 55.6775C242.598 51.0845 242.598 51.0845 252.358 51.8819C261.735 54.2741 261.735 54.2741 268.115 57.4636C281 58.7395 281 58.7395 293.631 57.4636C302.466 49.9682 302.466 49.9682 309.579 41.5158C316.149 38.5176 316.149 38.5176 322.337 38.3263C328.908 41.3244 328.908 41.3244 335.095 44.7054C338.253 44.7054 341.411 44.7054 344.664 44.7054C351.553 35.4238 351.553 35.4238 357.422 25.568C358.475 24.5155 359.527 23.4629 360.612 22.3785C364.567 22.6336 368.522 22.9207 372.573 23.1758C379.558 23.4948 379.558 23.4948 386.128 22.3785C391.519 17.1476 396.813 11.821 402.076 6.43064C416.078 1.07218 432.728 -3.20183 446.73 3.24108Z" fill="#6BC3D6" stroke="black" stroke-width="30" mask="url(#path-1-inside-1_55825_4493)"/>
</svg>
