<svg width="489" height="254" viewBox="0 0 489 254" fill="none" xmlns="http://www.w3.org/2000/svg">
<path d="M199.127 1.75469C188.261 4.15949 180.691 10.6614 178.108 19.9243C177.306 22.6854 176.683 26.3371 176.683 27.8512V30.7014H170.448H164.213V38.7174V46.6443L170.27 46.9115L176.237 47.1787L176.505 81.2022L176.683 115.315H187.371H198.059V81.024V46.7334H205.184H212.309V38.7174V30.7014H205.184H197.97L198.593 27.3168C198.86 25.5355 199.662 23.1307 200.374 22.0619C201.621 20.1024 206.431 18.232 210.35 18.232C212.22 18.232 212.309 17.9648 212.309 9.32536V0.418694L208.569 0.50776C206.431 0.50776 202.156 1.13123 199.127 1.75469Z" fill="#00B8E0"/>
<path d="M216.763 46.0208C216.763 85.2992 217.297 92.9589 220.414 100.173C222.641 105.428 229.41 112.019 235.199 114.602C240.989 117.185 256.308 117.898 263.166 115.849C269.935 113.89 275.725 109.792 279.377 104.359C284.364 97.056 285.344 92.2464 285.344 75.0565V60.0933H275.19H265.037L264.681 74.5221C264.413 87.1696 264.146 89.4853 262.632 92.1573C257.822 100.351 245.62 100.173 241.078 91.8901C239.653 89.4853 239.475 86.1008 239.207 67.8421L238.94 46.7333H262.098H285.344V38.7173V30.7013H262.187H239.029V19.568V8.43463H227.896H216.763V46.0208Z" fill="#00B8E0"/>
<path d="M27.1398 29.8998C14.7595 32.0374 5.85282 39.0736 3.80429 48.0694C2.55736 53.7696 3.71522 61.2512 6.65442 65.9718C10.3952 72.1174 20.3707 77.1051 36.4918 81.1131C48.872 84.1413 53.3254 86.1899 54.6614 89.3963C55.9974 92.6917 55.0176 96.1653 52.2566 97.9467C48.6939 100.351 40.4107 101.42 34.7104 100.173C28.743 98.9264 23.488 94.6512 23.488 90.9104V88.5947H11.9094H0.330688V90.8213C0.330688 95.2747 3.80429 102.4 8.07949 106.586C16.5408 114.78 25.5366 117.452 42.6374 116.918C55.9974 116.473 61.0742 115.047 67.6651 110.06C73.9888 105.339 77.1952 98.6592 77.1062 90.4651C77.0171 80.0443 72.92 73.7206 63.8352 69.8016C61.6976 68.911 54.7504 66.6843 48.2486 64.903C28.2086 59.4699 23.2208 56.3526 25.2694 50.7414C26.6054 47.2678 28.743 46.3771 36.6699 46.0208C47.0907 45.6646 51.0096 47.7131 53.2363 54.9275C53.6816 56.3526 55.0176 56.5307 64.4587 56.5307H75.2358L74.7014 53.1462C74.3451 51.3648 72.92 47.3568 71.4059 44.2395C68.3776 37.8267 63.3899 33.5515 55.9974 31.1467C50.6534 29.3654 34.087 28.6528 27.1398 29.8998Z" fill="#00B8E0"/>
<path d="M112.911 30.2561C97.9477 33.4625 86.7253 44.5067 82.7173 59.8262C81.0251 66.239 81.0251 80.4006 82.7173 86.7243C86.7253 101.866 97.8587 112.999 112.287 116.205C123.51 118.788 138.473 116.74 147.469 111.485C165.727 100.797 172.318 73.1862 162.076 50.6523C159.493 44.9521 151.388 36.847 145.42 33.7297C136.425 29.2763 123.866 27.8513 112.911 30.2561ZM130.991 48.9601C136.246 50.4742 141.056 55.1947 142.926 60.6278C143.728 62.8545 144.173 67.7531 144.084 73.8987C144.084 84.943 142.303 90.1979 137.226 94.4731C133.307 97.7686 130.724 98.5702 123.955 98.5702C114.158 98.5702 107.834 93.8497 105.34 84.6758C103.915 79.6881 104.004 67.7531 105.34 62.1419C108.101 50.9195 118.878 45.3974 130.991 48.9601Z" fill="#00B8E0"/>
<path d="M83.1627 194.139V251.587H94.296H105.429V225.045C105.429 209.191 105.786 197.256 106.409 195.207C107.656 190.754 112.733 185.143 116.741 183.807C121.105 182.382 129.032 183.183 131.971 185.41C136.157 188.527 136.514 191.021 136.514 222.373L136.603 251.587H147.736H158.869V219.255C158.869 183.54 158.602 181.402 153.525 175.078C151.833 172.763 148.538 170.447 144.797 168.577C139.364 165.905 138.206 165.637 130.368 165.637C122.975 165.637 121.194 165.994 116.652 168.131C113.802 169.467 110.061 171.961 108.458 173.742L105.429 176.86V156.82V136.691H94.296H83.1627V194.139Z" fill="#39639C"/>
<path d="M27.1398 166.172C14.7595 168.309 5.85282 175.346 3.80429 184.341C2.55736 190.042 3.71522 197.523 6.65442 202.244C10.3952 208.389 20.3707 213.377 36.4918 217.385C48.872 220.413 53.3254 222.462 54.6614 225.668C55.9974 228.964 55.0176 232.437 52.2566 234.219C48.6939 236.623 40.4107 237.692 34.7104 236.445C28.743 235.198 23.488 230.923 23.488 227.182V224.867H11.9094H0.330688V227.093C0.330688 231.547 3.80429 238.672 8.07949 242.858C16.5408 251.052 25.5366 253.724 42.6374 253.19C55.9974 252.745 61.0742 251.319 67.6651 246.332C73.9888 241.611 77.1952 234.931 77.1062 226.737C77.0171 216.316 72.92 209.993 63.8352 206.074C61.6976 205.183 54.7504 202.956 48.2486 201.175C28.2086 195.742 23.2208 192.625 25.2694 187.013C26.6054 183.54 28.743 182.649 36.6699 182.293C47.0907 181.937 51.0096 183.985 53.2363 191.199C53.6816 192.625 55.0176 192.803 64.4587 192.803H75.2358L74.7014 189.418C74.3451 187.637 72.92 183.629 71.4059 180.511C68.3776 174.099 63.3899 169.823 55.9974 167.419C50.6534 165.637 34.087 164.925 27.1398 166.172Z" fill="#39639C"/>
<path d="M193.605 166.172C187.816 167.152 180.869 170.269 176.95 173.564C173.298 176.593 169.825 183.896 169.023 189.864L168.399 194.584H178.82C187.905 194.584 189.241 194.406 189.686 192.981C192.091 185.232 195.921 182.56 204.739 182.649C214.002 182.738 218.544 185.588 218.544 191.467C218.544 196.989 214.981 198.948 200.731 201.264C188.261 203.313 183.808 204.382 179.355 206.608C170.804 210.972 166.885 217.118 166.173 227.272C165.638 235.644 167.153 240.81 171.517 245.797C176.326 251.32 182.205 253.368 193.071 253.368C202.779 253.368 208.658 251.854 214.892 247.668L219.346 244.64L219.88 248.113L220.503 251.587H231.191H241.879L241.523 220.146C241.167 192.536 240.9 188.26 239.475 184.074C237.515 178.463 232.171 172.05 227.273 169.556C219.702 165.638 205.362 164.302 193.605 166.172ZM218.633 218.187C218.01 226.559 216.139 230.3 210.973 233.952C207.054 236.713 199.484 238.494 195.387 237.692C190.933 236.802 188.261 233.595 188.261 229.142C188.261 221.304 192.269 218.187 205.986 215.069C210.528 214.09 215.338 212.665 216.674 212.041C217.921 211.329 218.989 210.794 219.078 210.883C219.078 210.972 218.9 214.268 218.633 218.187Z" fill="#39639C"/>
<path d="M285.611 166.439C280.534 168.042 275.992 170.981 273.32 174.366L271.093 177.216V172.05V166.973H260.851H250.608V209.28V251.587H261.741H272.875V226.648C272.875 199.483 273.142 197.612 277.951 192.625C281.069 189.329 287.749 187.191 293.805 187.637L298.704 187.904V176.503V165.192L294.073 165.281C291.49 165.281 287.66 165.815 285.611 166.439Z" fill="#39639C"/>
<path d="M327.562 166.528C319.902 168.22 314.023 171.427 309.125 176.682C300.753 185.588 297.101 197.612 298.081 213.288C299.417 235.287 309.481 248.737 327.205 252.566C334.687 254.17 350.719 253.19 356.152 250.785C364.613 247.044 370.848 240.631 374.856 231.725L377.083 226.648H365.593H354.103L352.233 229.765C348.492 236.089 337.27 237.959 329.699 233.506C325.246 230.923 321.416 224.778 320.436 218.81L319.813 215.069H349.027H378.241L377.617 207.321C376.637 194.406 373.164 184.074 367.642 177.305C359.358 167.419 343.415 163.054 327.562 166.528ZM345.731 184.876C350.274 187.102 353.569 191.734 354.46 196.989L355.083 200.819H337.893H320.793L321.416 197.523C323.643 185.677 335.043 179.71 345.731 184.876Z" fill="#39639C"/>
<path d="M407.543 166.528C393.293 169.646 385.188 177.662 385.099 188.617C385.01 204.025 393.115 210.883 419.122 217.652C434.62 221.66 437.114 223.264 436.579 228.964C436.223 233.15 433.551 235.199 426.871 236.535C417.074 238.494 406.564 234.13 405.317 227.539L404.782 224.867H393.293H381.803L382.516 228.964C384.653 240.364 393.204 248.47 407.098 252.032C414.758 254.081 431.502 253.814 438.717 251.587C448.425 248.559 455.194 242.858 458.044 235.288C459.291 232.081 459.291 222.729 458.133 218.454C455.818 210.349 450.295 207.054 428.474 200.73C420.102 198.325 411.997 195.475 410.394 194.495C405.139 191.289 405.673 184.965 411.284 183.006C415.381 181.58 425.802 181.937 429.276 183.54C432.304 184.965 434.976 188.706 434.976 191.467C434.976 192.625 436.668 192.803 446.02 192.803H456.975L456.263 188.884C454.66 180.423 449.583 173.03 442.814 169.556C434.62 165.37 419.122 164.034 407.543 166.528Z" fill="#39639C"/>
<path d="M464.368 240.008V251.587H476.392H488.416V240.008V228.429H476.392H464.368V240.008Z" fill="#39639C"/>
</svg>
