<svg width="393" height="59" viewBox="0 0 393 59" fill="none" xmlns="http://www.w3.org/2000/svg">
<path d="M100.333 0.674315C94.8493 1.88803 91.0283 5.16955 89.7247 9.84459C89.3201 11.2381 89.0055 13.0812 89.0055 13.8453V15.2838H85.8588H82.7122V19.3295V23.3303L85.7689 23.4651L88.7807 23.6L88.9156 40.7718L89.0055 57.9885H94.3998H99.794V40.6819V23.3752H103.39H106.986V19.3295V15.2838H103.39H99.7491L100.064 13.5756C100.199 12.6766 100.603 11.4629 100.963 10.9234C101.592 9.93449 104.02 8.99049 105.997 8.99049C106.941 8.99049 106.986 8.85564 106.986 4.49526V3.02717e-05L105.098 0.0449826C104.02 0.0449826 101.862 0.359649 100.333 0.674315Z" fill="#39639C"/>
<path d="M188.35 28.9943V57.9885H193.924H199.543L199.678 43.9184C199.813 30.7474 199.858 29.8034 200.757 28.1402C201.251 27.1512 202.42 25.7577 203.364 24.9935C205.477 23.2404 209.657 22.8358 212.175 24.1394C215.232 25.7128 215.321 26.2971 215.321 43.0194V57.9885H221.255H227.144L226.874 41.4461C226.694 32.2758 226.38 24.1844 226.11 23.2853C225.301 20.4084 223.008 17.8911 219.637 16.1829C216.715 14.6994 216.265 14.6095 212.22 14.6095C208.758 14.6095 207.5 14.8343 205.747 15.5985C203.139 16.8122 201.431 18.1158 200.397 19.6891C199.633 20.8579 199.588 20.5882 199.588 10.429V3.02717e-05H193.969H188.35V28.9943Z" fill="#00B8E0"/>
<path d="M109.234 23.0157C109.234 42.8396 109.504 46.7055 111.077 50.3467C112.201 52.9989 115.617 56.3253 118.539 57.6289C121.461 58.9326 129.193 59.2922 132.654 58.2583C136.07 57.2693 138.992 55.2015 140.835 52.4594C143.353 48.7733 143.847 46.3459 143.847 37.6701V30.1181H138.723H133.598L133.418 37.4004C133.283 43.7836 133.149 44.9524 132.384 46.301C129.957 50.4366 123.798 50.3467 121.506 46.1661C120.787 44.9524 120.697 43.2442 120.562 34.029L120.427 23.3753H132.115H143.847V19.3296V15.2839H132.16H120.472V9.66481V4.04577H114.853H109.234V23.0157Z" fill="#39639C"/>
<path d="M13.5306 14.8791C7.28228 15.958 2.78704 19.5092 1.75314 24.0494C1.12381 26.9264 1.70819 30.7024 3.19161 33.0848C5.07961 36.1865 10.1143 38.7039 18.2506 40.7267C24.499 42.2551 26.7466 43.289 27.4209 44.9073C28.0952 46.5705 27.6007 48.3237 26.2072 49.2227C24.4091 50.4364 20.2285 50.9759 17.3516 50.3465C14.3398 49.7172 11.6876 47.5595 11.6876 45.6715V44.5027H5.8438H0V45.6265C0 47.8741 1.75314 51.4703 3.91085 53.5831C8.18132 57.7187 12.7215 59.0673 21.3524 58.7976C28.0952 58.5728 30.6575 57.8536 33.984 55.3362C37.1756 52.9538 38.7939 49.5823 38.7489 45.4467C38.7039 40.1873 36.6361 36.9957 32.051 35.0178C30.9721 34.5683 27.4659 33.4445 24.1843 32.5454C14.0701 29.8033 11.5527 28.23 12.5867 25.398C13.2609 23.6448 14.3398 23.1953 18.3405 23.0155C23.6 22.8357 25.5779 23.8696 26.7017 27.5107C26.9264 28.23 27.6007 28.3199 32.3657 28.3199H37.8049L37.5352 26.6117C37.3554 25.7127 36.6361 23.6898 35.872 22.1165C34.3436 18.8799 31.8262 16.7222 28.0952 15.5085C25.3981 14.6094 17.0369 14.2498 13.5306 14.8791Z" fill="#39639C"/>
<path d="M56.8196 15.059C49.2676 16.6773 43.6036 22.2514 41.5808 29.9832C40.7267 33.2197 40.7267 40.3672 41.5808 43.5588C43.6036 51.2007 49.2227 56.8197 56.5049 58.438C62.1689 59.7416 69.7209 58.7077 74.2611 56.0555C83.4763 50.6612 86.8028 36.726 81.6333 25.3531C80.3297 22.4761 76.239 18.3855 73.2272 16.8121C68.687 14.5645 62.3487 13.8453 56.8196 15.059ZM65.9449 24.499C68.5971 25.2632 71.0245 27.6456 71.9685 30.3877C72.3731 31.5115 72.5979 33.9839 72.5529 37.0856C72.5529 42.6597 71.6539 45.3119 69.0916 47.4696C67.1137 49.1329 65.8101 49.5374 62.3937 49.5374C57.4489 49.5374 54.2573 47.155 52.9986 42.5249C52.2794 40.0075 52.3244 33.9839 52.9986 31.1519C54.3922 25.4879 59.8314 22.7009 65.9449 24.499Z" fill="#39639C"/>
<path d="M160.03 14.8792C157.063 15.3737 153.602 16.947 151.534 18.7001C148.567 21.1725 147.444 26.1173 148.747 30.8373C149.871 34.9729 155.535 38.3892 165.514 40.9066C172.392 42.6597 173.831 43.4239 174.19 45.5367C174.82 48.8182 172.167 50.5264 166.548 50.5264C164.211 50.4814 162.907 50.2117 161.514 49.4925C159.671 48.5934 158.232 46.6605 158.232 45.177C158.232 44.5927 157.378 44.5028 152.388 44.5028C145.735 44.5028 145.96 44.3229 147.309 48.5485C148.343 51.7401 151.309 54.9317 154.771 56.5949C158.772 58.4829 162.233 59.0224 168.661 58.7976C175.674 58.5279 178.506 57.494 181.922 54.1226C185.024 51.0208 186.013 47.9641 185.293 43.4689C184.349 37.4003 182.327 35.827 170.819 32.5904C160.435 29.6235 158.951 28.7694 159.221 25.9824C159.401 23.9146 161.469 22.9256 165.649 22.9256C169.74 22.9256 171.628 23.8247 172.842 26.387L173.696 28.3199H179.045H184.394L184.08 26.4319C183.361 22.2064 181.113 18.79 177.786 16.8571C174.1 14.6994 166.413 13.8453 160.03 14.8792Z" fill="#00B8E0"/>
<path d="M244.091 14.8793C242.742 15.104 240.36 15.9132 238.832 16.6324C234.651 18.7002 232.493 21.8469 231.729 27.1512L231.414 29.219H236.809H242.203L242.428 27.9154C243.102 24.589 246.698 22.5661 251.014 23.1505C254.924 23.645 256.678 25.0834 256.678 27.7356C256.678 30.6575 255.419 31.2868 246.428 32.8152C239.551 33.984 236.404 35.1527 233.932 37.4004C231.324 39.8278 230.38 42.3901 230.38 47.2C230.38 51.4255 230.965 53.0438 233.437 55.651C235.595 57.8986 238.832 58.8876 244.046 58.8876C249.126 58.8876 252.722 57.8986 255.419 55.696L257.127 54.3474L257.397 56.1904L257.712 57.9885H263.016H268.365V43.6937C268.365 35.872 268.185 28.2301 267.916 26.7467C266.972 20.9478 263.735 17.1718 258.341 15.4636C255.509 14.6095 247.507 14.2499 244.091 14.8793ZM256.723 43.424C256.138 45.8964 254.16 48.6384 252.182 49.6723C246.923 52.3695 241.394 50.7512 241.394 46.4358C241.394 42.7497 243.596 41.0865 250.339 39.603C252.542 39.1086 254.969 38.3893 255.644 38.0297L256.902 37.4004L257.037 39.2434C257.127 40.2773 256.992 42.1653 256.723 43.424Z" fill="#00B8E0"/>
<path d="M290.032 15.2389C288.414 15.7783 286.885 16.8122 285.402 18.2507L283.199 20.4084V17.8461V15.2838H278.03H272.86V36.6362V57.9885H278.479H284.098V45.7165C284.098 38.5691 284.278 32.7703 284.593 31.7813C285.672 27.8255 289.807 25.3981 295.022 25.6678L297.359 25.8027L297.494 20.0937L297.629 14.3848H295.022C293.583 14.4297 291.336 14.7893 290.032 15.2389Z" fill="#00B8E0"/>
<path d="M311.744 15.0141C306.08 16.3626 301.63 19.8689 299.248 24.9036C297.36 28.8594 296.955 30.9721 296.955 36.4114C297 44.0982 298.483 49.0879 302.08 53.1336C304.012 55.3812 307.923 57.5839 311.25 58.393C314.037 59.0673 320.51 59.1123 323.342 58.483C329.006 57.1793 333.456 53.1786 336.019 47.0651L336.693 45.4018H330.984L325.23 45.4468L324.331 46.8403C322.937 49.043 320.915 49.987 317.678 50.0319C312.508 50.0769 309.227 47.0201 308.193 41.2213L307.878 39.558H322.578H337.277L337.007 35.3775C336.333 25.1733 332.198 18.3855 325.095 15.6883C321.814 14.4746 315.475 14.16 311.744 15.0141ZM320.375 24.0495C321.319 24.454 322.443 25.0834 322.937 25.5329C324.061 26.5668 325.455 29.5786 325.455 31.107V32.3657H316.869H308.283L308.598 30.8822C309.047 28.9942 310.306 26.4769 311.385 25.5329C313.677 23.4651 317.453 22.8358 320.375 24.0495Z" fill="#00B8E0"/>
<path d="M352.876 14.8792C347.167 15.8682 342.582 19.1947 341.413 23.1055C340.559 25.9825 340.559 27.5558 341.458 30.6126C342.851 35.2427 347.212 38.0297 357.281 40.6369C364.698 42.5699 366.182 43.2891 366.811 45.1771C367.755 48.0091 365.777 49.8971 361.102 50.5714C356.562 51.2906 351.078 48.5935 351.078 45.6716V44.5028H345.189H339.255L339.525 46.5257C339.929 49.2678 341.188 51.5603 343.526 53.763C347.346 57.4491 351.932 58.8876 359.663 58.8876C368.834 58.8876 374.273 56.4152 376.88 51.1558C378.364 48.1889 378.498 43.0644 377.195 40.2324C375.532 36.5912 373.059 35.1977 362.99 32.3657C359.349 31.3768 355.528 30.1181 354.449 29.6236C352.111 28.5448 351.257 26.9714 352.066 25.2632C352.921 23.555 354.494 22.9257 358.18 22.9257C362.675 22.9257 364.338 23.6899 365.507 26.2971L366.406 28.32H371.801H377.195L376.88 26.6118C375.891 21.0827 372.789 17.3966 367.485 15.5535C364.788 14.6095 356.517 14.205 352.876 14.8792Z" fill="#00B8E0"/>
<path d="M380.746 52.1447V57.9885H386.815H392.883V52.1447V46.3009H386.815H380.746V52.1447Z" fill="#00B8E0"/>
</svg>
